G04 #@! TF.GenerationSoftware,KiCad,Pcbnew,(5.1.2)-1*
G04 #@! TF.CreationDate,2019-05-14T16:37:42-04:00*
G04 #@! TF.ProjectId,RaspberryPiHat,52617370-6265-4727-9279-50694861742e,1*
G04 #@! TF.SameCoordinates,Original*
G04 #@! TF.FileFunction,Legend,Top*
G04 #@! TF.FilePolarity,Positive*
%FSLAX46Y46*%
G04 Gerber Fmt 4.6, Leading zero omitted, Abs format (unit mm)*
G04 Created by KiCad (PCBNEW (5.1.2)-1) date 2019-05-14 16:37:42*
%MOMM*%
%LPD*%
G04 APERTURE LIST*
%ADD10C,0.125000*%
%ADD11C,0.150000*%
%ADD12C,0.120000*%
%ADD13C,0.100000*%
%ADD14C,0.203200*%
G04 APERTURE END LIST*
D10*
X110712333Y-71600190D02*
X110712333Y-71100190D01*
X110902809Y-71100190D01*
X110950428Y-71124000D01*
X110974238Y-71147809D01*
X110998047Y-71195428D01*
X110998047Y-71266857D01*
X110974238Y-71314476D01*
X110950428Y-71338285D01*
X110902809Y-71362095D01*
X110712333Y-71362095D01*
X111164714Y-71100190D02*
X111283761Y-71600190D01*
X111379000Y-71243047D01*
X111474238Y-71600190D01*
X111593285Y-71100190D01*
X112069476Y-71600190D02*
X111902809Y-71362095D01*
X111783761Y-71600190D02*
X111783761Y-71100190D01*
X111974238Y-71100190D01*
X112021857Y-71124000D01*
X112045666Y-71147809D01*
X112069476Y-71195428D01*
X112069476Y-71266857D01*
X112045666Y-71314476D01*
X112021857Y-71338285D01*
X111974238Y-71362095D01*
X111783761Y-71362095D01*
D11*
X116895619Y-69834571D02*
X116895619Y-69263142D01*
X116895619Y-69548857D02*
X117895619Y-69548857D01*
X117752761Y-69453619D01*
X117657523Y-69358380D01*
X117609904Y-69263142D01*
X116895619Y-70310761D02*
X116895619Y-70501238D01*
X116943238Y-70596476D01*
X116990857Y-70644095D01*
X117133714Y-70739333D01*
X117324190Y-70786952D01*
X117705142Y-70786952D01*
X117800380Y-70739333D01*
X117848000Y-70691714D01*
X117895619Y-70596476D01*
X117895619Y-70406000D01*
X117848000Y-70310761D01*
X117800380Y-70263142D01*
X117705142Y-70215523D01*
X117467047Y-70215523D01*
X117371809Y-70263142D01*
X117324190Y-70310761D01*
X117276571Y-70406000D01*
X117276571Y-70596476D01*
X117324190Y-70691714D01*
X117371809Y-70739333D01*
X117467047Y-70786952D01*
X116990857Y-71215523D02*
X116943238Y-71263142D01*
X116895619Y-71215523D01*
X116943238Y-71167904D01*
X116990857Y-71215523D01*
X116895619Y-71215523D01*
X117895619Y-71596476D02*
X117895619Y-72215523D01*
X117514666Y-71882190D01*
X117514666Y-72025047D01*
X117467047Y-72120285D01*
X117419428Y-72167904D01*
X117324190Y-72215523D01*
X117086095Y-72215523D01*
X116990857Y-72167904D01*
X116943238Y-72120285D01*
X116895619Y-72025047D01*
X116895619Y-71739333D01*
X116943238Y-71644095D01*
X116990857Y-71596476D01*
X117895619Y-72834571D02*
X117895619Y-72929809D01*
X117848000Y-73025047D01*
X117800380Y-73072666D01*
X117705142Y-73120285D01*
X117514666Y-73167904D01*
X117276571Y-73167904D01*
X117086095Y-73120285D01*
X116990857Y-73072666D01*
X116943238Y-73025047D01*
X116895619Y-72929809D01*
X116895619Y-72834571D01*
X116943238Y-72739333D01*
X116990857Y-72691714D01*
X117086095Y-72644095D01*
X117276571Y-72596476D01*
X117514666Y-72596476D01*
X117705142Y-72644095D01*
X117800380Y-72691714D01*
X117848000Y-72739333D01*
X117895619Y-72834571D01*
X117562285Y-74025047D02*
X116895619Y-74025047D01*
X117943238Y-73786952D02*
X117228952Y-73548857D01*
X117228952Y-74167904D01*
X116895619Y-75310761D02*
X117562285Y-75310761D01*
X117467047Y-75310761D02*
X117514666Y-75358380D01*
X117562285Y-75453619D01*
X117562285Y-75596476D01*
X117514666Y-75691714D01*
X117419428Y-75739333D01*
X116895619Y-75739333D01*
X117419428Y-75739333D02*
X117514666Y-75786952D01*
X117562285Y-75882190D01*
X117562285Y-76025047D01*
X117514666Y-76120285D01*
X117419428Y-76167904D01*
X116895619Y-76167904D01*
X116895619Y-76644095D02*
X117562285Y-76644095D01*
X117467047Y-76644095D02*
X117514666Y-76691714D01*
X117562285Y-76786952D01*
X117562285Y-76929809D01*
X117514666Y-77025047D01*
X117419428Y-77072666D01*
X116895619Y-77072666D01*
X117419428Y-77072666D02*
X117514666Y-77120285D01*
X117562285Y-77215523D01*
X117562285Y-77358380D01*
X117514666Y-77453619D01*
X117419428Y-77501238D01*
X116895619Y-77501238D01*
D12*
X116078000Y-63754000D02*
X116078000Y-83058000D01*
X112014000Y-63754000D02*
X116664421Y-63754000D01*
X112014000Y-83058000D02*
X116664421Y-83058000D01*
X116078000Y-83058000D02*
X115491579Y-81931496D01*
X116078000Y-83058000D02*
X116664421Y-81931496D01*
X116078000Y-63754000D02*
X115491579Y-64880504D01*
X116078000Y-63754000D02*
X116664421Y-64880504D01*
D11*
X94409142Y-56443619D02*
X94456761Y-56396000D01*
X94552000Y-56348380D01*
X94790095Y-56348380D01*
X94885333Y-56396000D01*
X94932952Y-56443619D01*
X94980571Y-56538857D01*
X94980571Y-56634095D01*
X94932952Y-56776952D01*
X94361523Y-57348380D01*
X94980571Y-57348380D01*
X95313904Y-56348380D02*
X95980571Y-56348380D01*
X95552000Y-57348380D01*
X96361523Y-57253142D02*
X96409142Y-57300761D01*
X96361523Y-57348380D01*
X96313904Y-57300761D01*
X96361523Y-57253142D01*
X96361523Y-57348380D01*
X96885333Y-57348380D02*
X97075809Y-57348380D01*
X97171047Y-57300761D01*
X97218666Y-57253142D01*
X97313904Y-57110285D01*
X97361523Y-56919809D01*
X97361523Y-56538857D01*
X97313904Y-56443619D01*
X97266285Y-56396000D01*
X97171047Y-56348380D01*
X96980571Y-56348380D01*
X96885333Y-56396000D01*
X96837714Y-56443619D01*
X96790095Y-56538857D01*
X96790095Y-56776952D01*
X96837714Y-56872190D01*
X96885333Y-56919809D01*
X96980571Y-56967428D01*
X97171047Y-56967428D01*
X97266285Y-56919809D01*
X97313904Y-56872190D01*
X97361523Y-56776952D01*
X98218666Y-56681714D02*
X98218666Y-57348380D01*
X97980571Y-56300761D02*
X97742476Y-57015047D01*
X98361523Y-57015047D01*
X98932952Y-56348380D02*
X99028190Y-56348380D01*
X99123428Y-56396000D01*
X99171047Y-56443619D01*
X99218666Y-56538857D01*
X99266285Y-56729333D01*
X99266285Y-56967428D01*
X99218666Y-57157904D01*
X99171047Y-57253142D01*
X99123428Y-57300761D01*
X99028190Y-57348380D01*
X98932952Y-57348380D01*
X98837714Y-57300761D01*
X98790095Y-57253142D01*
X98742476Y-57157904D01*
X98694857Y-56967428D01*
X98694857Y-56729333D01*
X98742476Y-56538857D01*
X98790095Y-56443619D01*
X98837714Y-56396000D01*
X98932952Y-56348380D01*
X100456761Y-57348380D02*
X100456761Y-56681714D01*
X100456761Y-56776952D02*
X100504380Y-56729333D01*
X100599619Y-56681714D01*
X100742476Y-56681714D01*
X100837714Y-56729333D01*
X100885333Y-56824571D01*
X100885333Y-57348380D01*
X100885333Y-56824571D02*
X100932952Y-56729333D01*
X101028190Y-56681714D01*
X101171047Y-56681714D01*
X101266285Y-56729333D01*
X101313904Y-56824571D01*
X101313904Y-57348380D01*
X101790095Y-57348380D02*
X101790095Y-56681714D01*
X101790095Y-56776952D02*
X101837714Y-56729333D01*
X101932952Y-56681714D01*
X102075809Y-56681714D01*
X102171047Y-56729333D01*
X102218666Y-56824571D01*
X102218666Y-57348380D01*
X102218666Y-56824571D02*
X102266285Y-56729333D01*
X102361523Y-56681714D01*
X102504380Y-56681714D01*
X102599619Y-56729333D01*
X102647238Y-56824571D01*
X102647238Y-57348380D01*
D12*
X84582000Y-58166000D02*
X112522000Y-58166000D01*
X84582000Y-64262000D02*
X84582000Y-57579579D01*
X112522000Y-64262000D02*
X112522000Y-57579579D01*
X112522000Y-58166000D02*
X111395496Y-58752421D01*
X112522000Y-58166000D02*
X111395496Y-57579579D01*
X84582000Y-58166000D02*
X85708504Y-58752421D01*
X84582000Y-58166000D02*
X85708504Y-57579579D01*
D10*
X94257904Y-82276190D02*
X94567428Y-82276190D01*
X94400761Y-82466666D01*
X94472190Y-82466666D01*
X94519809Y-82490476D01*
X94543619Y-82514285D01*
X94567428Y-82561904D01*
X94567428Y-82680952D01*
X94543619Y-82728571D01*
X94519809Y-82752380D01*
X94472190Y-82776190D01*
X94329333Y-82776190D01*
X94281714Y-82752380D01*
X94257904Y-82728571D01*
X94781714Y-82728571D02*
X94805523Y-82752380D01*
X94781714Y-82776190D01*
X94757904Y-82752380D01*
X94781714Y-82728571D01*
X94781714Y-82776190D01*
X94972190Y-82276190D02*
X95281714Y-82276190D01*
X95115047Y-82466666D01*
X95186476Y-82466666D01*
X95234095Y-82490476D01*
X95257904Y-82514285D01*
X95281714Y-82561904D01*
X95281714Y-82680952D01*
X95257904Y-82728571D01*
X95234095Y-82752380D01*
X95186476Y-82776190D01*
X95043619Y-82776190D01*
X94996000Y-82752380D01*
X94972190Y-82728571D01*
X95424571Y-82276190D02*
X95591238Y-82776190D01*
X95757904Y-82276190D01*
X92734095Y-75188000D02*
X92686476Y-75164190D01*
X92615047Y-75164190D01*
X92543619Y-75188000D01*
X92496000Y-75235619D01*
X92472190Y-75283238D01*
X92448380Y-75378476D01*
X92448380Y-75449904D01*
X92472190Y-75545142D01*
X92496000Y-75592761D01*
X92543619Y-75640380D01*
X92615047Y-75664190D01*
X92662666Y-75664190D01*
X92734095Y-75640380D01*
X92757904Y-75616571D01*
X92757904Y-75449904D01*
X92662666Y-75449904D01*
X92972190Y-75664190D02*
X92972190Y-75164190D01*
X93162666Y-75164190D01*
X93210285Y-75188000D01*
X93234095Y-75211809D01*
X93257904Y-75259428D01*
X93257904Y-75330857D01*
X93234095Y-75378476D01*
X93210285Y-75402285D01*
X93162666Y-75426095D01*
X92972190Y-75426095D01*
X93472190Y-75664190D02*
X93472190Y-75164190D01*
X93805523Y-75164190D02*
X93900761Y-75164190D01*
X93948380Y-75188000D01*
X93996000Y-75235619D01*
X94019809Y-75330857D01*
X94019809Y-75497523D01*
X93996000Y-75592761D01*
X93948380Y-75640380D01*
X93900761Y-75664190D01*
X93805523Y-75664190D01*
X93757904Y-75640380D01*
X93710285Y-75592761D01*
X93686476Y-75497523D01*
X93686476Y-75330857D01*
X93710285Y-75235619D01*
X93757904Y-75188000D01*
X93805523Y-75164190D01*
X94496000Y-75664190D02*
X94210285Y-75664190D01*
X94353142Y-75664190D02*
X94353142Y-75164190D01*
X94305523Y-75235619D01*
X94257904Y-75283238D01*
X94210285Y-75307047D01*
X94924571Y-75330857D02*
X94924571Y-75664190D01*
X94805523Y-75140380D02*
X94686476Y-75497523D01*
X94996000Y-75497523D01*
X95543619Y-75140380D02*
X95115047Y-75783238D01*
X95710285Y-75664190D02*
X95710285Y-75164190D01*
X95900761Y-75164190D01*
X95948380Y-75188000D01*
X95972190Y-75211809D01*
X95996000Y-75259428D01*
X95996000Y-75330857D01*
X95972190Y-75378476D01*
X95948380Y-75402285D01*
X95900761Y-75426095D01*
X95710285Y-75426095D01*
X96210285Y-75664190D02*
X96210285Y-75330857D01*
X96210285Y-75164190D02*
X96186476Y-75188000D01*
X96210285Y-75211809D01*
X96234095Y-75188000D01*
X96210285Y-75164190D01*
X96210285Y-75211809D01*
X96448380Y-75330857D02*
X96448380Y-75664190D01*
X96448380Y-75378476D02*
X96472190Y-75354666D01*
X96519809Y-75330857D01*
X96591238Y-75330857D01*
X96638857Y-75354666D01*
X96662666Y-75402285D01*
X96662666Y-75664190D01*
X97353142Y-75378476D02*
X97305523Y-75354666D01*
X97281714Y-75330857D01*
X97257904Y-75283238D01*
X97257904Y-75259428D01*
X97281714Y-75211809D01*
X97305523Y-75188000D01*
X97353142Y-75164190D01*
X97448380Y-75164190D01*
X97496000Y-75188000D01*
X97519809Y-75211809D01*
X97543619Y-75259428D01*
X97543619Y-75283238D01*
X97519809Y-75330857D01*
X97496000Y-75354666D01*
X97448380Y-75378476D01*
X97353142Y-75378476D01*
X97305523Y-75402285D01*
X97281714Y-75426095D01*
X97257904Y-75473714D01*
X97257904Y-75568952D01*
X97281714Y-75616571D01*
X97305523Y-75640380D01*
X97353142Y-75664190D01*
X97448380Y-75664190D01*
X97496000Y-75640380D01*
X97519809Y-75616571D01*
X97543619Y-75568952D01*
X97543619Y-75473714D01*
X97519809Y-75426095D01*
X97496000Y-75402285D01*
X97448380Y-75378476D01*
D11*
X109477285Y-78030428D02*
X109848714Y-78030428D01*
X109648714Y-78259000D01*
X109734428Y-78259000D01*
X109791571Y-78287571D01*
X109820142Y-78316142D01*
X109848714Y-78373285D01*
X109848714Y-78516142D01*
X109820142Y-78573285D01*
X109791571Y-78601857D01*
X109734428Y-78630428D01*
X109563000Y-78630428D01*
X109505857Y-78601857D01*
X109477285Y-78573285D01*
X110105857Y-78573285D02*
X110134428Y-78601857D01*
X110105857Y-78630428D01*
X110077285Y-78601857D01*
X110105857Y-78573285D01*
X110105857Y-78630428D01*
X110334428Y-78030428D02*
X110705857Y-78030428D01*
X110505857Y-78259000D01*
X110591571Y-78259000D01*
X110648714Y-78287571D01*
X110677285Y-78316142D01*
X110705857Y-78373285D01*
X110705857Y-78516142D01*
X110677285Y-78573285D01*
X110648714Y-78601857D01*
X110591571Y-78630428D01*
X110420142Y-78630428D01*
X110363000Y-78601857D01*
X110334428Y-78573285D01*
X110877285Y-78030428D02*
X111077285Y-78630428D01*
X111277285Y-78030428D01*
X106796000Y-78630428D02*
X106796000Y-78030428D01*
X106938857Y-78030428D01*
X107024571Y-78059000D01*
X107081714Y-78116142D01*
X107110285Y-78173285D01*
X107138857Y-78287571D01*
X107138857Y-78373285D01*
X107110285Y-78487571D01*
X107081714Y-78544714D01*
X107024571Y-78601857D01*
X106938857Y-78630428D01*
X106796000Y-78630428D01*
X107367428Y-78459000D02*
X107653142Y-78459000D01*
X107310285Y-78630428D02*
X107510285Y-78030428D01*
X107710285Y-78630428D01*
X107824571Y-78030428D02*
X108167428Y-78030428D01*
X107996000Y-78630428D02*
X107996000Y-78030428D01*
X108338857Y-78459000D02*
X108624571Y-78459000D01*
X108281714Y-78630428D02*
X108481714Y-78030428D01*
X108681714Y-78630428D01*
X102158857Y-78059000D02*
X102101714Y-78030428D01*
X102016000Y-78030428D01*
X101930285Y-78059000D01*
X101873142Y-78116142D01*
X101844571Y-78173285D01*
X101816000Y-78287571D01*
X101816000Y-78373285D01*
X101844571Y-78487571D01*
X101873142Y-78544714D01*
X101930285Y-78601857D01*
X102016000Y-78630428D01*
X102073142Y-78630428D01*
X102158857Y-78601857D01*
X102187428Y-78573285D01*
X102187428Y-78373285D01*
X102073142Y-78373285D01*
X102444571Y-78630428D02*
X102444571Y-78030428D01*
X102787428Y-78630428D01*
X102787428Y-78030428D01*
X103073142Y-78630428D02*
X103073142Y-78030428D01*
X103216000Y-78030428D01*
X103301714Y-78059000D01*
X103358857Y-78116142D01*
X103387428Y-78173285D01*
X103416000Y-78287571D01*
X103416000Y-78373285D01*
X103387428Y-78487571D01*
X103358857Y-78544714D01*
X103301714Y-78601857D01*
X103216000Y-78630428D01*
X103073142Y-78630428D01*
D13*
X108612761Y-76378571D02*
X108588952Y-76402380D01*
X108517523Y-76426190D01*
X108469904Y-76426190D01*
X108398476Y-76402380D01*
X108350857Y-76354761D01*
X108327047Y-76307142D01*
X108303238Y-76211904D01*
X108303238Y-76140476D01*
X108327047Y-76045238D01*
X108350857Y-75997619D01*
X108398476Y-75950000D01*
X108469904Y-75926190D01*
X108517523Y-75926190D01*
X108588952Y-75950000D01*
X108612761Y-75973809D01*
X108612761Y-72949571D02*
X108588952Y-72973380D01*
X108517523Y-72997190D01*
X108469904Y-72997190D01*
X108398476Y-72973380D01*
X108350857Y-72925761D01*
X108327047Y-72878142D01*
X108303238Y-72782904D01*
X108303238Y-72711476D01*
X108327047Y-72616238D01*
X108350857Y-72568619D01*
X108398476Y-72521000D01*
X108469904Y-72497190D01*
X108517523Y-72497190D01*
X108588952Y-72521000D01*
X108612761Y-72544809D01*
D12*
X111693000Y-69910000D02*
X111693000Y-64710000D01*
X93853000Y-69910000D02*
X111693000Y-69910000D01*
X91253000Y-64710000D02*
X111693000Y-64710000D01*
X93853000Y-69910000D02*
X93853000Y-67310000D01*
X93853000Y-67310000D02*
X91253000Y-67310000D01*
X91253000Y-67310000D02*
X91253000Y-64710000D01*
X92583000Y-69910000D02*
X91253000Y-69910000D01*
X91253000Y-69910000D02*
X91253000Y-68580000D01*
X111490000Y-75240000D02*
X108805000Y-75240000D01*
X108805000Y-75240000D02*
X108805000Y-77160000D01*
X108805000Y-77160000D02*
X111490000Y-77160000D01*
X108805000Y-73813000D02*
X111490000Y-73813000D01*
X108805000Y-71893000D02*
X108805000Y-73813000D01*
X111490000Y-71893000D02*
X108805000Y-71893000D01*
X98039422Y-72188000D02*
X98556578Y-72188000D01*
X98039422Y-73608000D02*
X98556578Y-73608000D01*
X102103422Y-73608000D02*
X102620578Y-73608000D01*
X102103422Y-72188000D02*
X102620578Y-72188000D01*
X106167422Y-75535000D02*
X106684578Y-75535000D01*
X106167422Y-76955000D02*
X106684578Y-76955000D01*
X106167422Y-73608000D02*
X106684578Y-73608000D01*
X106167422Y-72188000D02*
X106684578Y-72188000D01*
D14*
X92859199Y-82042000D02*
X97177199Y-82042000D01*
X97177199Y-75946000D02*
X92859199Y-75946000D01*
X91970199Y-79989680D02*
X91970199Y-77978000D01*
X98066199Y-80020160D02*
X98066199Y-77978000D01*
X96796199Y-78994000D02*
G75*
G03X96796199Y-78994000I-1778000J0D01*
G01*
D12*
X101420000Y-78988600D02*
X101420000Y-81648600D01*
X109100000Y-78988600D02*
X101420000Y-78988600D01*
X109100000Y-81648600D02*
X101420000Y-81648600D01*
X109100000Y-78988600D02*
X109100000Y-81648600D01*
X110370000Y-78988600D02*
X111700000Y-78988600D01*
X111700000Y-78988600D02*
X111700000Y-80318600D01*
D11*
X89924428Y-67510000D02*
X90353000Y-67510000D01*
X90438714Y-67538571D01*
X90495857Y-67595714D01*
X90524428Y-67681428D01*
X90524428Y-67738571D01*
X90524428Y-66910000D02*
X90524428Y-67252857D01*
X90524428Y-67081428D02*
X89924428Y-67081428D01*
X90010142Y-67138571D01*
X90067285Y-67195714D01*
X90095857Y-67252857D01*
X110047142Y-74821428D02*
X110047142Y-74221428D01*
X110190000Y-74221428D01*
X110275714Y-74250000D01*
X110332857Y-74307142D01*
X110361428Y-74364285D01*
X110390000Y-74478571D01*
X110390000Y-74564285D01*
X110361428Y-74678571D01*
X110332857Y-74735714D01*
X110275714Y-74792857D01*
X110190000Y-74821428D01*
X110047142Y-74821428D01*
X110961428Y-74821428D02*
X110618571Y-74821428D01*
X110790000Y-74821428D02*
X110790000Y-74221428D01*
X110732857Y-74307142D01*
X110675714Y-74364285D01*
X110618571Y-74392857D01*
X108904142Y-71470678D02*
X108904142Y-70870678D01*
X109047000Y-70870678D01*
X109132714Y-70899250D01*
X109189857Y-70956392D01*
X109218428Y-71013535D01*
X109247000Y-71127821D01*
X109247000Y-71213535D01*
X109218428Y-71327821D01*
X109189857Y-71384964D01*
X109132714Y-71442107D01*
X109047000Y-71470678D01*
X108904142Y-71470678D01*
X109475571Y-70927821D02*
X109504142Y-70899250D01*
X109561285Y-70870678D01*
X109704142Y-70870678D01*
X109761285Y-70899250D01*
X109789857Y-70927821D01*
X109818428Y-70984964D01*
X109818428Y-71042107D01*
X109789857Y-71127821D01*
X109447000Y-71470678D01*
X109818428Y-71470678D01*
X98198000Y-71470678D02*
X97998000Y-71184964D01*
X97855142Y-71470678D02*
X97855142Y-70870678D01*
X98083714Y-70870678D01*
X98140857Y-70899250D01*
X98169428Y-70927821D01*
X98198000Y-70984964D01*
X98198000Y-71070678D01*
X98169428Y-71127821D01*
X98140857Y-71156392D01*
X98083714Y-71184964D01*
X97855142Y-71184964D01*
X98769428Y-71470678D02*
X98426571Y-71470678D01*
X98598000Y-71470678D02*
X98598000Y-70870678D01*
X98540857Y-70956392D01*
X98483714Y-71013535D01*
X98426571Y-71042107D01*
X97598000Y-74693428D02*
X97255142Y-74693428D01*
X97426571Y-74693428D02*
X97426571Y-74093428D01*
X97369428Y-74179142D01*
X97312285Y-74236285D01*
X97255142Y-74264857D01*
X97969428Y-74093428D02*
X98026571Y-74093428D01*
X98083714Y-74122000D01*
X98112285Y-74150571D01*
X98140857Y-74207714D01*
X98169428Y-74322000D01*
X98169428Y-74464857D01*
X98140857Y-74579142D01*
X98112285Y-74636285D01*
X98083714Y-74664857D01*
X98026571Y-74693428D01*
X97969428Y-74693428D01*
X97912285Y-74664857D01*
X97883714Y-74636285D01*
X97855142Y-74579142D01*
X97826571Y-74464857D01*
X97826571Y-74322000D01*
X97855142Y-74207714D01*
X97883714Y-74150571D01*
X97912285Y-74122000D01*
X97969428Y-74093428D01*
X98426571Y-74693428D02*
X98426571Y-74093428D01*
X98483714Y-74464857D02*
X98655142Y-74693428D01*
X98655142Y-74293428D02*
X98426571Y-74522000D01*
X98883714Y-74693428D02*
X99026571Y-74693428D01*
X99026571Y-74579142D01*
X98969428Y-74550571D01*
X98912285Y-74493428D01*
X98883714Y-74407714D01*
X98883714Y-74264857D01*
X98912285Y-74179142D01*
X98969428Y-74122000D01*
X99055142Y-74093428D01*
X99169428Y-74093428D01*
X99255142Y-74122000D01*
X99312285Y-74179142D01*
X99340857Y-74264857D01*
X99340857Y-74407714D01*
X99312285Y-74493428D01*
X99255142Y-74550571D01*
X99198000Y-74579142D01*
X99198000Y-74693428D01*
X99340857Y-74693428D01*
X102262000Y-71470678D02*
X102062000Y-71184964D01*
X101919142Y-71470678D02*
X101919142Y-70870678D01*
X102147714Y-70870678D01*
X102204857Y-70899250D01*
X102233428Y-70927821D01*
X102262000Y-70984964D01*
X102262000Y-71070678D01*
X102233428Y-71127821D01*
X102204857Y-71156392D01*
X102147714Y-71184964D01*
X101919142Y-71184964D01*
X102490571Y-70927821D02*
X102519142Y-70899250D01*
X102576285Y-70870678D01*
X102719142Y-70870678D01*
X102776285Y-70899250D01*
X102804857Y-70927821D01*
X102833428Y-70984964D01*
X102833428Y-71042107D01*
X102804857Y-71127821D01*
X102462000Y-71470678D01*
X102833428Y-71470678D01*
X101789000Y-74693428D02*
X101446142Y-74693428D01*
X101617571Y-74693428D02*
X101617571Y-74093428D01*
X101560428Y-74179142D01*
X101503285Y-74236285D01*
X101446142Y-74264857D01*
X102160428Y-74093428D02*
X102217571Y-74093428D01*
X102274714Y-74122000D01*
X102303285Y-74150571D01*
X102331857Y-74207714D01*
X102360428Y-74322000D01*
X102360428Y-74464857D01*
X102331857Y-74579142D01*
X102303285Y-74636285D01*
X102274714Y-74664857D01*
X102217571Y-74693428D01*
X102160428Y-74693428D01*
X102103285Y-74664857D01*
X102074714Y-74636285D01*
X102046142Y-74579142D01*
X102017571Y-74464857D01*
X102017571Y-74322000D01*
X102046142Y-74207714D01*
X102074714Y-74150571D01*
X102103285Y-74122000D01*
X102160428Y-74093428D01*
X102617571Y-74693428D02*
X102617571Y-74093428D01*
X102674714Y-74464857D02*
X102846142Y-74693428D01*
X102846142Y-74293428D02*
X102617571Y-74522000D01*
X103074714Y-74693428D02*
X103217571Y-74693428D01*
X103217571Y-74579142D01*
X103160428Y-74550571D01*
X103103285Y-74493428D01*
X103074714Y-74407714D01*
X103074714Y-74264857D01*
X103103285Y-74179142D01*
X103160428Y-74122000D01*
X103246142Y-74093428D01*
X103360428Y-74093428D01*
X103446142Y-74122000D01*
X103503285Y-74179142D01*
X103531857Y-74264857D01*
X103531857Y-74407714D01*
X103503285Y-74493428D01*
X103446142Y-74550571D01*
X103389000Y-74579142D01*
X103389000Y-74693428D01*
X103531857Y-74693428D01*
X103938428Y-77314285D02*
X103938428Y-76942857D01*
X104167000Y-77142857D01*
X104167000Y-77057142D01*
X104195571Y-77000000D01*
X104224142Y-76971428D01*
X104281285Y-76942857D01*
X104424142Y-76942857D01*
X104481285Y-76971428D01*
X104509857Y-77000000D01*
X104538428Y-77057142D01*
X104538428Y-77228571D01*
X104509857Y-77285714D01*
X104481285Y-77314285D01*
X103938428Y-76742857D02*
X103938428Y-76371428D01*
X104167000Y-76571428D01*
X104167000Y-76485714D01*
X104195571Y-76428571D01*
X104224142Y-76400000D01*
X104281285Y-76371428D01*
X104424142Y-76371428D01*
X104481285Y-76400000D01*
X104509857Y-76428571D01*
X104538428Y-76485714D01*
X104538428Y-76657142D01*
X104509857Y-76714285D01*
X104481285Y-76742857D01*
X103938428Y-76000000D02*
X103938428Y-75942857D01*
X103967000Y-75885714D01*
X103995571Y-75857142D01*
X104052714Y-75828571D01*
X104167000Y-75800000D01*
X104309857Y-75800000D01*
X104424142Y-75828571D01*
X104481285Y-75857142D01*
X104509857Y-75885714D01*
X104538428Y-75942857D01*
X104538428Y-76000000D01*
X104509857Y-76057142D01*
X104481285Y-76085714D01*
X104424142Y-76114285D01*
X104309857Y-76142857D01*
X104167000Y-76142857D01*
X104052714Y-76114285D01*
X103995571Y-76085714D01*
X103967000Y-76057142D01*
X103938428Y-76000000D01*
X104538428Y-75571428D02*
X104538428Y-75428571D01*
X104424142Y-75428571D01*
X104395571Y-75485714D01*
X104338428Y-75542857D01*
X104252714Y-75571428D01*
X104109857Y-75571428D01*
X104024142Y-75542857D01*
X103967000Y-75485714D01*
X103938428Y-75400000D01*
X103938428Y-75285714D01*
X103967000Y-75200000D01*
X104024142Y-75142857D01*
X104109857Y-75114285D01*
X104252714Y-75114285D01*
X104338428Y-75142857D01*
X104395571Y-75200000D01*
X104424142Y-75257142D01*
X104538428Y-75257142D01*
X104538428Y-75114285D01*
X106326000Y-71470678D02*
X106126000Y-71184964D01*
X105983142Y-71470678D02*
X105983142Y-70870678D01*
X106211714Y-70870678D01*
X106268857Y-70899250D01*
X106297428Y-70927821D01*
X106326000Y-70984964D01*
X106326000Y-71070678D01*
X106297428Y-71127821D01*
X106268857Y-71156392D01*
X106211714Y-71184964D01*
X105983142Y-71184964D01*
X106840285Y-71070678D02*
X106840285Y-71470678D01*
X106697428Y-70842107D02*
X106554571Y-71270678D01*
X106926000Y-71270678D01*
X105311714Y-74093428D02*
X105683142Y-74093428D01*
X105483142Y-74322000D01*
X105568857Y-74322000D01*
X105626000Y-74350571D01*
X105654571Y-74379142D01*
X105683142Y-74436285D01*
X105683142Y-74579142D01*
X105654571Y-74636285D01*
X105626000Y-74664857D01*
X105568857Y-74693428D01*
X105397428Y-74693428D01*
X105340285Y-74664857D01*
X105311714Y-74636285D01*
X105883142Y-74093428D02*
X106254571Y-74093428D01*
X106054571Y-74322000D01*
X106140285Y-74322000D01*
X106197428Y-74350571D01*
X106226000Y-74379142D01*
X106254571Y-74436285D01*
X106254571Y-74579142D01*
X106226000Y-74636285D01*
X106197428Y-74664857D01*
X106140285Y-74693428D01*
X105968857Y-74693428D01*
X105911714Y-74664857D01*
X105883142Y-74636285D01*
X106626000Y-74093428D02*
X106683142Y-74093428D01*
X106740285Y-74122000D01*
X106768857Y-74150571D01*
X106797428Y-74207714D01*
X106826000Y-74322000D01*
X106826000Y-74464857D01*
X106797428Y-74579142D01*
X106768857Y-74636285D01*
X106740285Y-74664857D01*
X106683142Y-74693428D01*
X106626000Y-74693428D01*
X106568857Y-74664857D01*
X106540285Y-74636285D01*
X106511714Y-74579142D01*
X106483142Y-74464857D01*
X106483142Y-74322000D01*
X106511714Y-74207714D01*
X106540285Y-74150571D01*
X106568857Y-74122000D01*
X106626000Y-74093428D01*
X107054571Y-74693428D02*
X107197428Y-74693428D01*
X107197428Y-74579142D01*
X107140285Y-74550571D01*
X107083142Y-74493428D01*
X107054571Y-74407714D01*
X107054571Y-74264857D01*
X107083142Y-74179142D01*
X107140285Y-74122000D01*
X107226000Y-74093428D01*
X107340285Y-74093428D01*
X107426000Y-74122000D01*
X107483142Y-74179142D01*
X107511714Y-74264857D01*
X107511714Y-74407714D01*
X107483142Y-74493428D01*
X107426000Y-74550571D01*
X107368857Y-74579142D01*
X107368857Y-74693428D01*
X107511714Y-74693428D01*
D13*
X91555857Y-79540000D02*
X91584428Y-79454285D01*
X91584428Y-79311428D01*
X91555857Y-79254285D01*
X91527285Y-79225714D01*
X91470142Y-79197142D01*
X91413000Y-79197142D01*
X91355857Y-79225714D01*
X91327285Y-79254285D01*
X91298714Y-79311428D01*
X91270142Y-79425714D01*
X91241571Y-79482857D01*
X91213000Y-79511428D01*
X91155857Y-79540000D01*
X91098714Y-79540000D01*
X91041571Y-79511428D01*
X91013000Y-79482857D01*
X90984428Y-79425714D01*
X90984428Y-79282857D01*
X91013000Y-79197142D01*
X90984428Y-78997142D02*
X91584428Y-78854285D01*
X91155857Y-78740000D01*
X91584428Y-78625714D01*
X90984428Y-78482857D01*
X91584428Y-77940000D02*
X91584428Y-78282857D01*
X91584428Y-78111428D02*
X90984428Y-78111428D01*
X91070142Y-78168571D01*
X91127285Y-78225714D01*
X91155857Y-78282857D01*
D10*
X111867190Y-80699552D02*
X112271952Y-80699552D01*
X112319571Y-80675742D01*
X112343380Y-80651933D01*
X112367190Y-80604314D01*
X112367190Y-80509076D01*
X112343380Y-80461457D01*
X112319571Y-80437647D01*
X112271952Y-80413838D01*
X111867190Y-80413838D01*
X112367190Y-79913838D02*
X112367190Y-80199552D01*
X112367190Y-80056695D02*
X111867190Y-80056695D01*
X111938619Y-80104314D01*
X111986238Y-80151933D01*
X112010047Y-80199552D01*
D11*
X100728428Y-81535428D02*
X100128428Y-81535428D01*
X100128428Y-81392571D01*
X100157000Y-81306857D01*
X100214142Y-81249714D01*
X100271285Y-81221142D01*
X100385571Y-81192571D01*
X100471285Y-81192571D01*
X100585571Y-81221142D01*
X100642714Y-81249714D01*
X100699857Y-81306857D01*
X100728428Y-81392571D01*
X100728428Y-81535428D01*
X100728428Y-80935428D02*
X100128428Y-80935428D01*
X100414142Y-80935428D02*
X100414142Y-80592571D01*
X100728428Y-80592571D02*
X100128428Y-80592571D01*
X100128428Y-80392571D02*
X100128428Y-80049714D01*
X100728428Y-80221142D02*
X100128428Y-80221142D01*
X100185571Y-79878285D02*
X100157000Y-79849714D01*
X100128428Y-79792571D01*
X100128428Y-79649714D01*
X100157000Y-79592571D01*
X100185571Y-79564000D01*
X100242714Y-79535428D01*
X100299857Y-79535428D01*
X100385571Y-79564000D01*
X100728428Y-79906857D01*
X100728428Y-79535428D01*
X100185571Y-79306857D02*
X100157000Y-79278285D01*
X100128428Y-79221142D01*
X100128428Y-79078285D01*
X100157000Y-79021142D01*
X100185571Y-78992571D01*
X100242714Y-78964000D01*
X100299857Y-78964000D01*
X100385571Y-78992571D01*
X100728428Y-79335428D01*
X100728428Y-78964000D01*
M02*
