M48
; DRILL file {KiCad (5.1.2)-1} date 5/14/2019 4:37:45 PM
; FORMAT={2:4/ absolute / inch / suppress leading zeros}
; #@! TF.CreationDate,2019-05-14T16:37:45-04:00
; #@! TF.GenerationSoftware,Kicad,Pcbnew,(5.1.2)-1
; #@! TF.FileFunction,Plated,1,2,PTH
FMAT,2
INCH,TZ
T1C0.0236
T2C0.0394
T3C0.0400
%
G90
G05
T1
X39200Y-29600
X42700Y-29300
T2
X40453Y-31621
X41453Y-31621
X42453Y-31621
X43453Y-31621
X36450Y-26000
X36450Y-27000
X37450Y-26000
X37450Y-27000
X38450Y-26000
X38450Y-27000
X39450Y-26000
X39450Y-27000
X40450Y-26000
X40450Y-27000
X41450Y-26000
X41450Y-27000
X42450Y-26000
X42450Y-27000
X43450Y-26000
X43450Y-27000
T3
X36129Y-30210
X36129Y-31990
X38689Y-30210
X38689Y-31990
T0
M30
