G04 #@! TF.GenerationSoftware,KiCad,Pcbnew,(5.1.2)-1*
G04 #@! TF.CreationDate,2019-05-14T16:37:42-04:00*
G04 #@! TF.ProjectId,RaspberryPiHat,52617370-6265-4727-9279-50694861742e,1*
G04 #@! TF.SameCoordinates,Original*
G04 #@! TF.FileFunction,Soldermask,Top*
G04 #@! TF.FilePolarity,Negative*
%FSLAX46Y46*%
G04 Gerber Fmt 4.6, Leading zero omitted, Abs format (unit mm)*
G04 Created by KiCad (PCBNEW (5.1.2)-1) date 2019-05-14 16:37:42*
%MOMM*%
%LPD*%
G04 APERTURE LIST*
%ADD10C,0.100000*%
G04 APERTURE END LIST*
D10*
G36*
X98349146Y-80445521D02*
G01*
X98428775Y-80453364D01*
X98566779Y-80495227D01*
X98582029Y-80499853D01*
X98723262Y-80575344D01*
X98847058Y-80676941D01*
X98948655Y-80800737D01*
X99024146Y-80941970D01*
X99024147Y-80941973D01*
X99070635Y-81095224D01*
X99086332Y-81254600D01*
X99070635Y-81413976D01*
X99024147Y-81567227D01*
X99024146Y-81567230D01*
X98948655Y-81708463D01*
X98847058Y-81832259D01*
X98723262Y-81933856D01*
X98582029Y-82009347D01*
X98582026Y-82009348D01*
X98428775Y-82055836D01*
X98349146Y-82063679D01*
X98309333Y-82067600D01*
X98229465Y-82067600D01*
X98189652Y-82063679D01*
X98110023Y-82055836D01*
X97956772Y-82009348D01*
X97956769Y-82009347D01*
X97815536Y-81933856D01*
X97691740Y-81832259D01*
X97590143Y-81708463D01*
X97514652Y-81567230D01*
X97514651Y-81567227D01*
X97468163Y-81413976D01*
X97452466Y-81254600D01*
X97468163Y-81095224D01*
X97514651Y-80941973D01*
X97514652Y-80941970D01*
X97590143Y-80800737D01*
X97691740Y-80676941D01*
X97815536Y-80575344D01*
X97956769Y-80499853D01*
X97972019Y-80495227D01*
X98110023Y-80453364D01*
X98189652Y-80445521D01*
X98229465Y-80441600D01*
X98309333Y-80441600D01*
X98349146Y-80445521D01*
X98349146Y-80445521D01*
G37*
G36*
X91846746Y-80445521D02*
G01*
X91926375Y-80453364D01*
X92064379Y-80495227D01*
X92079629Y-80499853D01*
X92220862Y-80575344D01*
X92344658Y-80676941D01*
X92446255Y-80800737D01*
X92521746Y-80941970D01*
X92521747Y-80941973D01*
X92568235Y-81095224D01*
X92583932Y-81254600D01*
X92568235Y-81413976D01*
X92521747Y-81567227D01*
X92521746Y-81567230D01*
X92446255Y-81708463D01*
X92344658Y-81832259D01*
X92220862Y-81933856D01*
X92079629Y-82009347D01*
X92079626Y-82009348D01*
X91926375Y-82055836D01*
X91846746Y-82063679D01*
X91806933Y-82067600D01*
X91727065Y-82067600D01*
X91687252Y-82063679D01*
X91607623Y-82055836D01*
X91454372Y-82009348D01*
X91454369Y-82009347D01*
X91313136Y-81933856D01*
X91189340Y-81832259D01*
X91087743Y-81708463D01*
X91012252Y-81567230D01*
X91012251Y-81567227D01*
X90965763Y-81413976D01*
X90950066Y-81254600D01*
X90965763Y-81095224D01*
X91012251Y-80941973D01*
X91012252Y-80941970D01*
X91087743Y-80800737D01*
X91189340Y-80676941D01*
X91313136Y-80575344D01*
X91454369Y-80499853D01*
X91469619Y-80495227D01*
X91607623Y-80453364D01*
X91687252Y-80445521D01*
X91727065Y-80441600D01*
X91806933Y-80441600D01*
X91846746Y-80445521D01*
X91846746Y-80445521D01*
G37*
G36*
X105400443Y-79424119D02*
G01*
X105466627Y-79430637D01*
X105636466Y-79482157D01*
X105792991Y-79565822D01*
X105828729Y-79595152D01*
X105930186Y-79678414D01*
X106013448Y-79779871D01*
X106042778Y-79815609D01*
X106126443Y-79972134D01*
X106177963Y-80141973D01*
X106195359Y-80318600D01*
X106177963Y-80495227D01*
X106126443Y-80665066D01*
X106042778Y-80821591D01*
X106013448Y-80857329D01*
X105930186Y-80958786D01*
X105828729Y-81042048D01*
X105792991Y-81071378D01*
X105636466Y-81155043D01*
X105466627Y-81206563D01*
X105400442Y-81213082D01*
X105334260Y-81219600D01*
X105245740Y-81219600D01*
X105179558Y-81213082D01*
X105113373Y-81206563D01*
X104943534Y-81155043D01*
X104787009Y-81071378D01*
X104751271Y-81042048D01*
X104649814Y-80958786D01*
X104566552Y-80857329D01*
X104537222Y-80821591D01*
X104453557Y-80665066D01*
X104402037Y-80495227D01*
X104384641Y-80318600D01*
X104402037Y-80141973D01*
X104453557Y-79972134D01*
X104537222Y-79815609D01*
X104566552Y-79779871D01*
X104649814Y-79678414D01*
X104751271Y-79595152D01*
X104787009Y-79565822D01*
X104943534Y-79482157D01*
X105113373Y-79430637D01*
X105179557Y-79424119D01*
X105245740Y-79417600D01*
X105334260Y-79417600D01*
X105400443Y-79424119D01*
X105400443Y-79424119D01*
G37*
G36*
X107940443Y-79424119D02*
G01*
X108006627Y-79430637D01*
X108176466Y-79482157D01*
X108332991Y-79565822D01*
X108368729Y-79595152D01*
X108470186Y-79678414D01*
X108553448Y-79779871D01*
X108582778Y-79815609D01*
X108666443Y-79972134D01*
X108717963Y-80141973D01*
X108735359Y-80318600D01*
X108717963Y-80495227D01*
X108666443Y-80665066D01*
X108582778Y-80821591D01*
X108553448Y-80857329D01*
X108470186Y-80958786D01*
X108368729Y-81042048D01*
X108332991Y-81071378D01*
X108176466Y-81155043D01*
X108006627Y-81206563D01*
X107940442Y-81213082D01*
X107874260Y-81219600D01*
X107785740Y-81219600D01*
X107719558Y-81213082D01*
X107653373Y-81206563D01*
X107483534Y-81155043D01*
X107327009Y-81071378D01*
X107291271Y-81042048D01*
X107189814Y-80958786D01*
X107106552Y-80857329D01*
X107077222Y-80821591D01*
X106993557Y-80665066D01*
X106942037Y-80495227D01*
X106924641Y-80318600D01*
X106942037Y-80141973D01*
X106993557Y-79972134D01*
X107077222Y-79815609D01*
X107106552Y-79779871D01*
X107189814Y-79678414D01*
X107291271Y-79595152D01*
X107327009Y-79565822D01*
X107483534Y-79482157D01*
X107653373Y-79430637D01*
X107719557Y-79424119D01*
X107785740Y-79417600D01*
X107874260Y-79417600D01*
X107940443Y-79424119D01*
X107940443Y-79424119D01*
G37*
G36*
X111271000Y-81219600D02*
G01*
X109469000Y-81219600D01*
X109469000Y-79417600D01*
X111271000Y-79417600D01*
X111271000Y-81219600D01*
X111271000Y-81219600D01*
G37*
G36*
X102860443Y-79424119D02*
G01*
X102926627Y-79430637D01*
X103096466Y-79482157D01*
X103252991Y-79565822D01*
X103288729Y-79595152D01*
X103390186Y-79678414D01*
X103473448Y-79779871D01*
X103502778Y-79815609D01*
X103586443Y-79972134D01*
X103637963Y-80141973D01*
X103655359Y-80318600D01*
X103637963Y-80495227D01*
X103586443Y-80665066D01*
X103502778Y-80821591D01*
X103473448Y-80857329D01*
X103390186Y-80958786D01*
X103288729Y-81042048D01*
X103252991Y-81071378D01*
X103096466Y-81155043D01*
X102926627Y-81206563D01*
X102860442Y-81213082D01*
X102794260Y-81219600D01*
X102705740Y-81219600D01*
X102639558Y-81213082D01*
X102573373Y-81206563D01*
X102403534Y-81155043D01*
X102247009Y-81071378D01*
X102211271Y-81042048D01*
X102109814Y-80958786D01*
X102026552Y-80857329D01*
X101997222Y-80821591D01*
X101913557Y-80665066D01*
X101862037Y-80495227D01*
X101844641Y-80318600D01*
X101862037Y-80141973D01*
X101913557Y-79972134D01*
X101997222Y-79815609D01*
X102026552Y-79779871D01*
X102109814Y-79678414D01*
X102211271Y-79595152D01*
X102247009Y-79565822D01*
X102403534Y-79482157D01*
X102573373Y-79430637D01*
X102639557Y-79424119D01*
X102705740Y-79417600D01*
X102794260Y-79417600D01*
X102860443Y-79424119D01*
X102860443Y-79424119D01*
G37*
G36*
X91846746Y-75924321D02*
G01*
X91926375Y-75932164D01*
X92079626Y-75978652D01*
X92079629Y-75978653D01*
X92220862Y-76054144D01*
X92344658Y-76155741D01*
X92446255Y-76279537D01*
X92521746Y-76420770D01*
X92521747Y-76420773D01*
X92568235Y-76574024D01*
X92583932Y-76733400D01*
X92568235Y-76892776D01*
X92538492Y-76990826D01*
X92521746Y-77046030D01*
X92446255Y-77187263D01*
X92344658Y-77311059D01*
X92220862Y-77412656D01*
X92079629Y-77488147D01*
X92079626Y-77488148D01*
X91926375Y-77534636D01*
X91846746Y-77542479D01*
X91806933Y-77546400D01*
X91727065Y-77546400D01*
X91687252Y-77542479D01*
X91607623Y-77534636D01*
X91454372Y-77488148D01*
X91454369Y-77488147D01*
X91313136Y-77412656D01*
X91189340Y-77311059D01*
X91087743Y-77187263D01*
X91012252Y-77046030D01*
X90995506Y-76990826D01*
X90965763Y-76892776D01*
X90950066Y-76733400D01*
X90965763Y-76574024D01*
X91012251Y-76420773D01*
X91012252Y-76420770D01*
X91087743Y-76279537D01*
X91189340Y-76155741D01*
X91313136Y-76054144D01*
X91454369Y-75978653D01*
X91454372Y-75978652D01*
X91607623Y-75932164D01*
X91687252Y-75924321D01*
X91727065Y-75920400D01*
X91806933Y-75920400D01*
X91846746Y-75924321D01*
X91846746Y-75924321D01*
G37*
G36*
X98349146Y-75924321D02*
G01*
X98428775Y-75932164D01*
X98582026Y-75978652D01*
X98582029Y-75978653D01*
X98723262Y-76054144D01*
X98847058Y-76155741D01*
X98948655Y-76279537D01*
X99024146Y-76420770D01*
X99024147Y-76420773D01*
X99070635Y-76574024D01*
X99086332Y-76733400D01*
X99070635Y-76892776D01*
X99040892Y-76990826D01*
X99024146Y-77046030D01*
X98948655Y-77187263D01*
X98847058Y-77311059D01*
X98723262Y-77412656D01*
X98582029Y-77488147D01*
X98582026Y-77488148D01*
X98428775Y-77534636D01*
X98349146Y-77542479D01*
X98309333Y-77546400D01*
X98229465Y-77546400D01*
X98189652Y-77542479D01*
X98110023Y-77534636D01*
X97956772Y-77488148D01*
X97956769Y-77488147D01*
X97815536Y-77412656D01*
X97691740Y-77311059D01*
X97590143Y-77187263D01*
X97514652Y-77046030D01*
X97497906Y-76990826D01*
X97468163Y-76892776D01*
X97452466Y-76733400D01*
X97468163Y-76574024D01*
X97514651Y-76420773D01*
X97514652Y-76420770D01*
X97590143Y-76279537D01*
X97691740Y-76155741D01*
X97815536Y-76054144D01*
X97956769Y-75978653D01*
X97956772Y-75978652D01*
X98110023Y-75932164D01*
X98189652Y-75924321D01*
X98229465Y-75920400D01*
X98309333Y-75920400D01*
X98349146Y-75924321D01*
X98349146Y-75924321D01*
G37*
G36*
X105860468Y-75498565D02*
G01*
X105899138Y-75510296D01*
X105934777Y-75529346D01*
X105966017Y-75554983D01*
X105991654Y-75586223D01*
X106010704Y-75621862D01*
X106022435Y-75660532D01*
X106027000Y-75706888D01*
X106027000Y-76783112D01*
X106022435Y-76829468D01*
X106010704Y-76868138D01*
X105991654Y-76903777D01*
X105966017Y-76935017D01*
X105934777Y-76960654D01*
X105899138Y-76979704D01*
X105860468Y-76991435D01*
X105814112Y-76996000D01*
X105162888Y-76996000D01*
X105116532Y-76991435D01*
X105077862Y-76979704D01*
X105042223Y-76960654D01*
X105010983Y-76935017D01*
X104985346Y-76903777D01*
X104966296Y-76868138D01*
X104954565Y-76829468D01*
X104950000Y-76783112D01*
X104950000Y-75706888D01*
X104954565Y-75660532D01*
X104966296Y-75621862D01*
X104985346Y-75586223D01*
X105010983Y-75554983D01*
X105042223Y-75529346D01*
X105077862Y-75510296D01*
X105116532Y-75498565D01*
X105162888Y-75494000D01*
X105814112Y-75494000D01*
X105860468Y-75498565D01*
X105860468Y-75498565D01*
G37*
G36*
X107735468Y-75498565D02*
G01*
X107774138Y-75510296D01*
X107809777Y-75529346D01*
X107841017Y-75554983D01*
X107866654Y-75586223D01*
X107885704Y-75621862D01*
X107897435Y-75660532D01*
X107902000Y-75706888D01*
X107902000Y-76783112D01*
X107897435Y-76829468D01*
X107885704Y-76868138D01*
X107866654Y-76903777D01*
X107841017Y-76935017D01*
X107809777Y-76960654D01*
X107774138Y-76979704D01*
X107735468Y-76991435D01*
X107689112Y-76996000D01*
X107037888Y-76996000D01*
X106991532Y-76991435D01*
X106952862Y-76979704D01*
X106917223Y-76960654D01*
X106885983Y-76935017D01*
X106860346Y-76903777D01*
X106841296Y-76868138D01*
X106829565Y-76829468D01*
X106825000Y-76783112D01*
X106825000Y-75706888D01*
X106829565Y-75660532D01*
X106841296Y-75621862D01*
X106860346Y-75586223D01*
X106885983Y-75554983D01*
X106917223Y-75529346D01*
X106952862Y-75510296D01*
X106991532Y-75498565D01*
X107037888Y-75494000D01*
X107689112Y-75494000D01*
X107735468Y-75498565D01*
X107735468Y-75498565D01*
G37*
G36*
X109924468Y-75453565D02*
G01*
X109963138Y-75465296D01*
X109998777Y-75484346D01*
X110030017Y-75509983D01*
X110055654Y-75541223D01*
X110074704Y-75576862D01*
X110086435Y-75615532D01*
X110091000Y-75661888D01*
X110091000Y-76738112D01*
X110086435Y-76784468D01*
X110074704Y-76823138D01*
X110055654Y-76858777D01*
X110030017Y-76890017D01*
X109998777Y-76915654D01*
X109963138Y-76934704D01*
X109924468Y-76946435D01*
X109878112Y-76951000D01*
X109226888Y-76951000D01*
X109180532Y-76946435D01*
X109141862Y-76934704D01*
X109106223Y-76915654D01*
X109074983Y-76890017D01*
X109049346Y-76858777D01*
X109030296Y-76823138D01*
X109018565Y-76784468D01*
X109014000Y-76738112D01*
X109014000Y-75661888D01*
X109018565Y-75615532D01*
X109030296Y-75576862D01*
X109049346Y-75541223D01*
X109074983Y-75509983D01*
X109106223Y-75484346D01*
X109141862Y-75465296D01*
X109180532Y-75453565D01*
X109226888Y-75449000D01*
X109878112Y-75449000D01*
X109924468Y-75453565D01*
X109924468Y-75453565D01*
G37*
G36*
X111799468Y-75453565D02*
G01*
X111838138Y-75465296D01*
X111873777Y-75484346D01*
X111905017Y-75509983D01*
X111930654Y-75541223D01*
X111949704Y-75576862D01*
X111961435Y-75615532D01*
X111966000Y-75661888D01*
X111966000Y-76738112D01*
X111961435Y-76784468D01*
X111949704Y-76823138D01*
X111930654Y-76858777D01*
X111905017Y-76890017D01*
X111873777Y-76915654D01*
X111838138Y-76934704D01*
X111799468Y-76946435D01*
X111753112Y-76951000D01*
X111101888Y-76951000D01*
X111055532Y-76946435D01*
X111016862Y-76934704D01*
X110981223Y-76915654D01*
X110949983Y-76890017D01*
X110924346Y-76858777D01*
X110905296Y-76823138D01*
X110893565Y-76784468D01*
X110889000Y-76738112D01*
X110889000Y-75661888D01*
X110893565Y-75615532D01*
X110905296Y-75576862D01*
X110924346Y-75541223D01*
X110949983Y-75509983D01*
X110981223Y-75484346D01*
X111016862Y-75465296D01*
X111055532Y-75453565D01*
X111101888Y-75449000D01*
X111753112Y-75449000D01*
X111799468Y-75453565D01*
X111799468Y-75453565D01*
G37*
G36*
X99607468Y-72151565D02*
G01*
X99646138Y-72163296D01*
X99681777Y-72182346D01*
X99713017Y-72207983D01*
X99738654Y-72239223D01*
X99757704Y-72274862D01*
X99769435Y-72313532D01*
X99774000Y-72359888D01*
X99774000Y-73436112D01*
X99769435Y-73482468D01*
X99757704Y-73521138D01*
X99738654Y-73556777D01*
X99713017Y-73588017D01*
X99681777Y-73613654D01*
X99646138Y-73632704D01*
X99607468Y-73644435D01*
X99561112Y-73649000D01*
X98909888Y-73649000D01*
X98863532Y-73644435D01*
X98824862Y-73632704D01*
X98789223Y-73613654D01*
X98757983Y-73588017D01*
X98732346Y-73556777D01*
X98713296Y-73521138D01*
X98701565Y-73482468D01*
X98697000Y-73436112D01*
X98697000Y-72359888D01*
X98701565Y-72313532D01*
X98713296Y-72274862D01*
X98732346Y-72239223D01*
X98757983Y-72207983D01*
X98789223Y-72182346D01*
X98824862Y-72163296D01*
X98863532Y-72151565D01*
X98909888Y-72147000D01*
X99561112Y-72147000D01*
X99607468Y-72151565D01*
X99607468Y-72151565D01*
G37*
G36*
X97732468Y-72151565D02*
G01*
X97771138Y-72163296D01*
X97806777Y-72182346D01*
X97838017Y-72207983D01*
X97863654Y-72239223D01*
X97882704Y-72274862D01*
X97894435Y-72313532D01*
X97899000Y-72359888D01*
X97899000Y-73436112D01*
X97894435Y-73482468D01*
X97882704Y-73521138D01*
X97863654Y-73556777D01*
X97838017Y-73588017D01*
X97806777Y-73613654D01*
X97771138Y-73632704D01*
X97732468Y-73644435D01*
X97686112Y-73649000D01*
X97034888Y-73649000D01*
X96988532Y-73644435D01*
X96949862Y-73632704D01*
X96914223Y-73613654D01*
X96882983Y-73588017D01*
X96857346Y-73556777D01*
X96838296Y-73521138D01*
X96826565Y-73482468D01*
X96822000Y-73436112D01*
X96822000Y-72359888D01*
X96826565Y-72313532D01*
X96838296Y-72274862D01*
X96857346Y-72239223D01*
X96882983Y-72207983D01*
X96914223Y-72182346D01*
X96949862Y-72163296D01*
X96988532Y-72151565D01*
X97034888Y-72147000D01*
X97686112Y-72147000D01*
X97732468Y-72151565D01*
X97732468Y-72151565D01*
G37*
G36*
X103671468Y-72151565D02*
G01*
X103710138Y-72163296D01*
X103745777Y-72182346D01*
X103777017Y-72207983D01*
X103802654Y-72239223D01*
X103821704Y-72274862D01*
X103833435Y-72313532D01*
X103838000Y-72359888D01*
X103838000Y-73436112D01*
X103833435Y-73482468D01*
X103821704Y-73521138D01*
X103802654Y-73556777D01*
X103777017Y-73588017D01*
X103745777Y-73613654D01*
X103710138Y-73632704D01*
X103671468Y-73644435D01*
X103625112Y-73649000D01*
X102973888Y-73649000D01*
X102927532Y-73644435D01*
X102888862Y-73632704D01*
X102853223Y-73613654D01*
X102821983Y-73588017D01*
X102796346Y-73556777D01*
X102777296Y-73521138D01*
X102765565Y-73482468D01*
X102761000Y-73436112D01*
X102761000Y-72359888D01*
X102765565Y-72313532D01*
X102777296Y-72274862D01*
X102796346Y-72239223D01*
X102821983Y-72207983D01*
X102853223Y-72182346D01*
X102888862Y-72163296D01*
X102927532Y-72151565D01*
X102973888Y-72147000D01*
X103625112Y-72147000D01*
X103671468Y-72151565D01*
X103671468Y-72151565D01*
G37*
G36*
X101796468Y-72151565D02*
G01*
X101835138Y-72163296D01*
X101870777Y-72182346D01*
X101902017Y-72207983D01*
X101927654Y-72239223D01*
X101946704Y-72274862D01*
X101958435Y-72313532D01*
X101963000Y-72359888D01*
X101963000Y-73436112D01*
X101958435Y-73482468D01*
X101946704Y-73521138D01*
X101927654Y-73556777D01*
X101902017Y-73588017D01*
X101870777Y-73613654D01*
X101835138Y-73632704D01*
X101796468Y-73644435D01*
X101750112Y-73649000D01*
X101098888Y-73649000D01*
X101052532Y-73644435D01*
X101013862Y-73632704D01*
X100978223Y-73613654D01*
X100946983Y-73588017D01*
X100921346Y-73556777D01*
X100902296Y-73521138D01*
X100890565Y-73482468D01*
X100886000Y-73436112D01*
X100886000Y-72359888D01*
X100890565Y-72313532D01*
X100902296Y-72274862D01*
X100921346Y-72239223D01*
X100946983Y-72207983D01*
X100978223Y-72182346D01*
X101013862Y-72163296D01*
X101052532Y-72151565D01*
X101098888Y-72147000D01*
X101750112Y-72147000D01*
X101796468Y-72151565D01*
X101796468Y-72151565D01*
G37*
G36*
X107735468Y-72151565D02*
G01*
X107774138Y-72163296D01*
X107809777Y-72182346D01*
X107841017Y-72207983D01*
X107866654Y-72239223D01*
X107885704Y-72274862D01*
X107897435Y-72313532D01*
X107902000Y-72359888D01*
X107902000Y-73436112D01*
X107897435Y-73482468D01*
X107885704Y-73521138D01*
X107866654Y-73556777D01*
X107841017Y-73588017D01*
X107809777Y-73613654D01*
X107774138Y-73632704D01*
X107735468Y-73644435D01*
X107689112Y-73649000D01*
X107037888Y-73649000D01*
X106991532Y-73644435D01*
X106952862Y-73632704D01*
X106917223Y-73613654D01*
X106885983Y-73588017D01*
X106860346Y-73556777D01*
X106841296Y-73521138D01*
X106829565Y-73482468D01*
X106825000Y-73436112D01*
X106825000Y-72359888D01*
X106829565Y-72313532D01*
X106841296Y-72274862D01*
X106860346Y-72239223D01*
X106885983Y-72207983D01*
X106917223Y-72182346D01*
X106952862Y-72163296D01*
X106991532Y-72151565D01*
X107037888Y-72147000D01*
X107689112Y-72147000D01*
X107735468Y-72151565D01*
X107735468Y-72151565D01*
G37*
G36*
X105860468Y-72151565D02*
G01*
X105899138Y-72163296D01*
X105934777Y-72182346D01*
X105966017Y-72207983D01*
X105991654Y-72239223D01*
X106010704Y-72274862D01*
X106022435Y-72313532D01*
X106027000Y-72359888D01*
X106027000Y-73436112D01*
X106022435Y-73482468D01*
X106010704Y-73521138D01*
X105991654Y-73556777D01*
X105966017Y-73588017D01*
X105934777Y-73613654D01*
X105899138Y-73632704D01*
X105860468Y-73644435D01*
X105814112Y-73649000D01*
X105162888Y-73649000D01*
X105116532Y-73644435D01*
X105077862Y-73632704D01*
X105042223Y-73613654D01*
X105010983Y-73588017D01*
X104985346Y-73556777D01*
X104966296Y-73521138D01*
X104954565Y-73482468D01*
X104950000Y-73436112D01*
X104950000Y-72359888D01*
X104954565Y-72313532D01*
X104966296Y-72274862D01*
X104985346Y-72239223D01*
X105010983Y-72207983D01*
X105042223Y-72182346D01*
X105077862Y-72163296D01*
X105116532Y-72151565D01*
X105162888Y-72147000D01*
X105814112Y-72147000D01*
X105860468Y-72151565D01*
X105860468Y-72151565D01*
G37*
G36*
X109924468Y-72106565D02*
G01*
X109963138Y-72118296D01*
X109998777Y-72137346D01*
X110030017Y-72162983D01*
X110055654Y-72194223D01*
X110074704Y-72229862D01*
X110086435Y-72268532D01*
X110091000Y-72314888D01*
X110091000Y-73391112D01*
X110086435Y-73437468D01*
X110074704Y-73476138D01*
X110055654Y-73511777D01*
X110030017Y-73543017D01*
X109998777Y-73568654D01*
X109963138Y-73587704D01*
X109924468Y-73599435D01*
X109878112Y-73604000D01*
X109226888Y-73604000D01*
X109180532Y-73599435D01*
X109141862Y-73587704D01*
X109106223Y-73568654D01*
X109074983Y-73543017D01*
X109049346Y-73511777D01*
X109030296Y-73476138D01*
X109018565Y-73437468D01*
X109014000Y-73391112D01*
X109014000Y-72314888D01*
X109018565Y-72268532D01*
X109030296Y-72229862D01*
X109049346Y-72194223D01*
X109074983Y-72162983D01*
X109106223Y-72137346D01*
X109141862Y-72118296D01*
X109180532Y-72106565D01*
X109226888Y-72102000D01*
X109878112Y-72102000D01*
X109924468Y-72106565D01*
X109924468Y-72106565D01*
G37*
G36*
X111799468Y-72106565D02*
G01*
X111838138Y-72118296D01*
X111873777Y-72137346D01*
X111905017Y-72162983D01*
X111930654Y-72194223D01*
X111949704Y-72229862D01*
X111961435Y-72268532D01*
X111966000Y-72314888D01*
X111966000Y-73391112D01*
X111961435Y-73437468D01*
X111949704Y-73476138D01*
X111930654Y-73511777D01*
X111905017Y-73543017D01*
X111873777Y-73568654D01*
X111838138Y-73587704D01*
X111799468Y-73599435D01*
X111753112Y-73604000D01*
X111101888Y-73604000D01*
X111055532Y-73599435D01*
X111016862Y-73587704D01*
X110981223Y-73568654D01*
X110949983Y-73543017D01*
X110924346Y-73511777D01*
X110905296Y-73476138D01*
X110893565Y-73437468D01*
X110889000Y-73391112D01*
X110889000Y-72314888D01*
X110893565Y-72268532D01*
X110905296Y-72229862D01*
X110924346Y-72194223D01*
X110949983Y-72162983D01*
X110981223Y-72137346D01*
X111016862Y-72118296D01*
X111055532Y-72106565D01*
X111101888Y-72102000D01*
X111753112Y-72102000D01*
X111799468Y-72106565D01*
X111799468Y-72106565D01*
G37*
G36*
X110473443Y-67685519D02*
G01*
X110539627Y-67692037D01*
X110709466Y-67743557D01*
X110865991Y-67827222D01*
X110901729Y-67856552D01*
X111003186Y-67939814D01*
X111086448Y-68041271D01*
X111115778Y-68077009D01*
X111199443Y-68233534D01*
X111250963Y-68403373D01*
X111268359Y-68580000D01*
X111250963Y-68756627D01*
X111199443Y-68926466D01*
X111115778Y-69082991D01*
X111086448Y-69118729D01*
X111003186Y-69220186D01*
X110901729Y-69303448D01*
X110865991Y-69332778D01*
X110709466Y-69416443D01*
X110539627Y-69467963D01*
X110473442Y-69474482D01*
X110407260Y-69481000D01*
X110318740Y-69481000D01*
X110252558Y-69474482D01*
X110186373Y-69467963D01*
X110016534Y-69416443D01*
X109860009Y-69332778D01*
X109824271Y-69303448D01*
X109722814Y-69220186D01*
X109639552Y-69118729D01*
X109610222Y-69082991D01*
X109526557Y-68926466D01*
X109475037Y-68756627D01*
X109457641Y-68580000D01*
X109475037Y-68403373D01*
X109526557Y-68233534D01*
X109610222Y-68077009D01*
X109639552Y-68041271D01*
X109722814Y-67939814D01*
X109824271Y-67856552D01*
X109860009Y-67827222D01*
X110016534Y-67743557D01*
X110186373Y-67692037D01*
X110252557Y-67685519D01*
X110318740Y-67679000D01*
X110407260Y-67679000D01*
X110473443Y-67685519D01*
X110473443Y-67685519D01*
G37*
G36*
X100313443Y-67685519D02*
G01*
X100379627Y-67692037D01*
X100549466Y-67743557D01*
X100705991Y-67827222D01*
X100741729Y-67856552D01*
X100843186Y-67939814D01*
X100926448Y-68041271D01*
X100955778Y-68077009D01*
X101039443Y-68233534D01*
X101090963Y-68403373D01*
X101108359Y-68580000D01*
X101090963Y-68756627D01*
X101039443Y-68926466D01*
X100955778Y-69082991D01*
X100926448Y-69118729D01*
X100843186Y-69220186D01*
X100741729Y-69303448D01*
X100705991Y-69332778D01*
X100549466Y-69416443D01*
X100379627Y-69467963D01*
X100313442Y-69474482D01*
X100247260Y-69481000D01*
X100158740Y-69481000D01*
X100092558Y-69474482D01*
X100026373Y-69467963D01*
X99856534Y-69416443D01*
X99700009Y-69332778D01*
X99664271Y-69303448D01*
X99562814Y-69220186D01*
X99479552Y-69118729D01*
X99450222Y-69082991D01*
X99366557Y-68926466D01*
X99315037Y-68756627D01*
X99297641Y-68580000D01*
X99315037Y-68403373D01*
X99366557Y-68233534D01*
X99450222Y-68077009D01*
X99479552Y-68041271D01*
X99562814Y-67939814D01*
X99664271Y-67856552D01*
X99700009Y-67827222D01*
X99856534Y-67743557D01*
X100026373Y-67692037D01*
X100092557Y-67685519D01*
X100158740Y-67679000D01*
X100247260Y-67679000D01*
X100313443Y-67685519D01*
X100313443Y-67685519D01*
G37*
G36*
X97773443Y-67685519D02*
G01*
X97839627Y-67692037D01*
X98009466Y-67743557D01*
X98165991Y-67827222D01*
X98201729Y-67856552D01*
X98303186Y-67939814D01*
X98386448Y-68041271D01*
X98415778Y-68077009D01*
X98499443Y-68233534D01*
X98550963Y-68403373D01*
X98568359Y-68580000D01*
X98550963Y-68756627D01*
X98499443Y-68926466D01*
X98415778Y-69082991D01*
X98386448Y-69118729D01*
X98303186Y-69220186D01*
X98201729Y-69303448D01*
X98165991Y-69332778D01*
X98009466Y-69416443D01*
X97839627Y-69467963D01*
X97773442Y-69474482D01*
X97707260Y-69481000D01*
X97618740Y-69481000D01*
X97552558Y-69474482D01*
X97486373Y-69467963D01*
X97316534Y-69416443D01*
X97160009Y-69332778D01*
X97124271Y-69303448D01*
X97022814Y-69220186D01*
X96939552Y-69118729D01*
X96910222Y-69082991D01*
X96826557Y-68926466D01*
X96775037Y-68756627D01*
X96757641Y-68580000D01*
X96775037Y-68403373D01*
X96826557Y-68233534D01*
X96910222Y-68077009D01*
X96939552Y-68041271D01*
X97022814Y-67939814D01*
X97124271Y-67856552D01*
X97160009Y-67827222D01*
X97316534Y-67743557D01*
X97486373Y-67692037D01*
X97552557Y-67685519D01*
X97618740Y-67679000D01*
X97707260Y-67679000D01*
X97773443Y-67685519D01*
X97773443Y-67685519D01*
G37*
G36*
X95233443Y-67685519D02*
G01*
X95299627Y-67692037D01*
X95469466Y-67743557D01*
X95625991Y-67827222D01*
X95661729Y-67856552D01*
X95763186Y-67939814D01*
X95846448Y-68041271D01*
X95875778Y-68077009D01*
X95959443Y-68233534D01*
X96010963Y-68403373D01*
X96028359Y-68580000D01*
X96010963Y-68756627D01*
X95959443Y-68926466D01*
X95875778Y-69082991D01*
X95846448Y-69118729D01*
X95763186Y-69220186D01*
X95661729Y-69303448D01*
X95625991Y-69332778D01*
X95469466Y-69416443D01*
X95299627Y-69467963D01*
X95233442Y-69474482D01*
X95167260Y-69481000D01*
X95078740Y-69481000D01*
X95012558Y-69474482D01*
X94946373Y-69467963D01*
X94776534Y-69416443D01*
X94620009Y-69332778D01*
X94584271Y-69303448D01*
X94482814Y-69220186D01*
X94399552Y-69118729D01*
X94370222Y-69082991D01*
X94286557Y-68926466D01*
X94235037Y-68756627D01*
X94217641Y-68580000D01*
X94235037Y-68403373D01*
X94286557Y-68233534D01*
X94370222Y-68077009D01*
X94399552Y-68041271D01*
X94482814Y-67939814D01*
X94584271Y-67856552D01*
X94620009Y-67827222D01*
X94776534Y-67743557D01*
X94946373Y-67692037D01*
X95012557Y-67685519D01*
X95078740Y-67679000D01*
X95167260Y-67679000D01*
X95233443Y-67685519D01*
X95233443Y-67685519D01*
G37*
G36*
X93484000Y-69481000D02*
G01*
X91682000Y-69481000D01*
X91682000Y-67679000D01*
X93484000Y-67679000D01*
X93484000Y-69481000D01*
X93484000Y-69481000D01*
G37*
G36*
X102853443Y-67685519D02*
G01*
X102919627Y-67692037D01*
X103089466Y-67743557D01*
X103245991Y-67827222D01*
X103281729Y-67856552D01*
X103383186Y-67939814D01*
X103466448Y-68041271D01*
X103495778Y-68077009D01*
X103579443Y-68233534D01*
X103630963Y-68403373D01*
X103648359Y-68580000D01*
X103630963Y-68756627D01*
X103579443Y-68926466D01*
X103495778Y-69082991D01*
X103466448Y-69118729D01*
X103383186Y-69220186D01*
X103281729Y-69303448D01*
X103245991Y-69332778D01*
X103089466Y-69416443D01*
X102919627Y-69467963D01*
X102853442Y-69474482D01*
X102787260Y-69481000D01*
X102698740Y-69481000D01*
X102632558Y-69474482D01*
X102566373Y-69467963D01*
X102396534Y-69416443D01*
X102240009Y-69332778D01*
X102204271Y-69303448D01*
X102102814Y-69220186D01*
X102019552Y-69118729D01*
X101990222Y-69082991D01*
X101906557Y-68926466D01*
X101855037Y-68756627D01*
X101837641Y-68580000D01*
X101855037Y-68403373D01*
X101906557Y-68233534D01*
X101990222Y-68077009D01*
X102019552Y-68041271D01*
X102102814Y-67939814D01*
X102204271Y-67856552D01*
X102240009Y-67827222D01*
X102396534Y-67743557D01*
X102566373Y-67692037D01*
X102632557Y-67685519D01*
X102698740Y-67679000D01*
X102787260Y-67679000D01*
X102853443Y-67685519D01*
X102853443Y-67685519D01*
G37*
G36*
X105393443Y-67685519D02*
G01*
X105459627Y-67692037D01*
X105629466Y-67743557D01*
X105785991Y-67827222D01*
X105821729Y-67856552D01*
X105923186Y-67939814D01*
X106006448Y-68041271D01*
X106035778Y-68077009D01*
X106119443Y-68233534D01*
X106170963Y-68403373D01*
X106188359Y-68580000D01*
X106170963Y-68756627D01*
X106119443Y-68926466D01*
X106035778Y-69082991D01*
X106006448Y-69118729D01*
X105923186Y-69220186D01*
X105821729Y-69303448D01*
X105785991Y-69332778D01*
X105629466Y-69416443D01*
X105459627Y-69467963D01*
X105393442Y-69474482D01*
X105327260Y-69481000D01*
X105238740Y-69481000D01*
X105172558Y-69474482D01*
X105106373Y-69467963D01*
X104936534Y-69416443D01*
X104780009Y-69332778D01*
X104744271Y-69303448D01*
X104642814Y-69220186D01*
X104559552Y-69118729D01*
X104530222Y-69082991D01*
X104446557Y-68926466D01*
X104395037Y-68756627D01*
X104377641Y-68580000D01*
X104395037Y-68403373D01*
X104446557Y-68233534D01*
X104530222Y-68077009D01*
X104559552Y-68041271D01*
X104642814Y-67939814D01*
X104744271Y-67856552D01*
X104780009Y-67827222D01*
X104936534Y-67743557D01*
X105106373Y-67692037D01*
X105172557Y-67685519D01*
X105238740Y-67679000D01*
X105327260Y-67679000D01*
X105393443Y-67685519D01*
X105393443Y-67685519D01*
G37*
G36*
X107933443Y-67685519D02*
G01*
X107999627Y-67692037D01*
X108169466Y-67743557D01*
X108325991Y-67827222D01*
X108361729Y-67856552D01*
X108463186Y-67939814D01*
X108546448Y-68041271D01*
X108575778Y-68077009D01*
X108659443Y-68233534D01*
X108710963Y-68403373D01*
X108728359Y-68580000D01*
X108710963Y-68756627D01*
X108659443Y-68926466D01*
X108575778Y-69082991D01*
X108546448Y-69118729D01*
X108463186Y-69220186D01*
X108361729Y-69303448D01*
X108325991Y-69332778D01*
X108169466Y-69416443D01*
X107999627Y-69467963D01*
X107933442Y-69474482D01*
X107867260Y-69481000D01*
X107778740Y-69481000D01*
X107712558Y-69474482D01*
X107646373Y-69467963D01*
X107476534Y-69416443D01*
X107320009Y-69332778D01*
X107284271Y-69303448D01*
X107182814Y-69220186D01*
X107099552Y-69118729D01*
X107070222Y-69082991D01*
X106986557Y-68926466D01*
X106935037Y-68756627D01*
X106917641Y-68580000D01*
X106935037Y-68403373D01*
X106986557Y-68233534D01*
X107070222Y-68077009D01*
X107099552Y-68041271D01*
X107182814Y-67939814D01*
X107284271Y-67856552D01*
X107320009Y-67827222D01*
X107476534Y-67743557D01*
X107646373Y-67692037D01*
X107712557Y-67685519D01*
X107778740Y-67679000D01*
X107867260Y-67679000D01*
X107933443Y-67685519D01*
X107933443Y-67685519D01*
G37*
G36*
X110473442Y-65145518D02*
G01*
X110539627Y-65152037D01*
X110709466Y-65203557D01*
X110865991Y-65287222D01*
X110901729Y-65316552D01*
X111003186Y-65399814D01*
X111086448Y-65501271D01*
X111115778Y-65537009D01*
X111199443Y-65693534D01*
X111250963Y-65863373D01*
X111268359Y-66040000D01*
X111250963Y-66216627D01*
X111199443Y-66386466D01*
X111115778Y-66542991D01*
X111086448Y-66578729D01*
X111003186Y-66680186D01*
X110901729Y-66763448D01*
X110865991Y-66792778D01*
X110709466Y-66876443D01*
X110539627Y-66927963D01*
X110473442Y-66934482D01*
X110407260Y-66941000D01*
X110318740Y-66941000D01*
X110252558Y-66934482D01*
X110186373Y-66927963D01*
X110016534Y-66876443D01*
X109860009Y-66792778D01*
X109824271Y-66763448D01*
X109722814Y-66680186D01*
X109639552Y-66578729D01*
X109610222Y-66542991D01*
X109526557Y-66386466D01*
X109475037Y-66216627D01*
X109457641Y-66040000D01*
X109475037Y-65863373D01*
X109526557Y-65693534D01*
X109610222Y-65537009D01*
X109639552Y-65501271D01*
X109722814Y-65399814D01*
X109824271Y-65316552D01*
X109860009Y-65287222D01*
X110016534Y-65203557D01*
X110186373Y-65152037D01*
X110252558Y-65145518D01*
X110318740Y-65139000D01*
X110407260Y-65139000D01*
X110473442Y-65145518D01*
X110473442Y-65145518D01*
G37*
G36*
X107933442Y-65145518D02*
G01*
X107999627Y-65152037D01*
X108169466Y-65203557D01*
X108325991Y-65287222D01*
X108361729Y-65316552D01*
X108463186Y-65399814D01*
X108546448Y-65501271D01*
X108575778Y-65537009D01*
X108659443Y-65693534D01*
X108710963Y-65863373D01*
X108728359Y-66040000D01*
X108710963Y-66216627D01*
X108659443Y-66386466D01*
X108575778Y-66542991D01*
X108546448Y-66578729D01*
X108463186Y-66680186D01*
X108361729Y-66763448D01*
X108325991Y-66792778D01*
X108169466Y-66876443D01*
X107999627Y-66927963D01*
X107933442Y-66934482D01*
X107867260Y-66941000D01*
X107778740Y-66941000D01*
X107712558Y-66934482D01*
X107646373Y-66927963D01*
X107476534Y-66876443D01*
X107320009Y-66792778D01*
X107284271Y-66763448D01*
X107182814Y-66680186D01*
X107099552Y-66578729D01*
X107070222Y-66542991D01*
X106986557Y-66386466D01*
X106935037Y-66216627D01*
X106917641Y-66040000D01*
X106935037Y-65863373D01*
X106986557Y-65693534D01*
X107070222Y-65537009D01*
X107099552Y-65501271D01*
X107182814Y-65399814D01*
X107284271Y-65316552D01*
X107320009Y-65287222D01*
X107476534Y-65203557D01*
X107646373Y-65152037D01*
X107712558Y-65145518D01*
X107778740Y-65139000D01*
X107867260Y-65139000D01*
X107933442Y-65145518D01*
X107933442Y-65145518D01*
G37*
G36*
X95233442Y-65145518D02*
G01*
X95299627Y-65152037D01*
X95469466Y-65203557D01*
X95625991Y-65287222D01*
X95661729Y-65316552D01*
X95763186Y-65399814D01*
X95846448Y-65501271D01*
X95875778Y-65537009D01*
X95959443Y-65693534D01*
X96010963Y-65863373D01*
X96028359Y-66040000D01*
X96010963Y-66216627D01*
X95959443Y-66386466D01*
X95875778Y-66542991D01*
X95846448Y-66578729D01*
X95763186Y-66680186D01*
X95661729Y-66763448D01*
X95625991Y-66792778D01*
X95469466Y-66876443D01*
X95299627Y-66927963D01*
X95233442Y-66934482D01*
X95167260Y-66941000D01*
X95078740Y-66941000D01*
X95012558Y-66934482D01*
X94946373Y-66927963D01*
X94776534Y-66876443D01*
X94620009Y-66792778D01*
X94584271Y-66763448D01*
X94482814Y-66680186D01*
X94399552Y-66578729D01*
X94370222Y-66542991D01*
X94286557Y-66386466D01*
X94235037Y-66216627D01*
X94217641Y-66040000D01*
X94235037Y-65863373D01*
X94286557Y-65693534D01*
X94370222Y-65537009D01*
X94399552Y-65501271D01*
X94482814Y-65399814D01*
X94584271Y-65316552D01*
X94620009Y-65287222D01*
X94776534Y-65203557D01*
X94946373Y-65152037D01*
X95012558Y-65145518D01*
X95078740Y-65139000D01*
X95167260Y-65139000D01*
X95233442Y-65145518D01*
X95233442Y-65145518D01*
G37*
G36*
X105393442Y-65145518D02*
G01*
X105459627Y-65152037D01*
X105629466Y-65203557D01*
X105785991Y-65287222D01*
X105821729Y-65316552D01*
X105923186Y-65399814D01*
X106006448Y-65501271D01*
X106035778Y-65537009D01*
X106119443Y-65693534D01*
X106170963Y-65863373D01*
X106188359Y-66040000D01*
X106170963Y-66216627D01*
X106119443Y-66386466D01*
X106035778Y-66542991D01*
X106006448Y-66578729D01*
X105923186Y-66680186D01*
X105821729Y-66763448D01*
X105785991Y-66792778D01*
X105629466Y-66876443D01*
X105459627Y-66927963D01*
X105393442Y-66934482D01*
X105327260Y-66941000D01*
X105238740Y-66941000D01*
X105172558Y-66934482D01*
X105106373Y-66927963D01*
X104936534Y-66876443D01*
X104780009Y-66792778D01*
X104744271Y-66763448D01*
X104642814Y-66680186D01*
X104559552Y-66578729D01*
X104530222Y-66542991D01*
X104446557Y-66386466D01*
X104395037Y-66216627D01*
X104377641Y-66040000D01*
X104395037Y-65863373D01*
X104446557Y-65693534D01*
X104530222Y-65537009D01*
X104559552Y-65501271D01*
X104642814Y-65399814D01*
X104744271Y-65316552D01*
X104780009Y-65287222D01*
X104936534Y-65203557D01*
X105106373Y-65152037D01*
X105172558Y-65145518D01*
X105238740Y-65139000D01*
X105327260Y-65139000D01*
X105393442Y-65145518D01*
X105393442Y-65145518D01*
G37*
G36*
X102853442Y-65145518D02*
G01*
X102919627Y-65152037D01*
X103089466Y-65203557D01*
X103245991Y-65287222D01*
X103281729Y-65316552D01*
X103383186Y-65399814D01*
X103466448Y-65501271D01*
X103495778Y-65537009D01*
X103579443Y-65693534D01*
X103630963Y-65863373D01*
X103648359Y-66040000D01*
X103630963Y-66216627D01*
X103579443Y-66386466D01*
X103495778Y-66542991D01*
X103466448Y-66578729D01*
X103383186Y-66680186D01*
X103281729Y-66763448D01*
X103245991Y-66792778D01*
X103089466Y-66876443D01*
X102919627Y-66927963D01*
X102853442Y-66934482D01*
X102787260Y-66941000D01*
X102698740Y-66941000D01*
X102632558Y-66934482D01*
X102566373Y-66927963D01*
X102396534Y-66876443D01*
X102240009Y-66792778D01*
X102204271Y-66763448D01*
X102102814Y-66680186D01*
X102019552Y-66578729D01*
X101990222Y-66542991D01*
X101906557Y-66386466D01*
X101855037Y-66216627D01*
X101837641Y-66040000D01*
X101855037Y-65863373D01*
X101906557Y-65693534D01*
X101990222Y-65537009D01*
X102019552Y-65501271D01*
X102102814Y-65399814D01*
X102204271Y-65316552D01*
X102240009Y-65287222D01*
X102396534Y-65203557D01*
X102566373Y-65152037D01*
X102632558Y-65145518D01*
X102698740Y-65139000D01*
X102787260Y-65139000D01*
X102853442Y-65145518D01*
X102853442Y-65145518D01*
G37*
G36*
X100313442Y-65145518D02*
G01*
X100379627Y-65152037D01*
X100549466Y-65203557D01*
X100705991Y-65287222D01*
X100741729Y-65316552D01*
X100843186Y-65399814D01*
X100926448Y-65501271D01*
X100955778Y-65537009D01*
X101039443Y-65693534D01*
X101090963Y-65863373D01*
X101108359Y-66040000D01*
X101090963Y-66216627D01*
X101039443Y-66386466D01*
X100955778Y-66542991D01*
X100926448Y-66578729D01*
X100843186Y-66680186D01*
X100741729Y-66763448D01*
X100705991Y-66792778D01*
X100549466Y-66876443D01*
X100379627Y-66927963D01*
X100313442Y-66934482D01*
X100247260Y-66941000D01*
X100158740Y-66941000D01*
X100092558Y-66934482D01*
X100026373Y-66927963D01*
X99856534Y-66876443D01*
X99700009Y-66792778D01*
X99664271Y-66763448D01*
X99562814Y-66680186D01*
X99479552Y-66578729D01*
X99450222Y-66542991D01*
X99366557Y-66386466D01*
X99315037Y-66216627D01*
X99297641Y-66040000D01*
X99315037Y-65863373D01*
X99366557Y-65693534D01*
X99450222Y-65537009D01*
X99479552Y-65501271D01*
X99562814Y-65399814D01*
X99664271Y-65316552D01*
X99700009Y-65287222D01*
X99856534Y-65203557D01*
X100026373Y-65152037D01*
X100092558Y-65145518D01*
X100158740Y-65139000D01*
X100247260Y-65139000D01*
X100313442Y-65145518D01*
X100313442Y-65145518D01*
G37*
G36*
X97773442Y-65145518D02*
G01*
X97839627Y-65152037D01*
X98009466Y-65203557D01*
X98165991Y-65287222D01*
X98201729Y-65316552D01*
X98303186Y-65399814D01*
X98386448Y-65501271D01*
X98415778Y-65537009D01*
X98499443Y-65693534D01*
X98550963Y-65863373D01*
X98568359Y-66040000D01*
X98550963Y-66216627D01*
X98499443Y-66386466D01*
X98415778Y-66542991D01*
X98386448Y-66578729D01*
X98303186Y-66680186D01*
X98201729Y-66763448D01*
X98165991Y-66792778D01*
X98009466Y-66876443D01*
X97839627Y-66927963D01*
X97773442Y-66934482D01*
X97707260Y-66941000D01*
X97618740Y-66941000D01*
X97552558Y-66934482D01*
X97486373Y-66927963D01*
X97316534Y-66876443D01*
X97160009Y-66792778D01*
X97124271Y-66763448D01*
X97022814Y-66680186D01*
X96939552Y-66578729D01*
X96910222Y-66542991D01*
X96826557Y-66386466D01*
X96775037Y-66216627D01*
X96757641Y-66040000D01*
X96775037Y-65863373D01*
X96826557Y-65693534D01*
X96910222Y-65537009D01*
X96939552Y-65501271D01*
X97022814Y-65399814D01*
X97124271Y-65316552D01*
X97160009Y-65287222D01*
X97316534Y-65203557D01*
X97486373Y-65152037D01*
X97552558Y-65145518D01*
X97618740Y-65139000D01*
X97707260Y-65139000D01*
X97773442Y-65145518D01*
X97773442Y-65145518D01*
G37*
G36*
X92693442Y-65145518D02*
G01*
X92759627Y-65152037D01*
X92929466Y-65203557D01*
X93085991Y-65287222D01*
X93121729Y-65316552D01*
X93223186Y-65399814D01*
X93306448Y-65501271D01*
X93335778Y-65537009D01*
X93419443Y-65693534D01*
X93470963Y-65863373D01*
X93488359Y-66040000D01*
X93470963Y-66216627D01*
X93419443Y-66386466D01*
X93335778Y-66542991D01*
X93306448Y-66578729D01*
X93223186Y-66680186D01*
X93121729Y-66763448D01*
X93085991Y-66792778D01*
X92929466Y-66876443D01*
X92759627Y-66927963D01*
X92693442Y-66934482D01*
X92627260Y-66941000D01*
X92538740Y-66941000D01*
X92472558Y-66934482D01*
X92406373Y-66927963D01*
X92236534Y-66876443D01*
X92080009Y-66792778D01*
X92044271Y-66763448D01*
X91942814Y-66680186D01*
X91859552Y-66578729D01*
X91830222Y-66542991D01*
X91746557Y-66386466D01*
X91695037Y-66216627D01*
X91677641Y-66040000D01*
X91695037Y-65863373D01*
X91746557Y-65693534D01*
X91830222Y-65537009D01*
X91859552Y-65501271D01*
X91942814Y-65399814D01*
X92044271Y-65316552D01*
X92080009Y-65287222D01*
X92236534Y-65203557D01*
X92406373Y-65152037D01*
X92472558Y-65145518D01*
X92538740Y-65139000D01*
X92627260Y-65139000D01*
X92693442Y-65145518D01*
X92693442Y-65145518D01*
G37*
M02*
