G04 #@! TF.GenerationSoftware,KiCad,Pcbnew,(5.1.2)-1*
G04 #@! TF.CreationDate,2019-05-14T16:37:42-04:00*
G04 #@! TF.ProjectId,RaspberryPiHat,52617370-6265-4727-9279-50694861742e,1*
G04 #@! TF.SameCoordinates,Original*
G04 #@! TF.FileFunction,Copper,L2,Bot*
G04 #@! TF.FilePolarity,Positive*
%FSLAX46Y46*%
G04 Gerber Fmt 4.6, Leading zero omitted, Abs format (unit mm)*
G04 Created by KiCad (PCBNEW (5.1.2)-1) date 2019-05-14 16:37:42*
%MOMM*%
%LPD*%
G04 APERTURE LIST*
%ADD10R,1.700000X1.700000*%
%ADD11O,1.700000X1.700000*%
%ADD12O,1.524000X1.524000*%
%ADD13C,1.000000*%
%ADD14C,0.254000*%
G04 APERTURE END LIST*
D10*
X92583000Y-68580000D03*
D11*
X92583000Y-66040000D03*
X95123000Y-68580000D03*
X95123000Y-66040000D03*
X97663000Y-68580000D03*
X97663000Y-66040000D03*
X100203000Y-68580000D03*
X100203000Y-66040000D03*
X102743000Y-68580000D03*
X102743000Y-66040000D03*
X105283000Y-68580000D03*
X105283000Y-66040000D03*
X107823000Y-68580000D03*
X107823000Y-66040000D03*
X110363000Y-68580000D03*
X110363000Y-66040000D03*
D12*
X98269399Y-81254600D03*
X91766999Y-81254600D03*
X98269399Y-76733400D03*
X91766999Y-76733400D03*
D10*
X110370000Y-80318600D03*
D11*
X107830000Y-80318600D03*
X105290000Y-80318600D03*
X102750000Y-80318600D03*
D13*
X99568000Y-75184000D03*
X108458000Y-74422000D03*
D14*
G36*
X111862001Y-82398000D02*
G01*
X99078266Y-82398000D01*
X99262007Y-82247208D01*
X99436582Y-82034487D01*
X99566303Y-81791795D01*
X99646185Y-81528460D01*
X99673158Y-81254600D01*
X99646185Y-80980740D01*
X99566303Y-80717405D01*
X99543900Y-80675491D01*
X101308519Y-80675491D01*
X101405843Y-80949852D01*
X101554822Y-81199955D01*
X101749731Y-81416188D01*
X101983080Y-81590241D01*
X102245901Y-81715425D01*
X102393110Y-81760076D01*
X102623000Y-81638755D01*
X102623000Y-80445600D01*
X101429186Y-80445600D01*
X101308519Y-80675491D01*
X99543900Y-80675491D01*
X99436582Y-80474713D01*
X99262007Y-80261992D01*
X99049286Y-80087417D01*
X98814102Y-79961709D01*
X101308519Y-79961709D01*
X101429186Y-80191600D01*
X102623000Y-80191600D01*
X102623000Y-78998445D01*
X102877000Y-78998445D01*
X102877000Y-80191600D01*
X102897000Y-80191600D01*
X102897000Y-80445600D01*
X102877000Y-80445600D01*
X102877000Y-81638755D01*
X103106890Y-81760076D01*
X103254099Y-81715425D01*
X103516920Y-81590241D01*
X103750269Y-81416188D01*
X103945178Y-81199955D01*
X104014799Y-81083077D01*
X104049294Y-81147614D01*
X104234866Y-81373734D01*
X104460986Y-81559306D01*
X104718966Y-81697199D01*
X104998889Y-81782113D01*
X105217050Y-81803600D01*
X105362950Y-81803600D01*
X105581111Y-81782113D01*
X105861034Y-81697199D01*
X106119014Y-81559306D01*
X106345134Y-81373734D01*
X106530706Y-81147614D01*
X106560000Y-81092809D01*
X106589294Y-81147614D01*
X106774866Y-81373734D01*
X107000986Y-81559306D01*
X107258966Y-81697199D01*
X107538889Y-81782113D01*
X107757050Y-81803600D01*
X107902950Y-81803600D01*
X108121111Y-81782113D01*
X108401034Y-81697199D01*
X108659014Y-81559306D01*
X108885134Y-81373734D01*
X108909607Y-81343913D01*
X108930498Y-81412780D01*
X108989463Y-81523094D01*
X109068815Y-81619785D01*
X109165506Y-81699137D01*
X109275820Y-81758102D01*
X109395518Y-81794412D01*
X109520000Y-81806672D01*
X111220000Y-81806672D01*
X111344482Y-81794412D01*
X111464180Y-81758102D01*
X111574494Y-81699137D01*
X111671185Y-81619785D01*
X111750537Y-81523094D01*
X111809502Y-81412780D01*
X111845812Y-81293082D01*
X111858072Y-81168600D01*
X111858072Y-79468600D01*
X111845812Y-79344118D01*
X111809502Y-79224420D01*
X111750537Y-79114106D01*
X111671185Y-79017415D01*
X111574494Y-78938063D01*
X111464180Y-78879098D01*
X111344482Y-78842788D01*
X111220000Y-78830528D01*
X109520000Y-78830528D01*
X109395518Y-78842788D01*
X109275820Y-78879098D01*
X109165506Y-78938063D01*
X109068815Y-79017415D01*
X108989463Y-79114106D01*
X108930498Y-79224420D01*
X108909607Y-79293287D01*
X108885134Y-79263466D01*
X108659014Y-79077894D01*
X108401034Y-78940001D01*
X108121111Y-78855087D01*
X107902950Y-78833600D01*
X107757050Y-78833600D01*
X107538889Y-78855087D01*
X107258966Y-78940001D01*
X107000986Y-79077894D01*
X106774866Y-79263466D01*
X106589294Y-79489586D01*
X106560000Y-79544391D01*
X106530706Y-79489586D01*
X106345134Y-79263466D01*
X106119014Y-79077894D01*
X105861034Y-78940001D01*
X105581111Y-78855087D01*
X105362950Y-78833600D01*
X105217050Y-78833600D01*
X104998889Y-78855087D01*
X104718966Y-78940001D01*
X104460986Y-79077894D01*
X104234866Y-79263466D01*
X104049294Y-79489586D01*
X104014799Y-79554123D01*
X103945178Y-79437245D01*
X103750269Y-79221012D01*
X103516920Y-79046959D01*
X103254099Y-78921775D01*
X103106890Y-78877124D01*
X102877000Y-78998445D01*
X102623000Y-78998445D01*
X102393110Y-78877124D01*
X102245901Y-78921775D01*
X101983080Y-79046959D01*
X101749731Y-79221012D01*
X101554822Y-79437245D01*
X101405843Y-79687348D01*
X101308519Y-79961709D01*
X98814102Y-79961709D01*
X98806594Y-79957696D01*
X98543259Y-79877814D01*
X98338024Y-79857600D01*
X98200774Y-79857600D01*
X97995539Y-79877814D01*
X97732204Y-79957696D01*
X97489512Y-80087417D01*
X97276791Y-80261992D01*
X97102216Y-80474713D01*
X96972495Y-80717405D01*
X96892613Y-80980740D01*
X96865640Y-81254600D01*
X96892613Y-81528460D01*
X96972495Y-81791795D01*
X97102216Y-82034487D01*
X97276791Y-82247208D01*
X97460532Y-82398000D01*
X92575866Y-82398000D01*
X92759607Y-82247208D01*
X92934182Y-82034487D01*
X93063903Y-81791795D01*
X93143785Y-81528460D01*
X93170758Y-81254600D01*
X93143785Y-80980740D01*
X93063903Y-80717405D01*
X92934182Y-80474713D01*
X92759607Y-80261992D01*
X92546886Y-80087417D01*
X92304194Y-79957696D01*
X92040859Y-79877814D01*
X91835624Y-79857600D01*
X91698374Y-79857600D01*
X91493139Y-79877814D01*
X91229804Y-79957696D01*
X90987112Y-80087417D01*
X90774391Y-80261992D01*
X90599816Y-80474713D01*
X90576000Y-80519270D01*
X90576000Y-77468730D01*
X90599816Y-77513287D01*
X90774391Y-77726008D01*
X90987112Y-77900583D01*
X91229804Y-78030304D01*
X91493139Y-78110186D01*
X91698374Y-78130400D01*
X91835624Y-78130400D01*
X92040859Y-78110186D01*
X92304194Y-78030304D01*
X92546886Y-77900583D01*
X92759607Y-77726008D01*
X92934182Y-77513287D01*
X93063903Y-77270595D01*
X93143785Y-77007260D01*
X93170758Y-76733400D01*
X96865640Y-76733400D01*
X96892613Y-77007260D01*
X96972495Y-77270595D01*
X97102216Y-77513287D01*
X97276791Y-77726008D01*
X97489512Y-77900583D01*
X97732204Y-78030304D01*
X97995539Y-78110186D01*
X98200774Y-78130400D01*
X98338024Y-78130400D01*
X98543259Y-78110186D01*
X98806594Y-78030304D01*
X99049286Y-77900583D01*
X99262007Y-77726008D01*
X99436582Y-77513287D01*
X99566303Y-77270595D01*
X99646185Y-77007260D01*
X99673158Y-76733400D01*
X99646185Y-76459540D01*
X99566303Y-76196205D01*
X99436582Y-75953513D01*
X99262007Y-75740792D01*
X99049286Y-75566217D01*
X98806594Y-75436496D01*
X98543259Y-75356614D01*
X98338024Y-75336400D01*
X98200774Y-75336400D01*
X97995539Y-75356614D01*
X97732204Y-75436496D01*
X97489512Y-75566217D01*
X97276791Y-75740792D01*
X97102216Y-75953513D01*
X96972495Y-76196205D01*
X96892613Y-76459540D01*
X96865640Y-76733400D01*
X93170758Y-76733400D01*
X93143785Y-76459540D01*
X93063903Y-76196205D01*
X92934182Y-75953513D01*
X92759607Y-75740792D01*
X92546886Y-75566217D01*
X92304194Y-75436496D01*
X92040859Y-75356614D01*
X91835624Y-75336400D01*
X91698374Y-75336400D01*
X91493139Y-75356614D01*
X91229804Y-75436496D01*
X90987112Y-75566217D01*
X90774391Y-75740792D01*
X90599816Y-75953513D01*
X90576000Y-75998070D01*
X90576000Y-71595581D01*
X90573251Y-71567668D01*
X90573272Y-71564633D01*
X90572372Y-71555462D01*
X90567238Y-71506616D01*
X90566450Y-71498617D01*
X90566369Y-71498350D01*
X90562008Y-71456860D01*
X90549984Y-71398286D01*
X90538771Y-71339504D01*
X90536107Y-71330683D01*
X90506789Y-71235973D01*
X90483636Y-71180895D01*
X90461202Y-71125368D01*
X90456875Y-71117232D01*
X90409720Y-71030020D01*
X90376270Y-70980429D01*
X90343514Y-70930371D01*
X90337689Y-70923230D01*
X90274493Y-70846838D01*
X90232058Y-70804699D01*
X90190195Y-70761949D01*
X90183094Y-70756075D01*
X90106263Y-70693413D01*
X90056467Y-70660329D01*
X90007079Y-70626512D01*
X89998973Y-70622130D01*
X89911434Y-70575585D01*
X89856159Y-70552803D01*
X89801149Y-70529225D01*
X89792346Y-70526500D01*
X89697432Y-70497844D01*
X89638752Y-70486225D01*
X89580242Y-70473788D01*
X89571077Y-70472825D01*
X89472406Y-70463150D01*
X89472402Y-70463150D01*
X89440419Y-70460000D01*
X85242000Y-70460000D01*
X85242000Y-68570410D01*
X85303450Y-68682187D01*
X85579942Y-69011698D01*
X85915171Y-69281229D01*
X86296367Y-69480513D01*
X86709012Y-69601961D01*
X87137387Y-69640946D01*
X87565176Y-69595984D01*
X87976084Y-69468786D01*
X88354461Y-69264199D01*
X88685894Y-68990014D01*
X88957758Y-68656675D01*
X89159699Y-68276879D01*
X89284025Y-67865093D01*
X89326000Y-67437000D01*
X89325141Y-67375461D01*
X89271229Y-66948707D01*
X89135454Y-66540552D01*
X88922987Y-66166543D01*
X88813758Y-66040000D01*
X91090815Y-66040000D01*
X91119487Y-66331111D01*
X91204401Y-66611034D01*
X91342294Y-66869014D01*
X91527866Y-67095134D01*
X91557687Y-67119607D01*
X91488820Y-67140498D01*
X91378506Y-67199463D01*
X91281815Y-67278815D01*
X91202463Y-67375506D01*
X91143498Y-67485820D01*
X91107188Y-67605518D01*
X91094928Y-67730000D01*
X91094928Y-69430000D01*
X91107188Y-69554482D01*
X91143498Y-69674180D01*
X91202463Y-69784494D01*
X91281815Y-69881185D01*
X91378506Y-69960537D01*
X91488820Y-70019502D01*
X91608518Y-70055812D01*
X91733000Y-70068072D01*
X93433000Y-70068072D01*
X93557482Y-70055812D01*
X93677180Y-70019502D01*
X93787494Y-69960537D01*
X93884185Y-69881185D01*
X93963537Y-69784494D01*
X94022502Y-69674180D01*
X94043393Y-69605313D01*
X94067866Y-69635134D01*
X94293986Y-69820706D01*
X94551966Y-69958599D01*
X94831889Y-70043513D01*
X95050050Y-70065000D01*
X95195950Y-70065000D01*
X95414111Y-70043513D01*
X95694034Y-69958599D01*
X95952014Y-69820706D01*
X96178134Y-69635134D01*
X96363706Y-69409014D01*
X96393000Y-69354209D01*
X96422294Y-69409014D01*
X96607866Y-69635134D01*
X96833986Y-69820706D01*
X97091966Y-69958599D01*
X97371889Y-70043513D01*
X97590050Y-70065000D01*
X97735950Y-70065000D01*
X97954111Y-70043513D01*
X98234034Y-69958599D01*
X98492014Y-69820706D01*
X98718134Y-69635134D01*
X98903706Y-69409014D01*
X98933000Y-69354209D01*
X98962294Y-69409014D01*
X99147866Y-69635134D01*
X99373986Y-69820706D01*
X99631966Y-69958599D01*
X99911889Y-70043513D01*
X100130050Y-70065000D01*
X100275950Y-70065000D01*
X100494111Y-70043513D01*
X100774034Y-69958599D01*
X101032014Y-69820706D01*
X101258134Y-69635134D01*
X101443706Y-69409014D01*
X101478201Y-69344477D01*
X101547822Y-69461355D01*
X101742731Y-69677588D01*
X101976080Y-69851641D01*
X102238901Y-69976825D01*
X102386110Y-70021476D01*
X102616000Y-69900155D01*
X102616000Y-68707000D01*
X102596000Y-68707000D01*
X102596000Y-68453000D01*
X102616000Y-68453000D01*
X102616000Y-68433000D01*
X102870000Y-68433000D01*
X102870000Y-68453000D01*
X102890000Y-68453000D01*
X102890000Y-68707000D01*
X102870000Y-68707000D01*
X102870000Y-69900155D01*
X103099890Y-70021476D01*
X103247099Y-69976825D01*
X103509920Y-69851641D01*
X103743269Y-69677588D01*
X103938178Y-69461355D01*
X104007799Y-69344477D01*
X104042294Y-69409014D01*
X104227866Y-69635134D01*
X104453986Y-69820706D01*
X104711966Y-69958599D01*
X104991889Y-70043513D01*
X105210050Y-70065000D01*
X105355950Y-70065000D01*
X105574111Y-70043513D01*
X105854034Y-69958599D01*
X106112014Y-69820706D01*
X106338134Y-69635134D01*
X106523706Y-69409014D01*
X106553000Y-69354209D01*
X106582294Y-69409014D01*
X106767866Y-69635134D01*
X106993986Y-69820706D01*
X107251966Y-69958599D01*
X107531889Y-70043513D01*
X107750050Y-70065000D01*
X107895950Y-70065000D01*
X108114111Y-70043513D01*
X108394034Y-69958599D01*
X108652014Y-69820706D01*
X108878134Y-69635134D01*
X109063706Y-69409014D01*
X109093000Y-69354209D01*
X109122294Y-69409014D01*
X109307866Y-69635134D01*
X109533986Y-69820706D01*
X109791966Y-69958599D01*
X110071889Y-70043513D01*
X110290050Y-70065000D01*
X110435950Y-70065000D01*
X110654111Y-70043513D01*
X110934034Y-69958599D01*
X111192014Y-69820706D01*
X111418134Y-69635134D01*
X111603706Y-69409014D01*
X111741599Y-69151034D01*
X111826513Y-68871111D01*
X111855185Y-68580000D01*
X111826513Y-68288889D01*
X111741599Y-68008966D01*
X111603706Y-67750986D01*
X111418134Y-67524866D01*
X111192014Y-67339294D01*
X111137209Y-67310000D01*
X111192014Y-67280706D01*
X111418134Y-67095134D01*
X111603706Y-66869014D01*
X111741599Y-66611034D01*
X111826513Y-66331111D01*
X111855185Y-66040000D01*
X111826513Y-65748889D01*
X111741599Y-65468966D01*
X111603706Y-65210986D01*
X111418134Y-64984866D01*
X111192014Y-64799294D01*
X110934034Y-64661401D01*
X110654111Y-64576487D01*
X110435950Y-64555000D01*
X110290050Y-64555000D01*
X110071889Y-64576487D01*
X109791966Y-64661401D01*
X109533986Y-64799294D01*
X109307866Y-64984866D01*
X109122294Y-65210986D01*
X109093000Y-65265791D01*
X109063706Y-65210986D01*
X108878134Y-64984866D01*
X108652014Y-64799294D01*
X108394034Y-64661401D01*
X108114111Y-64576487D01*
X107895950Y-64555000D01*
X107750050Y-64555000D01*
X107531889Y-64576487D01*
X107251966Y-64661401D01*
X106993986Y-64799294D01*
X106767866Y-64984866D01*
X106582294Y-65210986D01*
X106553000Y-65265791D01*
X106523706Y-65210986D01*
X106338134Y-64984866D01*
X106112014Y-64799294D01*
X105854034Y-64661401D01*
X105574111Y-64576487D01*
X105355950Y-64555000D01*
X105210050Y-64555000D01*
X104991889Y-64576487D01*
X104711966Y-64661401D01*
X104453986Y-64799294D01*
X104227866Y-64984866D01*
X104042294Y-65210986D01*
X104013000Y-65265791D01*
X103983706Y-65210986D01*
X103798134Y-64984866D01*
X103572014Y-64799294D01*
X103314034Y-64661401D01*
X103034111Y-64576487D01*
X102815950Y-64555000D01*
X102670050Y-64555000D01*
X102451889Y-64576487D01*
X102171966Y-64661401D01*
X101913986Y-64799294D01*
X101687866Y-64984866D01*
X101502294Y-65210986D01*
X101473000Y-65265791D01*
X101443706Y-65210986D01*
X101258134Y-64984866D01*
X101032014Y-64799294D01*
X100774034Y-64661401D01*
X100494111Y-64576487D01*
X100275950Y-64555000D01*
X100130050Y-64555000D01*
X99911889Y-64576487D01*
X99631966Y-64661401D01*
X99373986Y-64799294D01*
X99147866Y-64984866D01*
X98962294Y-65210986D01*
X98927799Y-65275523D01*
X98858178Y-65158645D01*
X98663269Y-64942412D01*
X98429920Y-64768359D01*
X98167099Y-64643175D01*
X98019890Y-64598524D01*
X97790000Y-64719845D01*
X97790000Y-65913000D01*
X97810000Y-65913000D01*
X97810000Y-66167000D01*
X97790000Y-66167000D01*
X97790000Y-66187000D01*
X97536000Y-66187000D01*
X97536000Y-66167000D01*
X97516000Y-66167000D01*
X97516000Y-65913000D01*
X97536000Y-65913000D01*
X97536000Y-64719845D01*
X97306110Y-64598524D01*
X97158901Y-64643175D01*
X96896080Y-64768359D01*
X96662731Y-64942412D01*
X96467822Y-65158645D01*
X96398201Y-65275523D01*
X96363706Y-65210986D01*
X96178134Y-64984866D01*
X95952014Y-64799294D01*
X95694034Y-64661401D01*
X95414111Y-64576487D01*
X95195950Y-64555000D01*
X95050050Y-64555000D01*
X94831889Y-64576487D01*
X94551966Y-64661401D01*
X94293986Y-64799294D01*
X94067866Y-64984866D01*
X93882294Y-65210986D01*
X93853000Y-65265791D01*
X93823706Y-65210986D01*
X93638134Y-64984866D01*
X93412014Y-64799294D01*
X93154034Y-64661401D01*
X92874111Y-64576487D01*
X92655950Y-64555000D01*
X92510050Y-64555000D01*
X92291889Y-64576487D01*
X92011966Y-64661401D01*
X91753986Y-64799294D01*
X91527866Y-64984866D01*
X91342294Y-65210986D01*
X91204401Y-65468966D01*
X91119487Y-65748889D01*
X91090815Y-66040000D01*
X88813758Y-66040000D01*
X88641921Y-65840925D01*
X88302962Y-65576101D01*
X87919021Y-65382158D01*
X87504721Y-65266484D01*
X87075843Y-65233483D01*
X86648723Y-65284414D01*
X86239631Y-65417337D01*
X85864147Y-65627187D01*
X85536575Y-65905973D01*
X85269391Y-66243075D01*
X85242000Y-66296372D01*
X85242000Y-64414000D01*
X111862000Y-64414000D01*
X111862001Y-82398000D01*
X111862001Y-82398000D01*
G37*
X111862001Y-82398000D02*
X99078266Y-82398000D01*
X99262007Y-82247208D01*
X99436582Y-82034487D01*
X99566303Y-81791795D01*
X99646185Y-81528460D01*
X99673158Y-81254600D01*
X99646185Y-80980740D01*
X99566303Y-80717405D01*
X99543900Y-80675491D01*
X101308519Y-80675491D01*
X101405843Y-80949852D01*
X101554822Y-81199955D01*
X101749731Y-81416188D01*
X101983080Y-81590241D01*
X102245901Y-81715425D01*
X102393110Y-81760076D01*
X102623000Y-81638755D01*
X102623000Y-80445600D01*
X101429186Y-80445600D01*
X101308519Y-80675491D01*
X99543900Y-80675491D01*
X99436582Y-80474713D01*
X99262007Y-80261992D01*
X99049286Y-80087417D01*
X98814102Y-79961709D01*
X101308519Y-79961709D01*
X101429186Y-80191600D01*
X102623000Y-80191600D01*
X102623000Y-78998445D01*
X102877000Y-78998445D01*
X102877000Y-80191600D01*
X102897000Y-80191600D01*
X102897000Y-80445600D01*
X102877000Y-80445600D01*
X102877000Y-81638755D01*
X103106890Y-81760076D01*
X103254099Y-81715425D01*
X103516920Y-81590241D01*
X103750269Y-81416188D01*
X103945178Y-81199955D01*
X104014799Y-81083077D01*
X104049294Y-81147614D01*
X104234866Y-81373734D01*
X104460986Y-81559306D01*
X104718966Y-81697199D01*
X104998889Y-81782113D01*
X105217050Y-81803600D01*
X105362950Y-81803600D01*
X105581111Y-81782113D01*
X105861034Y-81697199D01*
X106119014Y-81559306D01*
X106345134Y-81373734D01*
X106530706Y-81147614D01*
X106560000Y-81092809D01*
X106589294Y-81147614D01*
X106774866Y-81373734D01*
X107000986Y-81559306D01*
X107258966Y-81697199D01*
X107538889Y-81782113D01*
X107757050Y-81803600D01*
X107902950Y-81803600D01*
X108121111Y-81782113D01*
X108401034Y-81697199D01*
X108659014Y-81559306D01*
X108885134Y-81373734D01*
X108909607Y-81343913D01*
X108930498Y-81412780D01*
X108989463Y-81523094D01*
X109068815Y-81619785D01*
X109165506Y-81699137D01*
X109275820Y-81758102D01*
X109395518Y-81794412D01*
X109520000Y-81806672D01*
X111220000Y-81806672D01*
X111344482Y-81794412D01*
X111464180Y-81758102D01*
X111574494Y-81699137D01*
X111671185Y-81619785D01*
X111750537Y-81523094D01*
X111809502Y-81412780D01*
X111845812Y-81293082D01*
X111858072Y-81168600D01*
X111858072Y-79468600D01*
X111845812Y-79344118D01*
X111809502Y-79224420D01*
X111750537Y-79114106D01*
X111671185Y-79017415D01*
X111574494Y-78938063D01*
X111464180Y-78879098D01*
X111344482Y-78842788D01*
X111220000Y-78830528D01*
X109520000Y-78830528D01*
X109395518Y-78842788D01*
X109275820Y-78879098D01*
X109165506Y-78938063D01*
X109068815Y-79017415D01*
X108989463Y-79114106D01*
X108930498Y-79224420D01*
X108909607Y-79293287D01*
X108885134Y-79263466D01*
X108659014Y-79077894D01*
X108401034Y-78940001D01*
X108121111Y-78855087D01*
X107902950Y-78833600D01*
X107757050Y-78833600D01*
X107538889Y-78855087D01*
X107258966Y-78940001D01*
X107000986Y-79077894D01*
X106774866Y-79263466D01*
X106589294Y-79489586D01*
X106560000Y-79544391D01*
X106530706Y-79489586D01*
X106345134Y-79263466D01*
X106119014Y-79077894D01*
X105861034Y-78940001D01*
X105581111Y-78855087D01*
X105362950Y-78833600D01*
X105217050Y-78833600D01*
X104998889Y-78855087D01*
X104718966Y-78940001D01*
X104460986Y-79077894D01*
X104234866Y-79263466D01*
X104049294Y-79489586D01*
X104014799Y-79554123D01*
X103945178Y-79437245D01*
X103750269Y-79221012D01*
X103516920Y-79046959D01*
X103254099Y-78921775D01*
X103106890Y-78877124D01*
X102877000Y-78998445D01*
X102623000Y-78998445D01*
X102393110Y-78877124D01*
X102245901Y-78921775D01*
X101983080Y-79046959D01*
X101749731Y-79221012D01*
X101554822Y-79437245D01*
X101405843Y-79687348D01*
X101308519Y-79961709D01*
X98814102Y-79961709D01*
X98806594Y-79957696D01*
X98543259Y-79877814D01*
X98338024Y-79857600D01*
X98200774Y-79857600D01*
X97995539Y-79877814D01*
X97732204Y-79957696D01*
X97489512Y-80087417D01*
X97276791Y-80261992D01*
X97102216Y-80474713D01*
X96972495Y-80717405D01*
X96892613Y-80980740D01*
X96865640Y-81254600D01*
X96892613Y-81528460D01*
X96972495Y-81791795D01*
X97102216Y-82034487D01*
X97276791Y-82247208D01*
X97460532Y-82398000D01*
X92575866Y-82398000D01*
X92759607Y-82247208D01*
X92934182Y-82034487D01*
X93063903Y-81791795D01*
X93143785Y-81528460D01*
X93170758Y-81254600D01*
X93143785Y-80980740D01*
X93063903Y-80717405D01*
X92934182Y-80474713D01*
X92759607Y-80261992D01*
X92546886Y-80087417D01*
X92304194Y-79957696D01*
X92040859Y-79877814D01*
X91835624Y-79857600D01*
X91698374Y-79857600D01*
X91493139Y-79877814D01*
X91229804Y-79957696D01*
X90987112Y-80087417D01*
X90774391Y-80261992D01*
X90599816Y-80474713D01*
X90576000Y-80519270D01*
X90576000Y-77468730D01*
X90599816Y-77513287D01*
X90774391Y-77726008D01*
X90987112Y-77900583D01*
X91229804Y-78030304D01*
X91493139Y-78110186D01*
X91698374Y-78130400D01*
X91835624Y-78130400D01*
X92040859Y-78110186D01*
X92304194Y-78030304D01*
X92546886Y-77900583D01*
X92759607Y-77726008D01*
X92934182Y-77513287D01*
X93063903Y-77270595D01*
X93143785Y-77007260D01*
X93170758Y-76733400D01*
X96865640Y-76733400D01*
X96892613Y-77007260D01*
X96972495Y-77270595D01*
X97102216Y-77513287D01*
X97276791Y-77726008D01*
X97489512Y-77900583D01*
X97732204Y-78030304D01*
X97995539Y-78110186D01*
X98200774Y-78130400D01*
X98338024Y-78130400D01*
X98543259Y-78110186D01*
X98806594Y-78030304D01*
X99049286Y-77900583D01*
X99262007Y-77726008D01*
X99436582Y-77513287D01*
X99566303Y-77270595D01*
X99646185Y-77007260D01*
X99673158Y-76733400D01*
X99646185Y-76459540D01*
X99566303Y-76196205D01*
X99436582Y-75953513D01*
X99262007Y-75740792D01*
X99049286Y-75566217D01*
X98806594Y-75436496D01*
X98543259Y-75356614D01*
X98338024Y-75336400D01*
X98200774Y-75336400D01*
X97995539Y-75356614D01*
X97732204Y-75436496D01*
X97489512Y-75566217D01*
X97276791Y-75740792D01*
X97102216Y-75953513D01*
X96972495Y-76196205D01*
X96892613Y-76459540D01*
X96865640Y-76733400D01*
X93170758Y-76733400D01*
X93143785Y-76459540D01*
X93063903Y-76196205D01*
X92934182Y-75953513D01*
X92759607Y-75740792D01*
X92546886Y-75566217D01*
X92304194Y-75436496D01*
X92040859Y-75356614D01*
X91835624Y-75336400D01*
X91698374Y-75336400D01*
X91493139Y-75356614D01*
X91229804Y-75436496D01*
X90987112Y-75566217D01*
X90774391Y-75740792D01*
X90599816Y-75953513D01*
X90576000Y-75998070D01*
X90576000Y-71595581D01*
X90573251Y-71567668D01*
X90573272Y-71564633D01*
X90572372Y-71555462D01*
X90567238Y-71506616D01*
X90566450Y-71498617D01*
X90566369Y-71498350D01*
X90562008Y-71456860D01*
X90549984Y-71398286D01*
X90538771Y-71339504D01*
X90536107Y-71330683D01*
X90506789Y-71235973D01*
X90483636Y-71180895D01*
X90461202Y-71125368D01*
X90456875Y-71117232D01*
X90409720Y-71030020D01*
X90376270Y-70980429D01*
X90343514Y-70930371D01*
X90337689Y-70923230D01*
X90274493Y-70846838D01*
X90232058Y-70804699D01*
X90190195Y-70761949D01*
X90183094Y-70756075D01*
X90106263Y-70693413D01*
X90056467Y-70660329D01*
X90007079Y-70626512D01*
X89998973Y-70622130D01*
X89911434Y-70575585D01*
X89856159Y-70552803D01*
X89801149Y-70529225D01*
X89792346Y-70526500D01*
X89697432Y-70497844D01*
X89638752Y-70486225D01*
X89580242Y-70473788D01*
X89571077Y-70472825D01*
X89472406Y-70463150D01*
X89472402Y-70463150D01*
X89440419Y-70460000D01*
X85242000Y-70460000D01*
X85242000Y-68570410D01*
X85303450Y-68682187D01*
X85579942Y-69011698D01*
X85915171Y-69281229D01*
X86296367Y-69480513D01*
X86709012Y-69601961D01*
X87137387Y-69640946D01*
X87565176Y-69595984D01*
X87976084Y-69468786D01*
X88354461Y-69264199D01*
X88685894Y-68990014D01*
X88957758Y-68656675D01*
X89159699Y-68276879D01*
X89284025Y-67865093D01*
X89326000Y-67437000D01*
X89325141Y-67375461D01*
X89271229Y-66948707D01*
X89135454Y-66540552D01*
X88922987Y-66166543D01*
X88813758Y-66040000D01*
X91090815Y-66040000D01*
X91119487Y-66331111D01*
X91204401Y-66611034D01*
X91342294Y-66869014D01*
X91527866Y-67095134D01*
X91557687Y-67119607D01*
X91488820Y-67140498D01*
X91378506Y-67199463D01*
X91281815Y-67278815D01*
X91202463Y-67375506D01*
X91143498Y-67485820D01*
X91107188Y-67605518D01*
X91094928Y-67730000D01*
X91094928Y-69430000D01*
X91107188Y-69554482D01*
X91143498Y-69674180D01*
X91202463Y-69784494D01*
X91281815Y-69881185D01*
X91378506Y-69960537D01*
X91488820Y-70019502D01*
X91608518Y-70055812D01*
X91733000Y-70068072D01*
X93433000Y-70068072D01*
X93557482Y-70055812D01*
X93677180Y-70019502D01*
X93787494Y-69960537D01*
X93884185Y-69881185D01*
X93963537Y-69784494D01*
X94022502Y-69674180D01*
X94043393Y-69605313D01*
X94067866Y-69635134D01*
X94293986Y-69820706D01*
X94551966Y-69958599D01*
X94831889Y-70043513D01*
X95050050Y-70065000D01*
X95195950Y-70065000D01*
X95414111Y-70043513D01*
X95694034Y-69958599D01*
X95952014Y-69820706D01*
X96178134Y-69635134D01*
X96363706Y-69409014D01*
X96393000Y-69354209D01*
X96422294Y-69409014D01*
X96607866Y-69635134D01*
X96833986Y-69820706D01*
X97091966Y-69958599D01*
X97371889Y-70043513D01*
X97590050Y-70065000D01*
X97735950Y-70065000D01*
X97954111Y-70043513D01*
X98234034Y-69958599D01*
X98492014Y-69820706D01*
X98718134Y-69635134D01*
X98903706Y-69409014D01*
X98933000Y-69354209D01*
X98962294Y-69409014D01*
X99147866Y-69635134D01*
X99373986Y-69820706D01*
X99631966Y-69958599D01*
X99911889Y-70043513D01*
X100130050Y-70065000D01*
X100275950Y-70065000D01*
X100494111Y-70043513D01*
X100774034Y-69958599D01*
X101032014Y-69820706D01*
X101258134Y-69635134D01*
X101443706Y-69409014D01*
X101478201Y-69344477D01*
X101547822Y-69461355D01*
X101742731Y-69677588D01*
X101976080Y-69851641D01*
X102238901Y-69976825D01*
X102386110Y-70021476D01*
X102616000Y-69900155D01*
X102616000Y-68707000D01*
X102596000Y-68707000D01*
X102596000Y-68453000D01*
X102616000Y-68453000D01*
X102616000Y-68433000D01*
X102870000Y-68433000D01*
X102870000Y-68453000D01*
X102890000Y-68453000D01*
X102890000Y-68707000D01*
X102870000Y-68707000D01*
X102870000Y-69900155D01*
X103099890Y-70021476D01*
X103247099Y-69976825D01*
X103509920Y-69851641D01*
X103743269Y-69677588D01*
X103938178Y-69461355D01*
X104007799Y-69344477D01*
X104042294Y-69409014D01*
X104227866Y-69635134D01*
X104453986Y-69820706D01*
X104711966Y-69958599D01*
X104991889Y-70043513D01*
X105210050Y-70065000D01*
X105355950Y-70065000D01*
X105574111Y-70043513D01*
X105854034Y-69958599D01*
X106112014Y-69820706D01*
X106338134Y-69635134D01*
X106523706Y-69409014D01*
X106553000Y-69354209D01*
X106582294Y-69409014D01*
X106767866Y-69635134D01*
X106993986Y-69820706D01*
X107251966Y-69958599D01*
X107531889Y-70043513D01*
X107750050Y-70065000D01*
X107895950Y-70065000D01*
X108114111Y-70043513D01*
X108394034Y-69958599D01*
X108652014Y-69820706D01*
X108878134Y-69635134D01*
X109063706Y-69409014D01*
X109093000Y-69354209D01*
X109122294Y-69409014D01*
X109307866Y-69635134D01*
X109533986Y-69820706D01*
X109791966Y-69958599D01*
X110071889Y-70043513D01*
X110290050Y-70065000D01*
X110435950Y-70065000D01*
X110654111Y-70043513D01*
X110934034Y-69958599D01*
X111192014Y-69820706D01*
X111418134Y-69635134D01*
X111603706Y-69409014D01*
X111741599Y-69151034D01*
X111826513Y-68871111D01*
X111855185Y-68580000D01*
X111826513Y-68288889D01*
X111741599Y-68008966D01*
X111603706Y-67750986D01*
X111418134Y-67524866D01*
X111192014Y-67339294D01*
X111137209Y-67310000D01*
X111192014Y-67280706D01*
X111418134Y-67095134D01*
X111603706Y-66869014D01*
X111741599Y-66611034D01*
X111826513Y-66331111D01*
X111855185Y-66040000D01*
X111826513Y-65748889D01*
X111741599Y-65468966D01*
X111603706Y-65210986D01*
X111418134Y-64984866D01*
X111192014Y-64799294D01*
X110934034Y-64661401D01*
X110654111Y-64576487D01*
X110435950Y-64555000D01*
X110290050Y-64555000D01*
X110071889Y-64576487D01*
X109791966Y-64661401D01*
X109533986Y-64799294D01*
X109307866Y-64984866D01*
X109122294Y-65210986D01*
X109093000Y-65265791D01*
X109063706Y-65210986D01*
X108878134Y-64984866D01*
X108652014Y-64799294D01*
X108394034Y-64661401D01*
X108114111Y-64576487D01*
X107895950Y-64555000D01*
X107750050Y-64555000D01*
X107531889Y-64576487D01*
X107251966Y-64661401D01*
X106993986Y-64799294D01*
X106767866Y-64984866D01*
X106582294Y-65210986D01*
X106553000Y-65265791D01*
X106523706Y-65210986D01*
X106338134Y-64984866D01*
X106112014Y-64799294D01*
X105854034Y-64661401D01*
X105574111Y-64576487D01*
X105355950Y-64555000D01*
X105210050Y-64555000D01*
X104991889Y-64576487D01*
X104711966Y-64661401D01*
X104453986Y-64799294D01*
X104227866Y-64984866D01*
X104042294Y-65210986D01*
X104013000Y-65265791D01*
X103983706Y-65210986D01*
X103798134Y-64984866D01*
X103572014Y-64799294D01*
X103314034Y-64661401D01*
X103034111Y-64576487D01*
X102815950Y-64555000D01*
X102670050Y-64555000D01*
X102451889Y-64576487D01*
X102171966Y-64661401D01*
X101913986Y-64799294D01*
X101687866Y-64984866D01*
X101502294Y-65210986D01*
X101473000Y-65265791D01*
X101443706Y-65210986D01*
X101258134Y-64984866D01*
X101032014Y-64799294D01*
X100774034Y-64661401D01*
X100494111Y-64576487D01*
X100275950Y-64555000D01*
X100130050Y-64555000D01*
X99911889Y-64576487D01*
X99631966Y-64661401D01*
X99373986Y-64799294D01*
X99147866Y-64984866D01*
X98962294Y-65210986D01*
X98927799Y-65275523D01*
X98858178Y-65158645D01*
X98663269Y-64942412D01*
X98429920Y-64768359D01*
X98167099Y-64643175D01*
X98019890Y-64598524D01*
X97790000Y-64719845D01*
X97790000Y-65913000D01*
X97810000Y-65913000D01*
X97810000Y-66167000D01*
X97790000Y-66167000D01*
X97790000Y-66187000D01*
X97536000Y-66187000D01*
X97536000Y-66167000D01*
X97516000Y-66167000D01*
X97516000Y-65913000D01*
X97536000Y-65913000D01*
X97536000Y-64719845D01*
X97306110Y-64598524D01*
X97158901Y-64643175D01*
X96896080Y-64768359D01*
X96662731Y-64942412D01*
X96467822Y-65158645D01*
X96398201Y-65275523D01*
X96363706Y-65210986D01*
X96178134Y-64984866D01*
X95952014Y-64799294D01*
X95694034Y-64661401D01*
X95414111Y-64576487D01*
X95195950Y-64555000D01*
X95050050Y-64555000D01*
X94831889Y-64576487D01*
X94551966Y-64661401D01*
X94293986Y-64799294D01*
X94067866Y-64984866D01*
X93882294Y-65210986D01*
X93853000Y-65265791D01*
X93823706Y-65210986D01*
X93638134Y-64984866D01*
X93412014Y-64799294D01*
X93154034Y-64661401D01*
X92874111Y-64576487D01*
X92655950Y-64555000D01*
X92510050Y-64555000D01*
X92291889Y-64576487D01*
X92011966Y-64661401D01*
X91753986Y-64799294D01*
X91527866Y-64984866D01*
X91342294Y-65210986D01*
X91204401Y-65468966D01*
X91119487Y-65748889D01*
X91090815Y-66040000D01*
X88813758Y-66040000D01*
X88641921Y-65840925D01*
X88302962Y-65576101D01*
X87919021Y-65382158D01*
X87504721Y-65266484D01*
X87075843Y-65233483D01*
X86648723Y-65284414D01*
X86239631Y-65417337D01*
X85864147Y-65627187D01*
X85536575Y-65905973D01*
X85269391Y-66243075D01*
X85242000Y-66296372D01*
X85242000Y-64414000D01*
X111862000Y-64414000D01*
X111862001Y-82398000D01*
M02*
