G04 #@! TF.GenerationSoftware,KiCad,Pcbnew,(5.1.2)-1*
G04 #@! TF.CreationDate,2019-05-14T16:37:42-04:00*
G04 #@! TF.ProjectId,RaspberryPiHat,52617370-6265-4727-9279-50694861742e,1*
G04 #@! TF.SameCoordinates,Original*
G04 #@! TF.FileFunction,Legend,Bot*
G04 #@! TF.FilePolarity,Positive*
%FSLAX46Y46*%
G04 Gerber Fmt 4.6, Leading zero omitted, Abs format (unit mm)*
G04 Created by KiCad (PCBNEW (5.1.2)-1) date 2019-05-14 16:37:42*
%MOMM*%
%LPD*%
G04 APERTURE LIST*
%ADD10C,0.175000*%
%ADD11C,0.010000*%
G04 APERTURE END LIST*
D10*
X110738250Y-75791500D02*
X110638250Y-75824833D01*
X110604916Y-75858166D01*
X110571583Y-75924833D01*
X110571583Y-76024833D01*
X110604916Y-76091500D01*
X110638250Y-76124833D01*
X110704916Y-76158166D01*
X110971583Y-76158166D01*
X110971583Y-75458166D01*
X110738250Y-75458166D01*
X110671583Y-75491500D01*
X110638250Y-75524833D01*
X110604916Y-75591500D01*
X110604916Y-75658166D01*
X110638250Y-75724833D01*
X110671583Y-75758166D01*
X110738250Y-75791500D01*
X110971583Y-75791500D01*
X109971583Y-75691500D02*
X109971583Y-76158166D01*
X110271583Y-75691500D02*
X110271583Y-76058166D01*
X110238250Y-76124833D01*
X110171583Y-76158166D01*
X110071583Y-76158166D01*
X110004916Y-76124833D01*
X109971583Y-76091500D01*
X109738250Y-75691500D02*
X109471583Y-75691500D01*
X109638250Y-75458166D02*
X109638250Y-76058166D01*
X109604916Y-76124833D01*
X109538250Y-76158166D01*
X109471583Y-76158166D01*
X109338250Y-75691500D02*
X109071583Y-75691500D01*
X109238250Y-75458166D02*
X109238250Y-76058166D01*
X109204916Y-76124833D01*
X109138250Y-76158166D01*
X109071583Y-76158166D01*
X108738250Y-76158166D02*
X108804916Y-76124833D01*
X108838250Y-76091500D01*
X108871583Y-76024833D01*
X108871583Y-75824833D01*
X108838250Y-75758166D01*
X108804916Y-75724833D01*
X108738250Y-75691500D01*
X108638250Y-75691500D01*
X108571583Y-75724833D01*
X108538250Y-75758166D01*
X108504916Y-75824833D01*
X108504916Y-76024833D01*
X108538250Y-76091500D01*
X108571583Y-76124833D01*
X108638250Y-76158166D01*
X108738250Y-76158166D01*
X108204916Y-75691500D02*
X108204916Y-76158166D01*
X108204916Y-75758166D02*
X108171583Y-75724833D01*
X108104916Y-75691500D01*
X108004916Y-75691500D01*
X107938250Y-75724833D01*
X107904916Y-75791500D01*
X107904916Y-76158166D01*
X107571583Y-76091500D02*
X107538250Y-76124833D01*
X107571583Y-76158166D01*
X107604916Y-76124833D01*
X107571583Y-76091500D01*
X107571583Y-76158166D01*
X107571583Y-75724833D02*
X107538250Y-75758166D01*
X107571583Y-75791500D01*
X107604916Y-75758166D01*
X107571583Y-75724833D01*
X107571583Y-75791500D01*
X106338250Y-75491500D02*
X106404916Y-75458166D01*
X106504916Y-75458166D01*
X106604916Y-75491500D01*
X106671583Y-75558166D01*
X106704916Y-75624833D01*
X106738250Y-75758166D01*
X106738250Y-75858166D01*
X106704916Y-75991500D01*
X106671583Y-76058166D01*
X106604916Y-76124833D01*
X106504916Y-76158166D01*
X106438250Y-76158166D01*
X106338250Y-76124833D01*
X106304916Y-76091500D01*
X106304916Y-75858166D01*
X106438250Y-75858166D01*
X106004916Y-76158166D02*
X106004916Y-75458166D01*
X105738250Y-75458166D01*
X105671583Y-75491500D01*
X105638250Y-75524833D01*
X105604916Y-75591500D01*
X105604916Y-75691500D01*
X105638250Y-75758166D01*
X105671583Y-75791500D01*
X105738250Y-75824833D01*
X106004916Y-75824833D01*
X105304916Y-76158166D02*
X105304916Y-75458166D01*
X104838250Y-75458166D02*
X104704916Y-75458166D01*
X104638250Y-75491500D01*
X104571583Y-75558166D01*
X104538250Y-75691500D01*
X104538250Y-75924833D01*
X104571583Y-76058166D01*
X104638250Y-76124833D01*
X104704916Y-76158166D01*
X104838250Y-76158166D01*
X104904916Y-76124833D01*
X104971583Y-76058166D01*
X105004916Y-75924833D01*
X105004916Y-75691500D01*
X104971583Y-75558166D01*
X104904916Y-75491500D01*
X104838250Y-75458166D01*
X103871583Y-76158166D02*
X104271583Y-76158166D01*
X104071583Y-76158166D02*
X104071583Y-75458166D01*
X104138250Y-75558166D01*
X104204916Y-75624833D01*
X104271583Y-75658166D01*
X103271583Y-75691500D02*
X103271583Y-76158166D01*
X103438250Y-75424833D02*
X103604916Y-75924833D01*
X103171583Y-75924833D01*
X110638250Y-77383166D02*
X110971583Y-77383166D01*
X110971583Y-76683166D01*
X110404916Y-77016500D02*
X110171583Y-77016500D01*
X110071583Y-77383166D02*
X110404916Y-77383166D01*
X110404916Y-76683166D01*
X110071583Y-76683166D01*
X109771583Y-77383166D02*
X109771583Y-76683166D01*
X109604916Y-76683166D01*
X109504916Y-76716500D01*
X109438250Y-76783166D01*
X109404916Y-76849833D01*
X109371583Y-76983166D01*
X109371583Y-77083166D01*
X109404916Y-77216500D01*
X109438250Y-77283166D01*
X109504916Y-77349833D01*
X109604916Y-77383166D01*
X109771583Y-77383166D01*
X109071583Y-77316500D02*
X109038250Y-77349833D01*
X109071583Y-77383166D01*
X109104916Y-77349833D01*
X109071583Y-77316500D01*
X109071583Y-77383166D01*
X109071583Y-76949833D02*
X109038250Y-76983166D01*
X109071583Y-77016500D01*
X109104916Y-76983166D01*
X109071583Y-76949833D01*
X109071583Y-77016500D01*
X107838250Y-76716500D02*
X107904916Y-76683166D01*
X108004916Y-76683166D01*
X108104916Y-76716500D01*
X108171583Y-76783166D01*
X108204916Y-76849833D01*
X108238250Y-76983166D01*
X108238250Y-77083166D01*
X108204916Y-77216500D01*
X108171583Y-77283166D01*
X108104916Y-77349833D01*
X108004916Y-77383166D01*
X107938250Y-77383166D01*
X107838250Y-77349833D01*
X107804916Y-77316500D01*
X107804916Y-77083166D01*
X107938250Y-77083166D01*
X107504916Y-77383166D02*
X107504916Y-76683166D01*
X107238250Y-76683166D01*
X107171583Y-76716500D01*
X107138250Y-76749833D01*
X107104916Y-76816500D01*
X107104916Y-76916500D01*
X107138250Y-76983166D01*
X107171583Y-77016500D01*
X107238250Y-77049833D01*
X107504916Y-77049833D01*
X106804916Y-77383166D02*
X106804916Y-76683166D01*
X106338250Y-76683166D02*
X106204916Y-76683166D01*
X106138250Y-76716500D01*
X106071583Y-76783166D01*
X106038250Y-76916500D01*
X106038250Y-77149833D01*
X106071583Y-77283166D01*
X106138250Y-77349833D01*
X106204916Y-77383166D01*
X106338250Y-77383166D01*
X106404916Y-77349833D01*
X106471583Y-77283166D01*
X106504916Y-77149833D01*
X106504916Y-76916500D01*
X106471583Y-76783166D01*
X106404916Y-76716500D01*
X106338250Y-76683166D01*
X105438250Y-76916500D02*
X105438250Y-77383166D01*
X105604916Y-76649833D02*
X105771583Y-77149833D01*
X105338250Y-77149833D01*
X110571583Y-71227666D02*
X110804916Y-70894333D01*
X110971583Y-71227666D02*
X110971583Y-70527666D01*
X110704916Y-70527666D01*
X110638250Y-70561000D01*
X110604916Y-70594333D01*
X110571583Y-70661000D01*
X110571583Y-70761000D01*
X110604916Y-70827666D01*
X110638250Y-70861000D01*
X110704916Y-70894333D01*
X110971583Y-70894333D01*
X109971583Y-71227666D02*
X109971583Y-70861000D01*
X110004916Y-70794333D01*
X110071583Y-70761000D01*
X110204916Y-70761000D01*
X110271583Y-70794333D01*
X109971583Y-71194333D02*
X110038250Y-71227666D01*
X110204916Y-71227666D01*
X110271583Y-71194333D01*
X110304916Y-71127666D01*
X110304916Y-71061000D01*
X110271583Y-70994333D01*
X110204916Y-70961000D01*
X110038250Y-70961000D01*
X109971583Y-70927666D01*
X109671583Y-71194333D02*
X109604916Y-71227666D01*
X109471583Y-71227666D01*
X109404916Y-71194333D01*
X109371583Y-71127666D01*
X109371583Y-71094333D01*
X109404916Y-71027666D01*
X109471583Y-70994333D01*
X109571583Y-70994333D01*
X109638250Y-70961000D01*
X109671583Y-70894333D01*
X109671583Y-70861000D01*
X109638250Y-70794333D01*
X109571583Y-70761000D01*
X109471583Y-70761000D01*
X109404916Y-70794333D01*
X109071583Y-70761000D02*
X109071583Y-71461000D01*
X109071583Y-70794333D02*
X109004916Y-70761000D01*
X108871583Y-70761000D01*
X108804916Y-70794333D01*
X108771583Y-70827666D01*
X108738250Y-70894333D01*
X108738250Y-71094333D01*
X108771583Y-71161000D01*
X108804916Y-71194333D01*
X108871583Y-71227666D01*
X109004916Y-71227666D01*
X109071583Y-71194333D01*
X108438250Y-71227666D02*
X108438250Y-70527666D01*
X108438250Y-70794333D02*
X108371583Y-70761000D01*
X108238250Y-70761000D01*
X108171583Y-70794333D01*
X108138250Y-70827666D01*
X108104916Y-70894333D01*
X108104916Y-71094333D01*
X108138250Y-71161000D01*
X108171583Y-71194333D01*
X108238250Y-71227666D01*
X108371583Y-71227666D01*
X108438250Y-71194333D01*
X107538250Y-71194333D02*
X107604916Y-71227666D01*
X107738250Y-71227666D01*
X107804916Y-71194333D01*
X107838250Y-71127666D01*
X107838250Y-70861000D01*
X107804916Y-70794333D01*
X107738250Y-70761000D01*
X107604916Y-70761000D01*
X107538250Y-70794333D01*
X107504916Y-70861000D01*
X107504916Y-70927666D01*
X107838250Y-70994333D01*
X107204916Y-71227666D02*
X107204916Y-70761000D01*
X107204916Y-70894333D02*
X107171583Y-70827666D01*
X107138250Y-70794333D01*
X107071583Y-70761000D01*
X107004916Y-70761000D01*
X106771583Y-71227666D02*
X106771583Y-70761000D01*
X106771583Y-70894333D02*
X106738250Y-70827666D01*
X106704916Y-70794333D01*
X106638250Y-70761000D01*
X106571583Y-70761000D01*
X106404916Y-70761000D02*
X106238250Y-71227666D01*
X106071583Y-70761000D02*
X106238250Y-71227666D01*
X106304916Y-71394333D01*
X106338250Y-71427666D01*
X106404916Y-71461000D01*
X105271583Y-71227666D02*
X105271583Y-70527666D01*
X105004916Y-70527666D01*
X104938250Y-70561000D01*
X104904916Y-70594333D01*
X104871583Y-70661000D01*
X104871583Y-70761000D01*
X104904916Y-70827666D01*
X104938250Y-70861000D01*
X105004916Y-70894333D01*
X105271583Y-70894333D01*
X104571583Y-71227666D02*
X104571583Y-70761000D01*
X104571583Y-70527666D02*
X104604916Y-70561000D01*
X104571583Y-70594333D01*
X104538250Y-70561000D01*
X104571583Y-70527666D01*
X104571583Y-70594333D01*
X110738250Y-72086000D02*
X110971583Y-72086000D01*
X110971583Y-72452666D02*
X110971583Y-71752666D01*
X110638250Y-71752666D01*
X110071583Y-71986000D02*
X110071583Y-72452666D01*
X110371583Y-71986000D02*
X110371583Y-72352666D01*
X110338250Y-72419333D01*
X110271583Y-72452666D01*
X110171583Y-72452666D01*
X110104916Y-72419333D01*
X110071583Y-72386000D01*
X109638250Y-72452666D02*
X109704916Y-72419333D01*
X109738250Y-72352666D01*
X109738250Y-71752666D01*
X109271583Y-72452666D02*
X109338250Y-72419333D01*
X109371583Y-72352666D01*
X109371583Y-71752666D01*
X108504916Y-72419333D02*
X108404916Y-72452666D01*
X108238250Y-72452666D01*
X108171583Y-72419333D01*
X108138250Y-72386000D01*
X108104916Y-72319333D01*
X108104916Y-72252666D01*
X108138250Y-72186000D01*
X108171583Y-72152666D01*
X108238250Y-72119333D01*
X108371583Y-72086000D01*
X108438250Y-72052666D01*
X108471583Y-72019333D01*
X108504916Y-71952666D01*
X108504916Y-71886000D01*
X108471583Y-71819333D01*
X108438250Y-71786000D01*
X108371583Y-71752666D01*
X108204916Y-71752666D01*
X108104916Y-71786000D01*
X107904916Y-71986000D02*
X107638250Y-71986000D01*
X107804916Y-71752666D02*
X107804916Y-72352666D01*
X107771583Y-72419333D01*
X107704916Y-72452666D01*
X107638250Y-72452666D01*
X107104916Y-72452666D02*
X107104916Y-72086000D01*
X107138250Y-72019333D01*
X107204916Y-71986000D01*
X107338250Y-71986000D01*
X107404916Y-72019333D01*
X107104916Y-72419333D02*
X107171583Y-72452666D01*
X107338250Y-72452666D01*
X107404916Y-72419333D01*
X107438250Y-72352666D01*
X107438250Y-72286000D01*
X107404916Y-72219333D01*
X107338250Y-72186000D01*
X107171583Y-72186000D01*
X107104916Y-72152666D01*
X106471583Y-72419333D02*
X106538250Y-72452666D01*
X106671583Y-72452666D01*
X106738250Y-72419333D01*
X106771583Y-72386000D01*
X106804916Y-72319333D01*
X106804916Y-72119333D01*
X106771583Y-72052666D01*
X106738250Y-72019333D01*
X106671583Y-71986000D01*
X106538250Y-71986000D01*
X106471583Y-72019333D01*
X106171583Y-72452666D02*
X106171583Y-71752666D01*
X106104916Y-72186000D02*
X105904916Y-72452666D01*
X105904916Y-71986000D02*
X106171583Y-72252666D01*
X105071583Y-72452666D02*
X105071583Y-71752666D01*
X105071583Y-72086000D02*
X104671583Y-72086000D01*
X104671583Y-72452666D02*
X104671583Y-71752666D01*
X104038250Y-72452666D02*
X104038250Y-72086000D01*
X104071583Y-72019333D01*
X104138250Y-71986000D01*
X104271583Y-71986000D01*
X104338250Y-72019333D01*
X104038250Y-72419333D02*
X104104916Y-72452666D01*
X104271583Y-72452666D01*
X104338250Y-72419333D01*
X104371583Y-72352666D01*
X104371583Y-72286000D01*
X104338250Y-72219333D01*
X104271583Y-72186000D01*
X104104916Y-72186000D01*
X104038250Y-72152666D01*
X103804916Y-71986000D02*
X103538250Y-71986000D01*
X103704916Y-71752666D02*
X103704916Y-72352666D01*
X103671583Y-72419333D01*
X103604916Y-72452666D01*
X103538250Y-72452666D01*
X111071583Y-72977666D02*
X110838250Y-73677666D01*
X110604916Y-72977666D01*
X110104916Y-73644333D02*
X110171583Y-73677666D01*
X110304916Y-73677666D01*
X110371583Y-73644333D01*
X110404916Y-73577666D01*
X110404916Y-73311000D01*
X110371583Y-73244333D01*
X110304916Y-73211000D01*
X110171583Y-73211000D01*
X110104916Y-73244333D01*
X110071583Y-73311000D01*
X110071583Y-73377666D01*
X110404916Y-73444333D01*
X109771583Y-73677666D02*
X109771583Y-73211000D01*
X109771583Y-73344333D02*
X109738250Y-73277666D01*
X109704916Y-73244333D01*
X109638250Y-73211000D01*
X109571583Y-73211000D01*
X108438250Y-73677666D02*
X108838250Y-73677666D01*
X108638250Y-73677666D02*
X108638250Y-72977666D01*
X108704916Y-73077666D01*
X108771583Y-73144333D01*
X108838250Y-73177666D01*
X108138250Y-73611000D02*
X108104916Y-73644333D01*
X108138250Y-73677666D01*
X108171583Y-73644333D01*
X108138250Y-73611000D01*
X108138250Y-73677666D01*
X107671583Y-72977666D02*
X107604916Y-72977666D01*
X107538250Y-73011000D01*
X107504916Y-73044333D01*
X107471583Y-73111000D01*
X107438250Y-73244333D01*
X107438250Y-73411000D01*
X107471583Y-73544333D01*
X107504916Y-73611000D01*
X107538250Y-73644333D01*
X107604916Y-73677666D01*
X107671583Y-73677666D01*
X107738250Y-73644333D01*
X107771583Y-73611000D01*
X107804916Y-73544333D01*
X107838250Y-73411000D01*
X107838250Y-73244333D01*
X107804916Y-73111000D01*
X107771583Y-73044333D01*
X107738250Y-73011000D01*
X107671583Y-72977666D01*
D11*
G36*
X93746320Y-71511251D02*
G01*
X94203520Y-71511251D01*
X94203520Y-71054051D01*
X93746320Y-71054051D01*
X93746320Y-71511251D01*
X93746320Y-71511251D01*
G37*
X93746320Y-71511251D02*
X94203520Y-71511251D01*
X94203520Y-71054051D01*
X93746320Y-71054051D01*
X93746320Y-71511251D01*
G36*
X93141800Y-71353771D02*
G01*
X92537280Y-71353771D01*
X92537280Y-71810971D01*
X93141800Y-71810971D01*
X93141800Y-72258011D01*
X92994480Y-72258011D01*
X92994480Y-71958291D01*
X92537280Y-71958291D01*
X92537280Y-72715211D01*
X93599000Y-72715211D01*
X93599000Y-71054051D01*
X93141800Y-71054051D01*
X93141800Y-71353771D01*
X93141800Y-71353771D01*
G37*
X93141800Y-71353771D02*
X92537280Y-71353771D01*
X92537280Y-71810971D01*
X93141800Y-71810971D01*
X93141800Y-72258011D01*
X92994480Y-72258011D01*
X92994480Y-71958291D01*
X92537280Y-71958291D01*
X92537280Y-72715211D01*
X93599000Y-72715211D01*
X93599000Y-71054051D01*
X93141800Y-71054051D01*
X93141800Y-71353771D01*
G36*
X93746320Y-72715211D02*
G01*
X94203520Y-72715211D01*
X94203520Y-71658571D01*
X93746320Y-71658571D01*
X93746320Y-72715211D01*
X93746320Y-72715211D01*
G37*
X93746320Y-72715211D02*
X94203520Y-72715211D01*
X94203520Y-71658571D01*
X93746320Y-71658571D01*
X93746320Y-72715211D01*
G36*
X94955360Y-71653491D02*
G01*
X94808040Y-71653491D01*
X94808040Y-71054051D01*
X94350840Y-71054051D01*
X94350840Y-72715211D01*
X94808040Y-72715211D01*
X94808040Y-72110691D01*
X94955360Y-72110691D01*
X94955360Y-72715211D01*
X95412560Y-72715211D01*
X95412560Y-71054051D01*
X94955360Y-71054051D01*
X94955360Y-71653491D01*
X94955360Y-71653491D01*
G37*
X94955360Y-71653491D02*
X94808040Y-71653491D01*
X94808040Y-71054051D01*
X94350840Y-71054051D01*
X94350840Y-72715211D01*
X94808040Y-72715211D01*
X94808040Y-72110691D01*
X94955360Y-72110691D01*
X94955360Y-72715211D01*
X95412560Y-72715211D01*
X95412560Y-71054051D01*
X94955360Y-71054051D01*
X94955360Y-71653491D01*
G36*
X90728800Y-73914091D02*
G01*
X91490800Y-73914091D01*
X91490800Y-73157171D01*
X91160600Y-73157171D01*
X91160600Y-73588971D01*
X91059000Y-73588971D01*
X91059000Y-73157171D01*
X91160600Y-73157171D01*
X91490800Y-73157171D01*
X91490800Y-72826971D01*
X90728800Y-72826971D01*
X90728800Y-73914091D01*
X90728800Y-73914091D01*
G37*
X90728800Y-73914091D02*
X91490800Y-73914091D01*
X91490800Y-73157171D01*
X91160600Y-73157171D01*
X91160600Y-73588971D01*
X91059000Y-73588971D01*
X91059000Y-73157171D01*
X91160600Y-73157171D01*
X91490800Y-73157171D01*
X91490800Y-72826971D01*
X90728800Y-72826971D01*
X90728800Y-73914091D01*
G36*
X92029280Y-72933651D02*
G01*
X91592400Y-72933651D01*
X91592400Y-73914091D01*
X92359480Y-73914091D01*
X92359480Y-73268931D01*
X92029280Y-73268931D01*
X92029280Y-73588971D01*
X91927680Y-73588971D01*
X91927680Y-73268931D01*
X92029280Y-73268931D01*
X92359480Y-73268931D01*
X92359480Y-72715211D01*
X92029280Y-72715211D01*
X92029280Y-72933651D01*
X92029280Y-72933651D01*
G37*
X92029280Y-72933651D02*
X91592400Y-72933651D01*
X91592400Y-73914091D01*
X92359480Y-73914091D01*
X92359480Y-73268931D01*
X92029280Y-73268931D01*
X92029280Y-73588971D01*
X91927680Y-73588971D01*
X91927680Y-73268931D01*
X92029280Y-73268931D01*
X92359480Y-73268931D01*
X92359480Y-72715211D01*
X92029280Y-72715211D01*
X92029280Y-72933651D01*
G36*
X92466160Y-73914091D02*
G01*
X92796360Y-73914091D01*
X92796360Y-73157171D01*
X92897960Y-73157171D01*
X92897960Y-73914091D01*
X93233240Y-73914091D01*
X93233240Y-73157171D01*
X93334840Y-73157171D01*
X93334840Y-73914091D01*
X93665040Y-73914091D01*
X93665040Y-72826971D01*
X92466160Y-72826971D01*
X92466160Y-73914091D01*
X92466160Y-73914091D01*
G37*
X92466160Y-73914091D02*
X92796360Y-73914091D01*
X92796360Y-73157171D01*
X92897960Y-73157171D01*
X92897960Y-73914091D01*
X93233240Y-73914091D01*
X93233240Y-73157171D01*
X93334840Y-73157171D01*
X93334840Y-73914091D01*
X93665040Y-73914091D01*
X93665040Y-72826971D01*
X92466160Y-72826971D01*
X92466160Y-73914091D01*
G36*
X93771720Y-73914091D02*
G01*
X94538800Y-73914091D01*
X94538800Y-73157171D01*
X94208600Y-73157171D01*
X94208600Y-73588971D01*
X94107000Y-73588971D01*
X94107000Y-73157171D01*
X94208600Y-73157171D01*
X94538800Y-73157171D01*
X94538800Y-72826971D01*
X93771720Y-72826971D01*
X93771720Y-73914091D01*
X93771720Y-73914091D01*
G37*
X93771720Y-73914091D02*
X94538800Y-73914091D01*
X94538800Y-73157171D01*
X94208600Y-73157171D01*
X94208600Y-73588971D01*
X94107000Y-73588971D01*
X94107000Y-73157171D01*
X94208600Y-73157171D01*
X94538800Y-73157171D01*
X94538800Y-72826971D01*
X93771720Y-72826971D01*
X93771720Y-73914091D01*
G36*
X94640400Y-73263851D02*
G01*
X94975680Y-73263851D01*
X94975680Y-73157171D01*
X95077280Y-73157171D01*
X95077280Y-73588971D01*
X94975680Y-73588971D01*
X94975680Y-73365451D01*
X94640400Y-73365451D01*
X94640400Y-73914091D01*
X95407480Y-73914091D01*
X95407480Y-72826971D01*
X94640400Y-72826971D01*
X94640400Y-73263851D01*
X94640400Y-73263851D01*
G37*
X94640400Y-73263851D02*
X94975680Y-73263851D01*
X94975680Y-73157171D01*
X95077280Y-73157171D01*
X95077280Y-73588971D01*
X94975680Y-73588971D01*
X94975680Y-73365451D01*
X94640400Y-73365451D01*
X94640400Y-73914091D01*
X95407480Y-73914091D01*
X95407480Y-72826971D01*
X94640400Y-72826971D01*
X94640400Y-73263851D01*
G36*
X96139000Y-70891491D02*
G01*
X95610680Y-70891491D01*
X95610680Y-74071571D01*
X96139000Y-74071571D01*
X96139000Y-74599891D01*
X100904040Y-74599891D01*
X100904040Y-73543251D01*
X96672400Y-73543251D01*
X96672400Y-73020011D01*
X100375720Y-73020011D01*
X100375720Y-71953211D01*
X96672400Y-71953211D01*
X96672400Y-71429971D01*
X100904040Y-71429971D01*
X100904040Y-70368251D01*
X96139000Y-70368251D01*
X96139000Y-70891491D01*
X96139000Y-70891491D01*
G37*
X96139000Y-70891491D02*
X95610680Y-70891491D01*
X95610680Y-74071571D01*
X96139000Y-74071571D01*
X96139000Y-74599891D01*
X100904040Y-74599891D01*
X100904040Y-73543251D01*
X96672400Y-73543251D01*
X96672400Y-73020011D01*
X100375720Y-73020011D01*
X100375720Y-71953211D01*
X96672400Y-71953211D01*
X96672400Y-71429971D01*
X100904040Y-71429971D01*
X100904040Y-70368251D01*
X96139000Y-70368251D01*
X96139000Y-70891491D01*
G36*
X94619036Y-74760018D02*
G01*
X94562188Y-75061570D01*
X94142662Y-75234512D01*
X93891016Y-75063395D01*
X93820542Y-75015750D01*
X93756837Y-74973210D01*
X93702874Y-74937715D01*
X93661627Y-74911210D01*
X93636066Y-74895636D01*
X93629105Y-74892278D01*
X93616565Y-74900914D01*
X93589769Y-74924792D01*
X93551720Y-74960859D01*
X93505421Y-75006067D01*
X93453877Y-75057364D01*
X93400091Y-75111701D01*
X93347065Y-75166028D01*
X93297805Y-75217295D01*
X93255313Y-75262451D01*
X93222593Y-75298446D01*
X93202649Y-75322230D01*
X93197881Y-75330190D01*
X93204743Y-75344865D01*
X93223980Y-75377014D01*
X93253570Y-75423492D01*
X93291490Y-75481156D01*
X93335718Y-75546860D01*
X93361346Y-75584336D01*
X93408059Y-75652768D01*
X93449568Y-75714520D01*
X93483860Y-75766519D01*
X93508920Y-75805692D01*
X93522736Y-75828965D01*
X93524812Y-75833855D01*
X93520105Y-75847755D01*
X93507277Y-75880150D01*
X93488262Y-75926485D01*
X93464997Y-75982206D01*
X93439416Y-76042758D01*
X93413455Y-76103586D01*
X93389050Y-76160136D01*
X93368137Y-76207852D01*
X93352651Y-76242181D01*
X93344528Y-76258568D01*
X93344048Y-76259212D01*
X93331293Y-76262341D01*
X93297323Y-76269321D01*
X93245660Y-76279467D01*
X93179824Y-76292092D01*
X93103336Y-76306509D01*
X93058710Y-76314823D01*
X92976979Y-76330384D01*
X92903157Y-76345192D01*
X92840979Y-76358436D01*
X92794178Y-76369305D01*
X92766491Y-76376989D01*
X92760926Y-76379427D01*
X92755474Y-76395930D01*
X92751076Y-76433200D01*
X92747728Y-76486880D01*
X92745426Y-76552612D01*
X92744168Y-76626037D01*
X92743952Y-76702796D01*
X92744773Y-76778532D01*
X92746629Y-76848886D01*
X92749518Y-76909500D01*
X92753435Y-76956016D01*
X92758378Y-76984075D01*
X92761343Y-76989916D01*
X92779066Y-76996917D01*
X92816619Y-77006927D01*
X92869036Y-77018769D01*
X92931348Y-77031267D01*
X92953100Y-77035310D01*
X93057976Y-77054520D01*
X93140820Y-77069991D01*
X93204370Y-77082337D01*
X93251363Y-77092173D01*
X93284537Y-77100114D01*
X93306629Y-77106776D01*
X93320376Y-77112773D01*
X93328516Y-77118719D01*
X93329655Y-77119894D01*
X93341023Y-77138826D01*
X93358365Y-77175669D01*
X93379950Y-77225913D01*
X93404046Y-77285046D01*
X93428921Y-77348556D01*
X93452843Y-77411932D01*
X93474081Y-77470662D01*
X93490903Y-77520235D01*
X93501578Y-77556139D01*
X93504373Y-77573862D01*
X93504140Y-77574483D01*
X93494669Y-77588970D01*
X93473182Y-77620844D01*
X93441937Y-77666789D01*
X93403193Y-77723485D01*
X93359207Y-77787617D01*
X93346681Y-77805842D01*
X93302016Y-77871914D01*
X93262712Y-77932200D01*
X93230912Y-77983235D01*
X93208755Y-78021560D01*
X93198383Y-78043711D01*
X93197881Y-78046432D01*
X93206595Y-78060736D01*
X93230675Y-78089072D01*
X93267024Y-78128396D01*
X93312547Y-78175661D01*
X93364148Y-78227823D01*
X93418733Y-78281835D01*
X93473206Y-78334653D01*
X93524471Y-78383231D01*
X93569433Y-78424523D01*
X93604996Y-78455485D01*
X93628065Y-78473070D01*
X93634446Y-78475941D01*
X93649301Y-78469178D01*
X93679714Y-78450939D01*
X93720732Y-78424297D01*
X93752291Y-78402852D01*
X93809475Y-78363503D01*
X93877194Y-78317171D01*
X93945120Y-78270913D01*
X93981639Y-78246155D01*
X94105248Y-78162547D01*
X94209009Y-78218650D01*
X94256280Y-78243228D01*
X94296477Y-78262331D01*
X94323674Y-78273227D01*
X94330598Y-78274743D01*
X94338923Y-78263549D01*
X94355346Y-78231917D01*
X94378643Y-78182765D01*
X94407586Y-78119010D01*
X94440950Y-78043571D01*
X94477509Y-77959364D01*
X94516036Y-77869308D01*
X94555306Y-77776321D01*
X94594092Y-77683320D01*
X94631170Y-77593223D01*
X94665311Y-77508948D01*
X94695292Y-77433413D01*
X94719884Y-77369534D01*
X94737864Y-77320231D01*
X94748003Y-77288421D01*
X94749634Y-77277496D01*
X94736709Y-77263561D01*
X94708411Y-77240940D01*
X94670654Y-77214333D01*
X94667485Y-77212228D01*
X94569900Y-77134114D01*
X94491214Y-77042982D01*
X94432109Y-76941745D01*
X94393268Y-76833318D01*
X94375372Y-76720614D01*
X94379103Y-76606548D01*
X94405143Y-76494034D01*
X94454175Y-76385985D01*
X94468600Y-76362345D01*
X94543631Y-76266887D01*
X94632270Y-76190232D01*
X94731451Y-76132780D01*
X94838105Y-76094929D01*
X94949164Y-76077078D01*
X95061561Y-76079625D01*
X95172227Y-76102970D01*
X95278094Y-76147510D01*
X95376095Y-76213645D01*
X95406410Y-76240487D01*
X95483562Y-76324512D01*
X95539782Y-76412966D01*
X95578347Y-76512115D01*
X95599826Y-76610303D01*
X95605128Y-76720697D01*
X95587448Y-76831640D01*
X95548581Y-76939381D01*
X95490323Y-77040169D01*
X95414469Y-77130256D01*
X95322817Y-77205892D01*
X95310772Y-77213864D01*
X95272611Y-77239974D01*
X95243601Y-77262595D01*
X95229732Y-77277039D01*
X95229531Y-77277496D01*
X95232508Y-77293121D01*
X95244311Y-77328582D01*
X95263714Y-77380962D01*
X95289488Y-77447345D01*
X95320409Y-77524814D01*
X95355249Y-77610450D01*
X95392783Y-77701337D01*
X95431783Y-77794559D01*
X95471023Y-77887197D01*
X95509276Y-77976335D01*
X95545317Y-78059055D01*
X95577917Y-78132441D01*
X95605852Y-78193575D01*
X95627895Y-78239541D01*
X95642818Y-78267421D01*
X95648828Y-78274743D01*
X95667191Y-78269041D01*
X95701552Y-78253749D01*
X95745984Y-78231599D01*
X95770417Y-78218650D01*
X95874178Y-78162547D01*
X95997787Y-78246155D01*
X96060886Y-78288987D01*
X96129970Y-78336122D01*
X96194707Y-78380503D01*
X96227134Y-78402852D01*
X96272741Y-78433477D01*
X96311360Y-78457747D01*
X96337952Y-78472587D01*
X96346590Y-78475724D01*
X96359161Y-78467261D01*
X96386984Y-78443636D01*
X96427361Y-78407302D01*
X96477595Y-78360711D01*
X96534988Y-78306317D01*
X96571286Y-78271392D01*
X96634790Y-78208996D01*
X96689673Y-78153188D01*
X96733714Y-78106354D01*
X96764695Y-78070882D01*
X96780398Y-78049161D01*
X96781905Y-78044752D01*
X96774914Y-78027985D01*
X96755594Y-77994082D01*
X96726091Y-77946476D01*
X96688545Y-77888599D01*
X96645100Y-77823884D01*
X96632745Y-77805842D01*
X96587727Y-77740267D01*
X96547340Y-77681228D01*
X96513840Y-77632042D01*
X96489486Y-77596028D01*
X96476536Y-77576502D01*
X96475285Y-77574483D01*
X96477156Y-77558922D01*
X96487087Y-77524709D01*
X96503347Y-77476355D01*
X96524205Y-77418371D01*
X96547927Y-77355270D01*
X96572784Y-77291563D01*
X96597042Y-77231761D01*
X96618971Y-77180376D01*
X96636838Y-77141919D01*
X96648913Y-77120902D01*
X96649771Y-77119894D01*
X96657154Y-77113888D01*
X96669625Y-77107948D01*
X96689920Y-77101460D01*
X96720778Y-77093809D01*
X96764934Y-77084380D01*
X96825126Y-77072559D01*
X96904093Y-77057729D01*
X97004570Y-77039277D01*
X97026325Y-77035310D01*
X97090802Y-77022853D01*
X97147011Y-77010666D01*
X97189987Y-76999926D01*
X97214760Y-76991809D01*
X97218082Y-76989916D01*
X97223556Y-76973138D01*
X97228006Y-76935645D01*
X97231428Y-76881794D01*
X97233819Y-76815944D01*
X97235177Y-76742453D01*
X97235499Y-76665680D01*
X97234781Y-76589983D01*
X97233021Y-76519720D01*
X97230216Y-76459250D01*
X97226362Y-76412930D01*
X97221457Y-76385119D01*
X97218500Y-76379427D01*
X97202037Y-76373686D01*
X97164551Y-76364345D01*
X97109775Y-76352215D01*
X97041445Y-76338107D01*
X96963294Y-76322830D01*
X96920716Y-76314823D01*
X96839929Y-76299721D01*
X96767887Y-76286040D01*
X96708111Y-76274467D01*
X96664121Y-76265687D01*
X96639439Y-76260387D01*
X96635377Y-76259212D01*
X96628511Y-76245965D01*
X96613998Y-76214057D01*
X96593771Y-76168047D01*
X96569766Y-76112492D01*
X96543918Y-76051953D01*
X96518160Y-75990986D01*
X96494427Y-75934151D01*
X96474654Y-75886006D01*
X96460776Y-75851110D01*
X96454726Y-75834021D01*
X96454614Y-75833274D01*
X96461472Y-75819793D01*
X96480698Y-75788770D01*
X96510272Y-75743289D01*
X96548173Y-75686432D01*
X96592380Y-75621283D01*
X96618079Y-75583862D01*
X96664907Y-75515247D01*
X96706499Y-75452952D01*
X96740825Y-75400129D01*
X96765857Y-75359927D01*
X96779565Y-75335500D01*
X96781544Y-75330024D01*
X96773034Y-75317278D01*
X96749507Y-75290063D01*
X96713968Y-75251428D01*
X96669423Y-75204423D01*
X96618877Y-75152095D01*
X96565336Y-75097495D01*
X96511805Y-75043670D01*
X96461289Y-74993670D01*
X96416794Y-74950543D01*
X96381325Y-74917339D01*
X96357887Y-74897106D01*
X96350046Y-74892278D01*
X96337280Y-74899067D01*
X96306744Y-74918142D01*
X96261410Y-74947561D01*
X96204244Y-74985381D01*
X96138216Y-75029661D01*
X96088410Y-75063395D01*
X95836764Y-75234512D01*
X95627001Y-75148041D01*
X95417237Y-75061570D01*
X95360389Y-74760018D01*
X95303540Y-74458466D01*
X94675885Y-74458466D01*
X94619036Y-74760018D01*
X94619036Y-74760018D01*
G37*
X94619036Y-74760018D02*
X94562188Y-75061570D01*
X94142662Y-75234512D01*
X93891016Y-75063395D01*
X93820542Y-75015750D01*
X93756837Y-74973210D01*
X93702874Y-74937715D01*
X93661627Y-74911210D01*
X93636066Y-74895636D01*
X93629105Y-74892278D01*
X93616565Y-74900914D01*
X93589769Y-74924792D01*
X93551720Y-74960859D01*
X93505421Y-75006067D01*
X93453877Y-75057364D01*
X93400091Y-75111701D01*
X93347065Y-75166028D01*
X93297805Y-75217295D01*
X93255313Y-75262451D01*
X93222593Y-75298446D01*
X93202649Y-75322230D01*
X93197881Y-75330190D01*
X93204743Y-75344865D01*
X93223980Y-75377014D01*
X93253570Y-75423492D01*
X93291490Y-75481156D01*
X93335718Y-75546860D01*
X93361346Y-75584336D01*
X93408059Y-75652768D01*
X93449568Y-75714520D01*
X93483860Y-75766519D01*
X93508920Y-75805692D01*
X93522736Y-75828965D01*
X93524812Y-75833855D01*
X93520105Y-75847755D01*
X93507277Y-75880150D01*
X93488262Y-75926485D01*
X93464997Y-75982206D01*
X93439416Y-76042758D01*
X93413455Y-76103586D01*
X93389050Y-76160136D01*
X93368137Y-76207852D01*
X93352651Y-76242181D01*
X93344528Y-76258568D01*
X93344048Y-76259212D01*
X93331293Y-76262341D01*
X93297323Y-76269321D01*
X93245660Y-76279467D01*
X93179824Y-76292092D01*
X93103336Y-76306509D01*
X93058710Y-76314823D01*
X92976979Y-76330384D01*
X92903157Y-76345192D01*
X92840979Y-76358436D01*
X92794178Y-76369305D01*
X92766491Y-76376989D01*
X92760926Y-76379427D01*
X92755474Y-76395930D01*
X92751076Y-76433200D01*
X92747728Y-76486880D01*
X92745426Y-76552612D01*
X92744168Y-76626037D01*
X92743952Y-76702796D01*
X92744773Y-76778532D01*
X92746629Y-76848886D01*
X92749518Y-76909500D01*
X92753435Y-76956016D01*
X92758378Y-76984075D01*
X92761343Y-76989916D01*
X92779066Y-76996917D01*
X92816619Y-77006927D01*
X92869036Y-77018769D01*
X92931348Y-77031267D01*
X92953100Y-77035310D01*
X93057976Y-77054520D01*
X93140820Y-77069991D01*
X93204370Y-77082337D01*
X93251363Y-77092173D01*
X93284537Y-77100114D01*
X93306629Y-77106776D01*
X93320376Y-77112773D01*
X93328516Y-77118719D01*
X93329655Y-77119894D01*
X93341023Y-77138826D01*
X93358365Y-77175669D01*
X93379950Y-77225913D01*
X93404046Y-77285046D01*
X93428921Y-77348556D01*
X93452843Y-77411932D01*
X93474081Y-77470662D01*
X93490903Y-77520235D01*
X93501578Y-77556139D01*
X93504373Y-77573862D01*
X93504140Y-77574483D01*
X93494669Y-77588970D01*
X93473182Y-77620844D01*
X93441937Y-77666789D01*
X93403193Y-77723485D01*
X93359207Y-77787617D01*
X93346681Y-77805842D01*
X93302016Y-77871914D01*
X93262712Y-77932200D01*
X93230912Y-77983235D01*
X93208755Y-78021560D01*
X93198383Y-78043711D01*
X93197881Y-78046432D01*
X93206595Y-78060736D01*
X93230675Y-78089072D01*
X93267024Y-78128396D01*
X93312547Y-78175661D01*
X93364148Y-78227823D01*
X93418733Y-78281835D01*
X93473206Y-78334653D01*
X93524471Y-78383231D01*
X93569433Y-78424523D01*
X93604996Y-78455485D01*
X93628065Y-78473070D01*
X93634446Y-78475941D01*
X93649301Y-78469178D01*
X93679714Y-78450939D01*
X93720732Y-78424297D01*
X93752291Y-78402852D01*
X93809475Y-78363503D01*
X93877194Y-78317171D01*
X93945120Y-78270913D01*
X93981639Y-78246155D01*
X94105248Y-78162547D01*
X94209009Y-78218650D01*
X94256280Y-78243228D01*
X94296477Y-78262331D01*
X94323674Y-78273227D01*
X94330598Y-78274743D01*
X94338923Y-78263549D01*
X94355346Y-78231917D01*
X94378643Y-78182765D01*
X94407586Y-78119010D01*
X94440950Y-78043571D01*
X94477509Y-77959364D01*
X94516036Y-77869308D01*
X94555306Y-77776321D01*
X94594092Y-77683320D01*
X94631170Y-77593223D01*
X94665311Y-77508948D01*
X94695292Y-77433413D01*
X94719884Y-77369534D01*
X94737864Y-77320231D01*
X94748003Y-77288421D01*
X94749634Y-77277496D01*
X94736709Y-77263561D01*
X94708411Y-77240940D01*
X94670654Y-77214333D01*
X94667485Y-77212228D01*
X94569900Y-77134114D01*
X94491214Y-77042982D01*
X94432109Y-76941745D01*
X94393268Y-76833318D01*
X94375372Y-76720614D01*
X94379103Y-76606548D01*
X94405143Y-76494034D01*
X94454175Y-76385985D01*
X94468600Y-76362345D01*
X94543631Y-76266887D01*
X94632270Y-76190232D01*
X94731451Y-76132780D01*
X94838105Y-76094929D01*
X94949164Y-76077078D01*
X95061561Y-76079625D01*
X95172227Y-76102970D01*
X95278094Y-76147510D01*
X95376095Y-76213645D01*
X95406410Y-76240487D01*
X95483562Y-76324512D01*
X95539782Y-76412966D01*
X95578347Y-76512115D01*
X95599826Y-76610303D01*
X95605128Y-76720697D01*
X95587448Y-76831640D01*
X95548581Y-76939381D01*
X95490323Y-77040169D01*
X95414469Y-77130256D01*
X95322817Y-77205892D01*
X95310772Y-77213864D01*
X95272611Y-77239974D01*
X95243601Y-77262595D01*
X95229732Y-77277039D01*
X95229531Y-77277496D01*
X95232508Y-77293121D01*
X95244311Y-77328582D01*
X95263714Y-77380962D01*
X95289488Y-77447345D01*
X95320409Y-77524814D01*
X95355249Y-77610450D01*
X95392783Y-77701337D01*
X95431783Y-77794559D01*
X95471023Y-77887197D01*
X95509276Y-77976335D01*
X95545317Y-78059055D01*
X95577917Y-78132441D01*
X95605852Y-78193575D01*
X95627895Y-78239541D01*
X95642818Y-78267421D01*
X95648828Y-78274743D01*
X95667191Y-78269041D01*
X95701552Y-78253749D01*
X95745984Y-78231599D01*
X95770417Y-78218650D01*
X95874178Y-78162547D01*
X95997787Y-78246155D01*
X96060886Y-78288987D01*
X96129970Y-78336122D01*
X96194707Y-78380503D01*
X96227134Y-78402852D01*
X96272741Y-78433477D01*
X96311360Y-78457747D01*
X96337952Y-78472587D01*
X96346590Y-78475724D01*
X96359161Y-78467261D01*
X96386984Y-78443636D01*
X96427361Y-78407302D01*
X96477595Y-78360711D01*
X96534988Y-78306317D01*
X96571286Y-78271392D01*
X96634790Y-78208996D01*
X96689673Y-78153188D01*
X96733714Y-78106354D01*
X96764695Y-78070882D01*
X96780398Y-78049161D01*
X96781905Y-78044752D01*
X96774914Y-78027985D01*
X96755594Y-77994082D01*
X96726091Y-77946476D01*
X96688545Y-77888599D01*
X96645100Y-77823884D01*
X96632745Y-77805842D01*
X96587727Y-77740267D01*
X96547340Y-77681228D01*
X96513840Y-77632042D01*
X96489486Y-77596028D01*
X96476536Y-77576502D01*
X96475285Y-77574483D01*
X96477156Y-77558922D01*
X96487087Y-77524709D01*
X96503347Y-77476355D01*
X96524205Y-77418371D01*
X96547927Y-77355270D01*
X96572784Y-77291563D01*
X96597042Y-77231761D01*
X96618971Y-77180376D01*
X96636838Y-77141919D01*
X96648913Y-77120902D01*
X96649771Y-77119894D01*
X96657154Y-77113888D01*
X96669625Y-77107948D01*
X96689920Y-77101460D01*
X96720778Y-77093809D01*
X96764934Y-77084380D01*
X96825126Y-77072559D01*
X96904093Y-77057729D01*
X97004570Y-77039277D01*
X97026325Y-77035310D01*
X97090802Y-77022853D01*
X97147011Y-77010666D01*
X97189987Y-76999926D01*
X97214760Y-76991809D01*
X97218082Y-76989916D01*
X97223556Y-76973138D01*
X97228006Y-76935645D01*
X97231428Y-76881794D01*
X97233819Y-76815944D01*
X97235177Y-76742453D01*
X97235499Y-76665680D01*
X97234781Y-76589983D01*
X97233021Y-76519720D01*
X97230216Y-76459250D01*
X97226362Y-76412930D01*
X97221457Y-76385119D01*
X97218500Y-76379427D01*
X97202037Y-76373686D01*
X97164551Y-76364345D01*
X97109775Y-76352215D01*
X97041445Y-76338107D01*
X96963294Y-76322830D01*
X96920716Y-76314823D01*
X96839929Y-76299721D01*
X96767887Y-76286040D01*
X96708111Y-76274467D01*
X96664121Y-76265687D01*
X96639439Y-76260387D01*
X96635377Y-76259212D01*
X96628511Y-76245965D01*
X96613998Y-76214057D01*
X96593771Y-76168047D01*
X96569766Y-76112492D01*
X96543918Y-76051953D01*
X96518160Y-75990986D01*
X96494427Y-75934151D01*
X96474654Y-75886006D01*
X96460776Y-75851110D01*
X96454726Y-75834021D01*
X96454614Y-75833274D01*
X96461472Y-75819793D01*
X96480698Y-75788770D01*
X96510272Y-75743289D01*
X96548173Y-75686432D01*
X96592380Y-75621283D01*
X96618079Y-75583862D01*
X96664907Y-75515247D01*
X96706499Y-75452952D01*
X96740825Y-75400129D01*
X96765857Y-75359927D01*
X96779565Y-75335500D01*
X96781544Y-75330024D01*
X96773034Y-75317278D01*
X96749507Y-75290063D01*
X96713968Y-75251428D01*
X96669423Y-75204423D01*
X96618877Y-75152095D01*
X96565336Y-75097495D01*
X96511805Y-75043670D01*
X96461289Y-74993670D01*
X96416794Y-74950543D01*
X96381325Y-74917339D01*
X96357887Y-74897106D01*
X96350046Y-74892278D01*
X96337280Y-74899067D01*
X96306744Y-74918142D01*
X96261410Y-74947561D01*
X96204244Y-74985381D01*
X96138216Y-75029661D01*
X96088410Y-75063395D01*
X95836764Y-75234512D01*
X95627001Y-75148041D01*
X95417237Y-75061570D01*
X95360389Y-74760018D01*
X95303540Y-74458466D01*
X94675885Y-74458466D01*
X94619036Y-74760018D01*
G36*
X93196540Y-78928030D02*
G01*
X93153289Y-78941245D01*
X93125442Y-78957941D01*
X93116371Y-78971145D01*
X93118868Y-78986797D01*
X93135069Y-79011385D01*
X93148768Y-79028800D01*
X93177008Y-79060283D01*
X93198225Y-79073529D01*
X93216312Y-79072664D01*
X93269965Y-79059010D01*
X93309370Y-79059630D01*
X93341368Y-79075104D01*
X93352110Y-79084161D01*
X93386495Y-79116027D01*
X93386495Y-79532179D01*
X93524812Y-79532179D01*
X93524812Y-78928614D01*
X93455653Y-78928614D01*
X93414131Y-78930256D01*
X93392709Y-78936087D01*
X93386498Y-78947461D01*
X93386495Y-78947798D01*
X93383561Y-78959713D01*
X93370296Y-78958159D01*
X93351916Y-78949563D01*
X93313954Y-78933568D01*
X93283128Y-78923945D01*
X93243464Y-78921478D01*
X93196540Y-78928030D01*
X93196540Y-78928030D01*
G37*
X93196540Y-78928030D02*
X93153289Y-78941245D01*
X93125442Y-78957941D01*
X93116371Y-78971145D01*
X93118868Y-78986797D01*
X93135069Y-79011385D01*
X93148768Y-79028800D01*
X93177008Y-79060283D01*
X93198225Y-79073529D01*
X93216312Y-79072664D01*
X93269965Y-79059010D01*
X93309370Y-79059630D01*
X93341368Y-79075104D01*
X93352110Y-79084161D01*
X93386495Y-79116027D01*
X93386495Y-79532179D01*
X93524812Y-79532179D01*
X93524812Y-78928614D01*
X93455653Y-78928614D01*
X93414131Y-78930256D01*
X93392709Y-78936087D01*
X93386498Y-78947461D01*
X93386495Y-78947798D01*
X93383561Y-78959713D01*
X93370296Y-78958159D01*
X93351916Y-78949563D01*
X93313954Y-78933568D01*
X93283128Y-78923945D01*
X93243464Y-78921478D01*
X93196540Y-78928030D01*
G36*
X95750012Y-78939002D02*
G01*
X95718717Y-78953950D01*
X95688409Y-78975541D01*
X95665318Y-79000391D01*
X95648500Y-79032087D01*
X95637006Y-79074214D01*
X95629891Y-79130358D01*
X95626207Y-79204106D01*
X95625008Y-79299044D01*
X95624989Y-79308985D01*
X95624713Y-79532179D01*
X95763030Y-79532179D01*
X95763030Y-79326418D01*
X95763128Y-79250189D01*
X95763809Y-79194939D01*
X95765651Y-79156501D01*
X95769233Y-79130706D01*
X95775132Y-79113384D01*
X95783927Y-79100368D01*
X95796180Y-79087507D01*
X95839047Y-79059873D01*
X95885843Y-79054745D01*
X95930424Y-79072217D01*
X95945928Y-79085221D01*
X95957310Y-79097447D01*
X95965481Y-79110540D01*
X95970974Y-79128615D01*
X95974320Y-79155787D01*
X95976051Y-79196170D01*
X95976697Y-79253879D01*
X95976792Y-79324132D01*
X95976792Y-79532179D01*
X96115109Y-79532179D01*
X96115109Y-78928614D01*
X96045950Y-78928614D01*
X96004428Y-78930256D01*
X95983006Y-78936087D01*
X95976795Y-78947461D01*
X95976792Y-78947798D01*
X95973910Y-78958938D01*
X95961199Y-78957674D01*
X95935926Y-78945434D01*
X95878605Y-78927424D01*
X95813037Y-78925421D01*
X95750012Y-78939002D01*
X95750012Y-78939002D01*
G37*
X95750012Y-78939002D02*
X95718717Y-78953950D01*
X95688409Y-78975541D01*
X95665318Y-79000391D01*
X95648500Y-79032087D01*
X95637006Y-79074214D01*
X95629891Y-79130358D01*
X95626207Y-79204106D01*
X95625008Y-79299044D01*
X95624989Y-79308985D01*
X95624713Y-79532179D01*
X95763030Y-79532179D01*
X95763030Y-79326418D01*
X95763128Y-79250189D01*
X95763809Y-79194939D01*
X95765651Y-79156501D01*
X95769233Y-79130706D01*
X95775132Y-79113384D01*
X95783927Y-79100368D01*
X95796180Y-79087507D01*
X95839047Y-79059873D01*
X95885843Y-79054745D01*
X95930424Y-79072217D01*
X95945928Y-79085221D01*
X95957310Y-79097447D01*
X95965481Y-79110540D01*
X95970974Y-79128615D01*
X95974320Y-79155787D01*
X95976051Y-79196170D01*
X95976697Y-79253879D01*
X95976792Y-79324132D01*
X95976792Y-79532179D01*
X96115109Y-79532179D01*
X96115109Y-78928614D01*
X96045950Y-78928614D01*
X96004428Y-78930256D01*
X95983006Y-78936087D01*
X95976795Y-78947461D01*
X95976792Y-78947798D01*
X95973910Y-78958938D01*
X95961199Y-78957674D01*
X95935926Y-78945434D01*
X95878605Y-78927424D01*
X95813037Y-78925421D01*
X95750012Y-78939002D01*
G36*
X92318102Y-78926457D02*
G01*
X92285904Y-78934279D01*
X92224175Y-78962921D01*
X92171390Y-79006667D01*
X92134859Y-79059117D01*
X92129840Y-79070893D01*
X92122955Y-79101740D01*
X92118136Y-79147371D01*
X92116495Y-79193492D01*
X92116495Y-79280693D01*
X92298822Y-79280693D01*
X92374021Y-79280978D01*
X92426997Y-79282704D01*
X92460675Y-79287181D01*
X92477980Y-79295720D01*
X92481837Y-79309630D01*
X92475171Y-79330222D01*
X92463230Y-79354315D01*
X92429920Y-79394525D01*
X92383632Y-79414558D01*
X92327056Y-79413905D01*
X92262969Y-79392101D01*
X92207583Y-79365193D01*
X92161625Y-79401532D01*
X92115667Y-79437872D01*
X92158904Y-79477819D01*
X92216626Y-79515563D01*
X92287614Y-79538320D01*
X92363971Y-79544688D01*
X92437801Y-79533268D01*
X92449713Y-79529393D01*
X92514601Y-79495506D01*
X92562870Y-79444986D01*
X92595535Y-79376325D01*
X92613615Y-79288014D01*
X92613825Y-79286121D01*
X92615444Y-79189878D01*
X92608900Y-79155542D01*
X92481148Y-79155542D01*
X92469416Y-79160822D01*
X92437562Y-79164867D01*
X92390603Y-79167176D01*
X92360846Y-79167525D01*
X92305352Y-79167306D01*
X92270654Y-79165916D01*
X92252399Y-79162251D01*
X92246234Y-79155210D01*
X92247805Y-79143690D01*
X92249122Y-79139233D01*
X92271618Y-79097355D01*
X92306997Y-79063604D01*
X92338220Y-79048773D01*
X92379699Y-79049668D01*
X92421731Y-79068164D01*
X92456988Y-79098786D01*
X92478146Y-79136062D01*
X92481148Y-79155542D01*
X92608900Y-79155542D01*
X92599310Y-79105229D01*
X92567302Y-79034191D01*
X92521299Y-78978779D01*
X92463179Y-78941009D01*
X92394820Y-78922896D01*
X92318102Y-78926457D01*
X92318102Y-78926457D01*
G37*
X92318102Y-78926457D02*
X92285904Y-78934279D01*
X92224175Y-78962921D01*
X92171390Y-79006667D01*
X92134859Y-79059117D01*
X92129840Y-79070893D01*
X92122955Y-79101740D01*
X92118136Y-79147371D01*
X92116495Y-79193492D01*
X92116495Y-79280693D01*
X92298822Y-79280693D01*
X92374021Y-79280978D01*
X92426997Y-79282704D01*
X92460675Y-79287181D01*
X92477980Y-79295720D01*
X92481837Y-79309630D01*
X92475171Y-79330222D01*
X92463230Y-79354315D01*
X92429920Y-79394525D01*
X92383632Y-79414558D01*
X92327056Y-79413905D01*
X92262969Y-79392101D01*
X92207583Y-79365193D01*
X92161625Y-79401532D01*
X92115667Y-79437872D01*
X92158904Y-79477819D01*
X92216626Y-79515563D01*
X92287614Y-79538320D01*
X92363971Y-79544688D01*
X92437801Y-79533268D01*
X92449713Y-79529393D01*
X92514601Y-79495506D01*
X92562870Y-79444986D01*
X92595535Y-79376325D01*
X92613615Y-79288014D01*
X92613825Y-79286121D01*
X92615444Y-79189878D01*
X92608900Y-79155542D01*
X92481148Y-79155542D01*
X92469416Y-79160822D01*
X92437562Y-79164867D01*
X92390603Y-79167176D01*
X92360846Y-79167525D01*
X92305352Y-79167306D01*
X92270654Y-79165916D01*
X92252399Y-79162251D01*
X92246234Y-79155210D01*
X92247805Y-79143690D01*
X92249122Y-79139233D01*
X92271618Y-79097355D01*
X92306997Y-79063604D01*
X92338220Y-79048773D01*
X92379699Y-79049668D01*
X92421731Y-79068164D01*
X92456988Y-79098786D01*
X92478146Y-79136062D01*
X92481148Y-79155542D01*
X92608900Y-79155542D01*
X92599310Y-79105229D01*
X92567302Y-79034191D01*
X92521299Y-78978779D01*
X92463179Y-78941009D01*
X92394820Y-78922896D01*
X92318102Y-78926457D01*
G36*
X92778774Y-78933880D02*
G01*
X92705920Y-78964830D01*
X92682973Y-78979895D01*
X92653646Y-79003048D01*
X92635236Y-79021253D01*
X92632039Y-79027183D01*
X92641065Y-79040340D01*
X92664163Y-79062667D01*
X92682656Y-79078250D01*
X92733272Y-79118926D01*
X92773240Y-79085295D01*
X92804126Y-79063584D01*
X92834241Y-79056090D01*
X92868708Y-79057920D01*
X92923439Y-79071528D01*
X92961114Y-79099772D01*
X92984009Y-79145433D01*
X92994403Y-79211289D01*
X92994405Y-79211331D01*
X92993506Y-79284939D01*
X92979537Y-79338946D01*
X92951672Y-79375716D01*
X92932675Y-79388168D01*
X92882224Y-79403673D01*
X92828337Y-79403683D01*
X92781454Y-79388638D01*
X92770356Y-79381287D01*
X92742524Y-79362511D01*
X92720764Y-79359434D01*
X92697296Y-79373409D01*
X92671351Y-79398510D01*
X92630284Y-79440880D01*
X92675879Y-79478464D01*
X92746326Y-79520882D01*
X92825767Y-79541785D01*
X92908785Y-79540272D01*
X92963306Y-79526411D01*
X93027030Y-79492135D01*
X93077995Y-79438212D01*
X93101149Y-79400149D01*
X93119901Y-79345536D01*
X93129285Y-79276369D01*
X93129357Y-79201407D01*
X93120176Y-79129409D01*
X93101801Y-79069137D01*
X93098907Y-79062958D01*
X93056048Y-79002351D01*
X92998021Y-78958224D01*
X92929409Y-78931493D01*
X92854799Y-78923073D01*
X92778774Y-78933880D01*
X92778774Y-78933880D01*
G37*
X92778774Y-78933880D02*
X92705920Y-78964830D01*
X92682973Y-78979895D01*
X92653646Y-79003048D01*
X92635236Y-79021253D01*
X92632039Y-79027183D01*
X92641065Y-79040340D01*
X92664163Y-79062667D01*
X92682656Y-79078250D01*
X92733272Y-79118926D01*
X92773240Y-79085295D01*
X92804126Y-79063584D01*
X92834241Y-79056090D01*
X92868708Y-79057920D01*
X92923439Y-79071528D01*
X92961114Y-79099772D01*
X92984009Y-79145433D01*
X92994403Y-79211289D01*
X92994405Y-79211331D01*
X92993506Y-79284939D01*
X92979537Y-79338946D01*
X92951672Y-79375716D01*
X92932675Y-79388168D01*
X92882224Y-79403673D01*
X92828337Y-79403683D01*
X92781454Y-79388638D01*
X92770356Y-79381287D01*
X92742524Y-79362511D01*
X92720764Y-79359434D01*
X92697296Y-79373409D01*
X92671351Y-79398510D01*
X92630284Y-79440880D01*
X92675879Y-79478464D01*
X92746326Y-79520882D01*
X92825767Y-79541785D01*
X92908785Y-79540272D01*
X92963306Y-79526411D01*
X93027030Y-79492135D01*
X93077995Y-79438212D01*
X93101149Y-79400149D01*
X93119901Y-79345536D01*
X93129285Y-79276369D01*
X93129357Y-79201407D01*
X93120176Y-79129409D01*
X93101801Y-79069137D01*
X93098907Y-79062958D01*
X93056048Y-79002351D01*
X92998021Y-78958224D01*
X92929409Y-78931493D01*
X92854799Y-78923073D01*
X92778774Y-78933880D01*
G36*
X94002633Y-79124342D02*
G01*
X94001445Y-79216563D01*
X93997103Y-79286610D01*
X93988442Y-79337381D01*
X93974296Y-79371772D01*
X93953500Y-79392679D01*
X93924890Y-79403000D01*
X93889465Y-79405636D01*
X93852364Y-79402682D01*
X93824182Y-79391889D01*
X93803757Y-79370360D01*
X93789921Y-79335199D01*
X93781509Y-79283510D01*
X93777357Y-79212394D01*
X93776297Y-79124342D01*
X93776297Y-78928614D01*
X93637980Y-78928614D01*
X93637980Y-79532179D01*
X93707138Y-79532179D01*
X93748830Y-79530489D01*
X93770299Y-79524556D01*
X93776297Y-79513293D01*
X93779909Y-79503261D01*
X93794286Y-79505383D01*
X93823264Y-79519580D01*
X93889681Y-79541480D01*
X93960125Y-79539928D01*
X94027623Y-79516147D01*
X94059767Y-79497362D01*
X94084285Y-79477022D01*
X94102196Y-79451573D01*
X94114521Y-79417458D01*
X94122277Y-79371121D01*
X94126484Y-79309007D01*
X94128160Y-79227561D01*
X94128376Y-79164578D01*
X94128376Y-78928614D01*
X94002633Y-78928614D01*
X94002633Y-79124342D01*
X94002633Y-79124342D01*
G37*
X94002633Y-79124342D02*
X94001445Y-79216563D01*
X93997103Y-79286610D01*
X93988442Y-79337381D01*
X93974296Y-79371772D01*
X93953500Y-79392679D01*
X93924890Y-79403000D01*
X93889465Y-79405636D01*
X93852364Y-79402682D01*
X93824182Y-79391889D01*
X93803757Y-79370360D01*
X93789921Y-79335199D01*
X93781509Y-79283510D01*
X93777357Y-79212394D01*
X93776297Y-79124342D01*
X93776297Y-78928614D01*
X93637980Y-78928614D01*
X93637980Y-79532179D01*
X93707138Y-79532179D01*
X93748830Y-79530489D01*
X93770299Y-79524556D01*
X93776297Y-79513293D01*
X93779909Y-79503261D01*
X93794286Y-79505383D01*
X93823264Y-79519580D01*
X93889681Y-79541480D01*
X93960125Y-79539928D01*
X94027623Y-79516147D01*
X94059767Y-79497362D01*
X94084285Y-79477022D01*
X94102196Y-79451573D01*
X94114521Y-79417458D01*
X94122277Y-79371121D01*
X94126484Y-79309007D01*
X94128160Y-79227561D01*
X94128376Y-79164578D01*
X94128376Y-78928614D01*
X94002633Y-78928614D01*
X94002633Y-79124342D01*
G36*
X94385238Y-78936055D02*
G01*
X94321637Y-78970692D01*
X94271877Y-79025372D01*
X94248432Y-79069842D01*
X94238366Y-79109121D01*
X94231844Y-79165116D01*
X94229049Y-79229621D01*
X94230164Y-79294429D01*
X94235374Y-79351334D01*
X94241459Y-79381727D01*
X94261986Y-79423306D01*
X94297537Y-79467468D01*
X94340381Y-79506087D01*
X94382789Y-79531034D01*
X94383823Y-79531430D01*
X94436447Y-79542331D01*
X94498812Y-79542601D01*
X94558076Y-79532676D01*
X94580960Y-79524722D01*
X94639898Y-79491300D01*
X94682110Y-79447511D01*
X94709844Y-79389538D01*
X94725349Y-79313565D01*
X94728857Y-79273771D01*
X94728410Y-79223766D01*
X94593624Y-79223766D01*
X94589083Y-79296732D01*
X94576014Y-79352334D01*
X94555244Y-79387861D01*
X94540448Y-79398020D01*
X94502536Y-79405104D01*
X94457473Y-79403007D01*
X94418513Y-79392812D01*
X94408296Y-79387204D01*
X94381341Y-79354538D01*
X94363549Y-79304545D01*
X94355976Y-79243705D01*
X94359675Y-79178497D01*
X94367943Y-79139253D01*
X94391680Y-79093805D01*
X94429151Y-79065396D01*
X94474280Y-79055573D01*
X94520989Y-79065887D01*
X94556868Y-79091112D01*
X94575723Y-79111925D01*
X94586728Y-79132439D01*
X94591974Y-79160203D01*
X94593551Y-79202762D01*
X94593624Y-79223766D01*
X94728410Y-79223766D01*
X94727906Y-79167580D01*
X94710612Y-79080501D01*
X94676971Y-79012530D01*
X94626982Y-78963664D01*
X94560644Y-78933899D01*
X94546399Y-78930448D01*
X94460790Y-78922345D01*
X94385238Y-78936055D01*
X94385238Y-78936055D01*
G37*
X94385238Y-78936055D02*
X94321637Y-78970692D01*
X94271877Y-79025372D01*
X94248432Y-79069842D01*
X94238366Y-79109121D01*
X94231844Y-79165116D01*
X94229049Y-79229621D01*
X94230164Y-79294429D01*
X94235374Y-79351334D01*
X94241459Y-79381727D01*
X94261986Y-79423306D01*
X94297537Y-79467468D01*
X94340381Y-79506087D01*
X94382789Y-79531034D01*
X94383823Y-79531430D01*
X94436447Y-79542331D01*
X94498812Y-79542601D01*
X94558076Y-79532676D01*
X94580960Y-79524722D01*
X94639898Y-79491300D01*
X94682110Y-79447511D01*
X94709844Y-79389538D01*
X94725349Y-79313565D01*
X94728857Y-79273771D01*
X94728410Y-79223766D01*
X94593624Y-79223766D01*
X94589083Y-79296732D01*
X94576014Y-79352334D01*
X94555244Y-79387861D01*
X94540448Y-79398020D01*
X94502536Y-79405104D01*
X94457473Y-79403007D01*
X94418513Y-79392812D01*
X94408296Y-79387204D01*
X94381341Y-79354538D01*
X94363549Y-79304545D01*
X94355976Y-79243705D01*
X94359675Y-79178497D01*
X94367943Y-79139253D01*
X94391680Y-79093805D01*
X94429151Y-79065396D01*
X94474280Y-79055573D01*
X94520989Y-79065887D01*
X94556868Y-79091112D01*
X94575723Y-79111925D01*
X94586728Y-79132439D01*
X94591974Y-79160203D01*
X94593551Y-79202762D01*
X94593624Y-79223766D01*
X94728410Y-79223766D01*
X94727906Y-79167580D01*
X94710612Y-79080501D01*
X94676971Y-79012530D01*
X94626982Y-78963664D01*
X94560644Y-78933899D01*
X94546399Y-78930448D01*
X94460790Y-78922345D01*
X94385238Y-78936055D01*
G36*
X94981983Y-78926452D02*
G01*
X94934366Y-78935482D01*
X94884966Y-78954370D01*
X94879688Y-78956777D01*
X94842226Y-78976476D01*
X94816283Y-78994781D01*
X94807897Y-79006508D01*
X94815883Y-79025632D01*
X94835280Y-79053850D01*
X94843890Y-79064384D01*
X94879372Y-79105847D01*
X94925115Y-79078858D01*
X94968650Y-79060878D01*
X95018950Y-79051267D01*
X95067188Y-79050660D01*
X95104533Y-79059691D01*
X95113495Y-79065327D01*
X95130563Y-79091171D01*
X95132637Y-79120941D01*
X95119866Y-79144197D01*
X95112312Y-79148708D01*
X95089675Y-79154309D01*
X95049885Y-79160892D01*
X95000834Y-79167183D01*
X94991785Y-79168170D01*
X94913004Y-79181798D01*
X94855864Y-79204946D01*
X94817970Y-79239752D01*
X94796921Y-79288354D01*
X94790365Y-79347718D01*
X94799423Y-79415198D01*
X94828836Y-79468188D01*
X94878722Y-79506783D01*
X94949200Y-79531081D01*
X95027435Y-79540667D01*
X95091234Y-79540552D01*
X95142984Y-79531845D01*
X95178327Y-79519825D01*
X95222983Y-79498880D01*
X95264253Y-79474574D01*
X95278921Y-79463876D01*
X95316643Y-79433084D01*
X95271148Y-79387049D01*
X95225653Y-79341013D01*
X95173928Y-79375243D01*
X95122048Y-79400952D01*
X95066649Y-79414399D01*
X95013395Y-79415818D01*
X94967951Y-79405443D01*
X94935984Y-79383507D01*
X94925662Y-79364998D01*
X94927211Y-79335314D01*
X94952860Y-79312615D01*
X95002540Y-79296940D01*
X95056969Y-79289695D01*
X95140736Y-79275873D01*
X95202967Y-79249796D01*
X95244493Y-79210699D01*
X95266147Y-79157820D01*
X95269147Y-79095126D01*
X95254329Y-79029642D01*
X95220546Y-78980144D01*
X95167495Y-78946408D01*
X95094874Y-78928207D01*
X95041072Y-78924639D01*
X94981983Y-78926452D01*
X94981983Y-78926452D01*
G37*
X94981983Y-78926452D02*
X94934366Y-78935482D01*
X94884966Y-78954370D01*
X94879688Y-78956777D01*
X94842226Y-78976476D01*
X94816283Y-78994781D01*
X94807897Y-79006508D01*
X94815883Y-79025632D01*
X94835280Y-79053850D01*
X94843890Y-79064384D01*
X94879372Y-79105847D01*
X94925115Y-79078858D01*
X94968650Y-79060878D01*
X95018950Y-79051267D01*
X95067188Y-79050660D01*
X95104533Y-79059691D01*
X95113495Y-79065327D01*
X95130563Y-79091171D01*
X95132637Y-79120941D01*
X95119866Y-79144197D01*
X95112312Y-79148708D01*
X95089675Y-79154309D01*
X95049885Y-79160892D01*
X95000834Y-79167183D01*
X94991785Y-79168170D01*
X94913004Y-79181798D01*
X94855864Y-79204946D01*
X94817970Y-79239752D01*
X94796921Y-79288354D01*
X94790365Y-79347718D01*
X94799423Y-79415198D01*
X94828836Y-79468188D01*
X94878722Y-79506783D01*
X94949200Y-79531081D01*
X95027435Y-79540667D01*
X95091234Y-79540552D01*
X95142984Y-79531845D01*
X95178327Y-79519825D01*
X95222983Y-79498880D01*
X95264253Y-79474574D01*
X95278921Y-79463876D01*
X95316643Y-79433084D01*
X95271148Y-79387049D01*
X95225653Y-79341013D01*
X95173928Y-79375243D01*
X95122048Y-79400952D01*
X95066649Y-79414399D01*
X95013395Y-79415818D01*
X94967951Y-79405443D01*
X94935984Y-79383507D01*
X94925662Y-79364998D01*
X94927211Y-79335314D01*
X94952860Y-79312615D01*
X95002540Y-79296940D01*
X95056969Y-79289695D01*
X95140736Y-79275873D01*
X95202967Y-79249796D01*
X95244493Y-79210699D01*
X95266147Y-79157820D01*
X95269147Y-79095126D01*
X95254329Y-79029642D01*
X95220546Y-78980144D01*
X95167495Y-78946408D01*
X95094874Y-78928207D01*
X95041072Y-78924639D01*
X94981983Y-78926452D01*
G36*
X96352699Y-78942614D02*
G01*
X96340168Y-78948514D01*
X96296799Y-78980283D01*
X96255790Y-79026646D01*
X96225168Y-79077696D01*
X96216459Y-79101166D01*
X96208512Y-79143091D01*
X96203774Y-79193757D01*
X96203199Y-79214679D01*
X96203129Y-79280693D01*
X96583083Y-79280693D01*
X96574983Y-79315273D01*
X96555104Y-79356170D01*
X96520347Y-79391514D01*
X96478998Y-79414282D01*
X96452649Y-79419010D01*
X96416916Y-79413273D01*
X96374282Y-79398882D01*
X96359799Y-79392262D01*
X96306240Y-79365513D01*
X96260533Y-79400376D01*
X96234158Y-79423955D01*
X96220124Y-79443417D01*
X96219414Y-79449129D01*
X96231951Y-79462973D01*
X96259428Y-79484012D01*
X96284366Y-79500425D01*
X96351664Y-79529930D01*
X96427110Y-79543284D01*
X96501888Y-79539812D01*
X96561495Y-79521663D01*
X96622941Y-79482784D01*
X96666608Y-79431595D01*
X96693926Y-79365367D01*
X96706322Y-79281371D01*
X96707421Y-79242936D01*
X96703022Y-79154861D01*
X96702482Y-79152299D01*
X96576582Y-79152299D01*
X96573115Y-79160558D01*
X96558863Y-79165113D01*
X96529470Y-79167065D01*
X96480575Y-79167517D01*
X96461748Y-79167525D01*
X96404467Y-79166843D01*
X96368141Y-79164364D01*
X96348604Y-79159443D01*
X96341690Y-79151434D01*
X96341445Y-79148862D01*
X96349336Y-79128423D01*
X96369085Y-79099789D01*
X96377575Y-79089763D01*
X96409094Y-79061408D01*
X96441949Y-79050259D01*
X96459651Y-79049327D01*
X96507539Y-79060981D01*
X96547699Y-79092285D01*
X96573173Y-79137752D01*
X96573625Y-79139233D01*
X96576582Y-79152299D01*
X96702482Y-79152299D01*
X96688392Y-79085510D01*
X96662038Y-79030025D01*
X96629807Y-78990639D01*
X96570217Y-78947931D01*
X96500168Y-78925109D01*
X96425661Y-78923046D01*
X96352699Y-78942614D01*
X96352699Y-78942614D01*
G37*
X96352699Y-78942614D02*
X96340168Y-78948514D01*
X96296799Y-78980283D01*
X96255790Y-79026646D01*
X96225168Y-79077696D01*
X96216459Y-79101166D01*
X96208512Y-79143091D01*
X96203774Y-79193757D01*
X96203199Y-79214679D01*
X96203129Y-79280693D01*
X96583083Y-79280693D01*
X96574983Y-79315273D01*
X96555104Y-79356170D01*
X96520347Y-79391514D01*
X96478998Y-79414282D01*
X96452649Y-79419010D01*
X96416916Y-79413273D01*
X96374282Y-79398882D01*
X96359799Y-79392262D01*
X96306240Y-79365513D01*
X96260533Y-79400376D01*
X96234158Y-79423955D01*
X96220124Y-79443417D01*
X96219414Y-79449129D01*
X96231951Y-79462973D01*
X96259428Y-79484012D01*
X96284366Y-79500425D01*
X96351664Y-79529930D01*
X96427110Y-79543284D01*
X96501888Y-79539812D01*
X96561495Y-79521663D01*
X96622941Y-79482784D01*
X96666608Y-79431595D01*
X96693926Y-79365367D01*
X96706322Y-79281371D01*
X96707421Y-79242936D01*
X96703022Y-79154861D01*
X96702482Y-79152299D01*
X96576582Y-79152299D01*
X96573115Y-79160558D01*
X96558863Y-79165113D01*
X96529470Y-79167065D01*
X96480575Y-79167517D01*
X96461748Y-79167525D01*
X96404467Y-79166843D01*
X96368141Y-79164364D01*
X96348604Y-79159443D01*
X96341690Y-79151434D01*
X96341445Y-79148862D01*
X96349336Y-79128423D01*
X96369085Y-79099789D01*
X96377575Y-79089763D01*
X96409094Y-79061408D01*
X96441949Y-79050259D01*
X96459651Y-79049327D01*
X96507539Y-79060981D01*
X96547699Y-79092285D01*
X96573173Y-79137752D01*
X96573625Y-79139233D01*
X96576582Y-79152299D01*
X96702482Y-79152299D01*
X96688392Y-79085510D01*
X96662038Y-79030025D01*
X96629807Y-78990639D01*
X96570217Y-78947931D01*
X96500168Y-78925109D01*
X96425661Y-78923046D01*
X96352699Y-78942614D01*
G36*
X97534261Y-78935148D02*
G01*
X97468479Y-78964231D01*
X97418540Y-79012793D01*
X97384374Y-79080908D01*
X97365907Y-79168651D01*
X97364583Y-79182351D01*
X97363546Y-79278939D01*
X97376993Y-79363602D01*
X97404108Y-79432221D01*
X97418627Y-79454294D01*
X97469201Y-79501011D01*
X97533609Y-79531268D01*
X97605666Y-79543824D01*
X97679185Y-79537439D01*
X97735072Y-79517772D01*
X97783132Y-79484629D01*
X97822412Y-79441175D01*
X97823092Y-79440158D01*
X97839044Y-79413338D01*
X97849410Y-79386368D01*
X97855688Y-79352332D01*
X97859373Y-79304310D01*
X97860997Y-79264931D01*
X97861672Y-79229219D01*
X97735955Y-79229219D01*
X97734726Y-79264770D01*
X97730266Y-79312094D01*
X97722397Y-79342465D01*
X97708207Y-79364072D01*
X97694917Y-79376694D01*
X97647802Y-79403122D01*
X97598505Y-79406653D01*
X97552593Y-79387639D01*
X97529638Y-79366331D01*
X97513096Y-79344859D01*
X97503421Y-79324313D01*
X97499174Y-79297574D01*
X97498920Y-79257523D01*
X97500228Y-79220638D01*
X97503043Y-79167947D01*
X97507505Y-79133772D01*
X97515548Y-79111480D01*
X97529103Y-79094442D01*
X97539845Y-79084703D01*
X97584777Y-79059123D01*
X97633249Y-79057847D01*
X97673894Y-79072999D01*
X97708567Y-79104642D01*
X97729224Y-79156620D01*
X97735955Y-79229219D01*
X97861672Y-79229219D01*
X97862479Y-79186621D01*
X97859948Y-79128056D01*
X97852362Y-79084007D01*
X97838681Y-79049248D01*
X97817865Y-79018551D01*
X97810147Y-79009436D01*
X97761889Y-78964021D01*
X97710128Y-78937493D01*
X97646828Y-78926379D01*
X97615961Y-78925471D01*
X97534261Y-78935148D01*
X97534261Y-78935148D01*
G37*
X97534261Y-78935148D02*
X97468479Y-78964231D01*
X97418540Y-79012793D01*
X97384374Y-79080908D01*
X97365907Y-79168651D01*
X97364583Y-79182351D01*
X97363546Y-79278939D01*
X97376993Y-79363602D01*
X97404108Y-79432221D01*
X97418627Y-79454294D01*
X97469201Y-79501011D01*
X97533609Y-79531268D01*
X97605666Y-79543824D01*
X97679185Y-79537439D01*
X97735072Y-79517772D01*
X97783132Y-79484629D01*
X97822412Y-79441175D01*
X97823092Y-79440158D01*
X97839044Y-79413338D01*
X97849410Y-79386368D01*
X97855688Y-79352332D01*
X97859373Y-79304310D01*
X97860997Y-79264931D01*
X97861672Y-79229219D01*
X97735955Y-79229219D01*
X97734726Y-79264770D01*
X97730266Y-79312094D01*
X97722397Y-79342465D01*
X97708207Y-79364072D01*
X97694917Y-79376694D01*
X97647802Y-79403122D01*
X97598505Y-79406653D01*
X97552593Y-79387639D01*
X97529638Y-79366331D01*
X97513096Y-79344859D01*
X97503421Y-79324313D01*
X97499174Y-79297574D01*
X97498920Y-79257523D01*
X97500228Y-79220638D01*
X97503043Y-79167947D01*
X97507505Y-79133772D01*
X97515548Y-79111480D01*
X97529103Y-79094442D01*
X97539845Y-79084703D01*
X97584777Y-79059123D01*
X97633249Y-79057847D01*
X97673894Y-79072999D01*
X97708567Y-79104642D01*
X97729224Y-79156620D01*
X97735955Y-79229219D01*
X97861672Y-79229219D01*
X97862479Y-79186621D01*
X97859948Y-79128056D01*
X97852362Y-79084007D01*
X97838681Y-79049248D01*
X97817865Y-79018551D01*
X97810147Y-79009436D01*
X97761889Y-78964021D01*
X97710128Y-78937493D01*
X97646828Y-78926379D01*
X97615961Y-78925471D01*
X97534261Y-78935148D01*
G36*
X92963419Y-79874970D02*
G01*
X92903315Y-79890597D01*
X92852979Y-79922848D01*
X92828607Y-79946940D01*
X92788655Y-80003895D01*
X92765758Y-80069965D01*
X92757892Y-80151182D01*
X92757852Y-80157748D01*
X92757782Y-80223763D01*
X93137736Y-80223763D01*
X93129637Y-80258342D01*
X93115013Y-80289659D01*
X93089419Y-80322291D01*
X93084065Y-80327500D01*
X93038057Y-80355694D01*
X92985590Y-80360475D01*
X92925197Y-80341926D01*
X92914960Y-80336931D01*
X92883561Y-80321745D01*
X92862530Y-80313094D01*
X92858861Y-80312293D01*
X92846052Y-80320063D01*
X92821622Y-80339072D01*
X92809221Y-80349460D01*
X92783524Y-80373321D01*
X92775085Y-80389077D01*
X92780942Y-80403571D01*
X92784072Y-80407534D01*
X92805275Y-80424879D01*
X92840262Y-80445959D01*
X92864663Y-80458265D01*
X92933928Y-80479946D01*
X93010612Y-80486971D01*
X93083235Y-80478647D01*
X93103574Y-80472686D01*
X93166524Y-80438952D01*
X93213185Y-80387045D01*
X93243827Y-80316459D01*
X93258718Y-80226692D01*
X93260353Y-80179753D01*
X93255579Y-80111413D01*
X93135010Y-80111413D01*
X93123348Y-80116465D01*
X93092002Y-80120429D01*
X93046429Y-80122768D01*
X93015554Y-80123169D01*
X92960019Y-80122783D01*
X92924967Y-80120975D01*
X92905738Y-80116773D01*
X92897670Y-80109203D01*
X92896099Y-80098218D01*
X92906879Y-80064381D01*
X92934020Y-80030940D01*
X92969723Y-80005272D01*
X93005440Y-79994772D01*
X93053952Y-80004086D01*
X93095947Y-80031013D01*
X93125064Y-80069827D01*
X93135010Y-80111413D01*
X93255579Y-80111413D01*
X93253401Y-80080236D01*
X93231945Y-80000949D01*
X93195530Y-79941263D01*
X93143703Y-79900549D01*
X93076010Y-79878179D01*
X93039338Y-79873871D01*
X92963419Y-79874970D01*
X92963419Y-79874970D01*
G37*
X92963419Y-79874970D02*
X92903315Y-79890597D01*
X92852979Y-79922848D01*
X92828607Y-79946940D01*
X92788655Y-80003895D01*
X92765758Y-80069965D01*
X92757892Y-80151182D01*
X92757852Y-80157748D01*
X92757782Y-80223763D01*
X93137736Y-80223763D01*
X93129637Y-80258342D01*
X93115013Y-80289659D01*
X93089419Y-80322291D01*
X93084065Y-80327500D01*
X93038057Y-80355694D01*
X92985590Y-80360475D01*
X92925197Y-80341926D01*
X92914960Y-80336931D01*
X92883561Y-80321745D01*
X92862530Y-80313094D01*
X92858861Y-80312293D01*
X92846052Y-80320063D01*
X92821622Y-80339072D01*
X92809221Y-80349460D01*
X92783524Y-80373321D01*
X92775085Y-80389077D01*
X92780942Y-80403571D01*
X92784072Y-80407534D01*
X92805275Y-80424879D01*
X92840262Y-80445959D01*
X92864663Y-80458265D01*
X92933928Y-80479946D01*
X93010612Y-80486971D01*
X93083235Y-80478647D01*
X93103574Y-80472686D01*
X93166524Y-80438952D01*
X93213185Y-80387045D01*
X93243827Y-80316459D01*
X93258718Y-80226692D01*
X93260353Y-80179753D01*
X93255579Y-80111413D01*
X93135010Y-80111413D01*
X93123348Y-80116465D01*
X93092002Y-80120429D01*
X93046429Y-80122768D01*
X93015554Y-80123169D01*
X92960019Y-80122783D01*
X92924967Y-80120975D01*
X92905738Y-80116773D01*
X92897670Y-80109203D01*
X92896099Y-80098218D01*
X92906879Y-80064381D01*
X92934020Y-80030940D01*
X92969723Y-80005272D01*
X93005440Y-79994772D01*
X93053952Y-80004086D01*
X93095947Y-80031013D01*
X93125064Y-80069827D01*
X93135010Y-80111413D01*
X93255579Y-80111413D01*
X93253401Y-80080236D01*
X93231945Y-80000949D01*
X93195530Y-79941263D01*
X93143703Y-79900549D01*
X93076010Y-79878179D01*
X93039338Y-79873871D01*
X92963419Y-79874970D01*
G36*
X93360745Y-79871486D02*
G01*
X93312405Y-79881015D01*
X93284886Y-79895125D01*
X93255936Y-79918568D01*
X93297124Y-79970571D01*
X93322518Y-80002064D01*
X93339762Y-80017428D01*
X93356898Y-80019776D01*
X93381973Y-80012217D01*
X93393743Y-80007941D01*
X93441730Y-80001631D01*
X93485676Y-80015156D01*
X93517940Y-80045710D01*
X93523181Y-80055452D01*
X93528888Y-80081258D01*
X93533294Y-80128817D01*
X93536189Y-80194758D01*
X93537369Y-80275710D01*
X93537386Y-80287226D01*
X93537386Y-80487822D01*
X93675703Y-80487822D01*
X93675703Y-79871683D01*
X93606544Y-79871683D01*
X93566667Y-79872725D01*
X93545893Y-79877358D01*
X93538211Y-79887849D01*
X93537386Y-79897745D01*
X93537386Y-79923806D01*
X93504255Y-79897745D01*
X93466265Y-79879965D01*
X93415230Y-79871174D01*
X93360745Y-79871486D01*
X93360745Y-79871486D01*
G37*
X93360745Y-79871486D02*
X93312405Y-79881015D01*
X93284886Y-79895125D01*
X93255936Y-79918568D01*
X93297124Y-79970571D01*
X93322518Y-80002064D01*
X93339762Y-80017428D01*
X93356898Y-80019776D01*
X93381973Y-80012217D01*
X93393743Y-80007941D01*
X93441730Y-80001631D01*
X93485676Y-80015156D01*
X93517940Y-80045710D01*
X93523181Y-80055452D01*
X93528888Y-80081258D01*
X93533294Y-80128817D01*
X93536189Y-80194758D01*
X93537369Y-80275710D01*
X93537386Y-80287226D01*
X93537386Y-80487822D01*
X93675703Y-80487822D01*
X93675703Y-79871683D01*
X93606544Y-79871683D01*
X93566667Y-79872725D01*
X93545893Y-79877358D01*
X93538211Y-79887849D01*
X93537386Y-79897745D01*
X93537386Y-79923806D01*
X93504255Y-79897745D01*
X93466265Y-79879965D01*
X93415230Y-79871174D01*
X93360745Y-79871486D01*
G36*
X93957589Y-79875417D02*
G01*
X93904589Y-79888290D01*
X93889269Y-79895110D01*
X93859572Y-79912974D01*
X93836780Y-79933093D01*
X93819917Y-79958962D01*
X93808002Y-79994073D01*
X93800058Y-80041920D01*
X93795106Y-80105996D01*
X93792169Y-80189794D01*
X93791053Y-80245768D01*
X93786948Y-80487822D01*
X93857068Y-80487822D01*
X93899607Y-80486038D01*
X93921524Y-80479942D01*
X93927188Y-80469706D01*
X93930179Y-80458637D01*
X93943549Y-80460754D01*
X93961767Y-80469629D01*
X94007376Y-80483233D01*
X94065993Y-80486899D01*
X94127646Y-80480903D01*
X94182362Y-80465521D01*
X94187270Y-80463386D01*
X94237277Y-80428255D01*
X94270244Y-80379419D01*
X94285413Y-80322333D01*
X94284254Y-80301824D01*
X94160492Y-80301824D01*
X94149587Y-80329425D01*
X94117255Y-80349204D01*
X94065090Y-80359819D01*
X94037213Y-80361228D01*
X93990753Y-80357620D01*
X93959871Y-80343597D01*
X93952336Y-80336931D01*
X93931924Y-80300666D01*
X93927188Y-80267773D01*
X93927188Y-80223763D01*
X93988487Y-80223763D01*
X94059744Y-80227395D01*
X94109724Y-80238818D01*
X94141304Y-80258824D01*
X94148374Y-80267743D01*
X94160492Y-80301824D01*
X94284254Y-80301824D01*
X94282029Y-80262456D01*
X94259337Y-80205244D01*
X94228376Y-80166580D01*
X94209624Y-80149864D01*
X94191267Y-80138878D01*
X94167381Y-80132180D01*
X94132043Y-80128326D01*
X94079331Y-80125873D01*
X94058423Y-80125168D01*
X93927188Y-80120879D01*
X93927380Y-80081158D01*
X93932463Y-80039405D01*
X93950838Y-80014158D01*
X93987961Y-79998030D01*
X93988957Y-79997742D01*
X94041590Y-79991400D01*
X94093094Y-79999684D01*
X94131370Y-80019827D01*
X94146728Y-80029773D01*
X94163270Y-80028397D01*
X94188725Y-80013987D01*
X94203672Y-80003817D01*
X94232909Y-79982088D01*
X94251020Y-79965800D01*
X94253926Y-79961137D01*
X94241960Y-79937005D01*
X94206604Y-79908185D01*
X94191247Y-79898461D01*
X94147099Y-79881714D01*
X94087602Y-79872227D01*
X94021513Y-79870095D01*
X93957589Y-79875417D01*
X93957589Y-79875417D01*
G37*
X93957589Y-79875417D02*
X93904589Y-79888290D01*
X93889269Y-79895110D01*
X93859572Y-79912974D01*
X93836780Y-79933093D01*
X93819917Y-79958962D01*
X93808002Y-79994073D01*
X93800058Y-80041920D01*
X93795106Y-80105996D01*
X93792169Y-80189794D01*
X93791053Y-80245768D01*
X93786948Y-80487822D01*
X93857068Y-80487822D01*
X93899607Y-80486038D01*
X93921524Y-80479942D01*
X93927188Y-80469706D01*
X93930179Y-80458637D01*
X93943549Y-80460754D01*
X93961767Y-80469629D01*
X94007376Y-80483233D01*
X94065993Y-80486899D01*
X94127646Y-80480903D01*
X94182362Y-80465521D01*
X94187270Y-80463386D01*
X94237277Y-80428255D01*
X94270244Y-80379419D01*
X94285413Y-80322333D01*
X94284254Y-80301824D01*
X94160492Y-80301824D01*
X94149587Y-80329425D01*
X94117255Y-80349204D01*
X94065090Y-80359819D01*
X94037213Y-80361228D01*
X93990753Y-80357620D01*
X93959871Y-80343597D01*
X93952336Y-80336931D01*
X93931924Y-80300666D01*
X93927188Y-80267773D01*
X93927188Y-80223763D01*
X93988487Y-80223763D01*
X94059744Y-80227395D01*
X94109724Y-80238818D01*
X94141304Y-80258824D01*
X94148374Y-80267743D01*
X94160492Y-80301824D01*
X94284254Y-80301824D01*
X94282029Y-80262456D01*
X94259337Y-80205244D01*
X94228376Y-80166580D01*
X94209624Y-80149864D01*
X94191267Y-80138878D01*
X94167381Y-80132180D01*
X94132043Y-80128326D01*
X94079331Y-80125873D01*
X94058423Y-80125168D01*
X93927188Y-80120879D01*
X93927380Y-80081158D01*
X93932463Y-80039405D01*
X93950838Y-80014158D01*
X93987961Y-79998030D01*
X93988957Y-79997742D01*
X94041590Y-79991400D01*
X94093094Y-79999684D01*
X94131370Y-80019827D01*
X94146728Y-80029773D01*
X94163270Y-80028397D01*
X94188725Y-80013987D01*
X94203672Y-80003817D01*
X94232909Y-79982088D01*
X94251020Y-79965800D01*
X94253926Y-79961137D01*
X94241960Y-79937005D01*
X94206604Y-79908185D01*
X94191247Y-79898461D01*
X94147099Y-79881714D01*
X94087602Y-79872227D01*
X94021513Y-79870095D01*
X93957589Y-79875417D01*
G36*
X94714476Y-79874237D02*
G01*
X94664745Y-79877971D01*
X94534709Y-80267773D01*
X94514322Y-80198614D01*
X94502054Y-80155874D01*
X94485915Y-80098115D01*
X94468488Y-80034625D01*
X94459274Y-80000570D01*
X94424612Y-79871683D01*
X94281609Y-79871683D01*
X94324354Y-80006857D01*
X94345404Y-80073342D01*
X94370833Y-80153539D01*
X94397390Y-80237193D01*
X94421098Y-80311782D01*
X94475098Y-80481535D01*
X94533402Y-80485328D01*
X94591705Y-80489122D01*
X94623321Y-80384734D01*
X94642818Y-80319889D01*
X94664096Y-80248400D01*
X94682692Y-80185263D01*
X94683426Y-80182750D01*
X94697316Y-80139969D01*
X94709571Y-80110779D01*
X94718154Y-80099741D01*
X94719918Y-80101018D01*
X94726109Y-80118130D01*
X94737872Y-80154787D01*
X94753775Y-80206378D01*
X94772386Y-80268294D01*
X94782457Y-80302352D01*
X94836993Y-80487822D01*
X94952736Y-80487822D01*
X95045263Y-80195471D01*
X95071256Y-80113462D01*
X95094934Y-80038987D01*
X95115180Y-79975544D01*
X95130874Y-79926632D01*
X95140898Y-79895749D01*
X95143945Y-79886726D01*
X95141533Y-79877487D01*
X95122592Y-79873441D01*
X95083177Y-79873846D01*
X95077007Y-79874152D01*
X95003914Y-79877971D01*
X94956043Y-80054010D01*
X94938447Y-80118211D01*
X94922723Y-80174649D01*
X94910254Y-80218422D01*
X94902426Y-80244630D01*
X94900980Y-80248903D01*
X94894986Y-80243990D01*
X94882899Y-80218532D01*
X94866107Y-80175997D01*
X94845997Y-80119850D01*
X94828997Y-80069130D01*
X94764206Y-79870504D01*
X94714476Y-79874237D01*
X94714476Y-79874237D01*
G37*
X94714476Y-79874237D02*
X94664745Y-79877971D01*
X94534709Y-80267773D01*
X94514322Y-80198614D01*
X94502054Y-80155874D01*
X94485915Y-80098115D01*
X94468488Y-80034625D01*
X94459274Y-80000570D01*
X94424612Y-79871683D01*
X94281609Y-79871683D01*
X94324354Y-80006857D01*
X94345404Y-80073342D01*
X94370833Y-80153539D01*
X94397390Y-80237193D01*
X94421098Y-80311782D01*
X94475098Y-80481535D01*
X94533402Y-80485328D01*
X94591705Y-80489122D01*
X94623321Y-80384734D01*
X94642818Y-80319889D01*
X94664096Y-80248400D01*
X94682692Y-80185263D01*
X94683426Y-80182750D01*
X94697316Y-80139969D01*
X94709571Y-80110779D01*
X94718154Y-80099741D01*
X94719918Y-80101018D01*
X94726109Y-80118130D01*
X94737872Y-80154787D01*
X94753775Y-80206378D01*
X94772386Y-80268294D01*
X94782457Y-80302352D01*
X94836993Y-80487822D01*
X94952736Y-80487822D01*
X95045263Y-80195471D01*
X95071256Y-80113462D01*
X95094934Y-80038987D01*
X95115180Y-79975544D01*
X95130874Y-79926632D01*
X95140898Y-79895749D01*
X95143945Y-79886726D01*
X95141533Y-79877487D01*
X95122592Y-79873441D01*
X95083177Y-79873846D01*
X95077007Y-79874152D01*
X95003914Y-79877971D01*
X94956043Y-80054010D01*
X94938447Y-80118211D01*
X94922723Y-80174649D01*
X94910254Y-80218422D01*
X94902426Y-80244630D01*
X94900980Y-80248903D01*
X94894986Y-80243990D01*
X94882899Y-80218532D01*
X94866107Y-80175997D01*
X94845997Y-80119850D01*
X94828997Y-80069130D01*
X94764206Y-79870504D01*
X94714476Y-79874237D01*
G36*
X95197188Y-80487822D02*
G01*
X95266346Y-80487822D01*
X95306488Y-80486645D01*
X95327394Y-80481772D01*
X95334922Y-80471186D01*
X95335505Y-80464029D01*
X95336774Y-80449676D01*
X95344779Y-80446923D01*
X95365815Y-80455771D01*
X95382173Y-80464029D01*
X95444977Y-80483597D01*
X95513248Y-80484729D01*
X95568752Y-80470135D01*
X95620438Y-80434877D01*
X95659838Y-80382835D01*
X95681413Y-80321450D01*
X95681962Y-80318018D01*
X95685167Y-80280571D01*
X95686761Y-80226813D01*
X95686633Y-80186155D01*
X95549279Y-80186155D01*
X95546097Y-80240194D01*
X95538859Y-80284735D01*
X95529060Y-80309888D01*
X95491989Y-80344260D01*
X95447974Y-80356582D01*
X95402584Y-80346618D01*
X95363797Y-80316895D01*
X95349108Y-80296905D01*
X95340519Y-80273050D01*
X95336496Y-80238230D01*
X95335505Y-80185930D01*
X95337278Y-80134139D01*
X95341963Y-80088634D01*
X95348603Y-80058181D01*
X95349710Y-80055452D01*
X95376491Y-80023000D01*
X95415579Y-80005183D01*
X95459315Y-80002306D01*
X95500038Y-80014674D01*
X95530087Y-80042593D01*
X95533204Y-80048148D01*
X95542961Y-80082022D01*
X95548277Y-80130728D01*
X95549279Y-80186155D01*
X95686633Y-80186155D01*
X95686568Y-80165540D01*
X95685664Y-80132563D01*
X95679514Y-80050981D01*
X95666733Y-79989730D01*
X95645471Y-79944449D01*
X95613878Y-79910779D01*
X95583207Y-79891014D01*
X95540354Y-79877120D01*
X95487056Y-79872354D01*
X95432480Y-79876236D01*
X95385792Y-79888282D01*
X95361124Y-79902693D01*
X95335505Y-79925878D01*
X95335505Y-79632773D01*
X95197188Y-79632773D01*
X95197188Y-80487822D01*
X95197188Y-80487822D01*
G37*
X95197188Y-80487822D02*
X95266346Y-80487822D01*
X95306488Y-80486645D01*
X95327394Y-80481772D01*
X95334922Y-80471186D01*
X95335505Y-80464029D01*
X95336774Y-80449676D01*
X95344779Y-80446923D01*
X95365815Y-80455771D01*
X95382173Y-80464029D01*
X95444977Y-80483597D01*
X95513248Y-80484729D01*
X95568752Y-80470135D01*
X95620438Y-80434877D01*
X95659838Y-80382835D01*
X95681413Y-80321450D01*
X95681962Y-80318018D01*
X95685167Y-80280571D01*
X95686761Y-80226813D01*
X95686633Y-80186155D01*
X95549279Y-80186155D01*
X95546097Y-80240194D01*
X95538859Y-80284735D01*
X95529060Y-80309888D01*
X95491989Y-80344260D01*
X95447974Y-80356582D01*
X95402584Y-80346618D01*
X95363797Y-80316895D01*
X95349108Y-80296905D01*
X95340519Y-80273050D01*
X95336496Y-80238230D01*
X95335505Y-80185930D01*
X95337278Y-80134139D01*
X95341963Y-80088634D01*
X95348603Y-80058181D01*
X95349710Y-80055452D01*
X95376491Y-80023000D01*
X95415579Y-80005183D01*
X95459315Y-80002306D01*
X95500038Y-80014674D01*
X95530087Y-80042593D01*
X95533204Y-80048148D01*
X95542961Y-80082022D01*
X95548277Y-80130728D01*
X95549279Y-80186155D01*
X95686633Y-80186155D01*
X95686568Y-80165540D01*
X95685664Y-80132563D01*
X95679514Y-80050981D01*
X95666733Y-79989730D01*
X95645471Y-79944449D01*
X95613878Y-79910779D01*
X95583207Y-79891014D01*
X95540354Y-79877120D01*
X95487056Y-79872354D01*
X95432480Y-79876236D01*
X95385792Y-79888282D01*
X95361124Y-79902693D01*
X95335505Y-79925878D01*
X95335505Y-79632773D01*
X95197188Y-79632773D01*
X95197188Y-80487822D01*
G36*
X95989356Y-79873020D02*
G01*
X95970539Y-79878660D01*
X95964473Y-79891053D01*
X95964218Y-79896647D01*
X95963129Y-79912230D01*
X95955632Y-79914676D01*
X95935381Y-79903993D01*
X95923351Y-79896694D01*
X95885400Y-79881063D01*
X95840072Y-79873334D01*
X95792544Y-79872740D01*
X95747995Y-79878513D01*
X95711602Y-79889884D01*
X95688543Y-79906088D01*
X95683996Y-79926355D01*
X95686291Y-79931843D01*
X95703020Y-79954626D01*
X95728963Y-79982647D01*
X95733655Y-79987177D01*
X95758383Y-80008005D01*
X95779718Y-80014735D01*
X95809555Y-80010038D01*
X95821508Y-80006917D01*
X95858705Y-79999421D01*
X95884859Y-80002792D01*
X95906946Y-80014681D01*
X95927178Y-80030635D01*
X95942079Y-80050700D01*
X95952434Y-80078702D01*
X95959029Y-80118467D01*
X95962649Y-80173823D01*
X95964078Y-80248594D01*
X95964218Y-80293740D01*
X95964218Y-80487822D01*
X96089960Y-80487822D01*
X96089960Y-79871683D01*
X96027089Y-79871683D01*
X95989356Y-79873020D01*
X95989356Y-79873020D01*
G37*
X95989356Y-79873020D02*
X95970539Y-79878660D01*
X95964473Y-79891053D01*
X95964218Y-79896647D01*
X95963129Y-79912230D01*
X95955632Y-79914676D01*
X95935381Y-79903993D01*
X95923351Y-79896694D01*
X95885400Y-79881063D01*
X95840072Y-79873334D01*
X95792544Y-79872740D01*
X95747995Y-79878513D01*
X95711602Y-79889884D01*
X95688543Y-79906088D01*
X95683996Y-79926355D01*
X95686291Y-79931843D01*
X95703020Y-79954626D01*
X95728963Y-79982647D01*
X95733655Y-79987177D01*
X95758383Y-80008005D01*
X95779718Y-80014735D01*
X95809555Y-80010038D01*
X95821508Y-80006917D01*
X95858705Y-79999421D01*
X95884859Y-80002792D01*
X95906946Y-80014681D01*
X95927178Y-80030635D01*
X95942079Y-80050700D01*
X95952434Y-80078702D01*
X95959029Y-80118467D01*
X95962649Y-80173823D01*
X95964078Y-80248594D01*
X95964218Y-80293740D01*
X95964218Y-80487822D01*
X96089960Y-80487822D01*
X96089960Y-79871683D01*
X96027089Y-79871683D01*
X95989356Y-79873020D01*
G36*
X96380210Y-79876555D02*
G01*
X96321055Y-79892339D01*
X96276023Y-79920948D01*
X96244246Y-79958419D01*
X96234366Y-79974411D01*
X96227073Y-79991163D01*
X96221974Y-80012592D01*
X96218679Y-80042616D01*
X96216797Y-80085154D01*
X96215937Y-80144122D01*
X96215707Y-80223440D01*
X96215703Y-80244484D01*
X96215703Y-80487822D01*
X96276059Y-80487822D01*
X96314557Y-80485126D01*
X96343023Y-80478295D01*
X96350155Y-80474083D01*
X96369652Y-80466813D01*
X96389566Y-80474083D01*
X96422353Y-80483160D01*
X96469978Y-80486813D01*
X96522764Y-80485228D01*
X96571036Y-80478589D01*
X96599218Y-80470072D01*
X96653753Y-80435063D01*
X96687835Y-80386479D01*
X96703157Y-80321882D01*
X96703299Y-80320223D01*
X96701955Y-80291566D01*
X96580356Y-80291566D01*
X96569726Y-80324161D01*
X96552410Y-80342505D01*
X96517652Y-80356379D01*
X96471773Y-80361917D01*
X96424988Y-80359191D01*
X96387514Y-80348274D01*
X96377015Y-80341269D01*
X96358668Y-80308904D01*
X96354020Y-80272111D01*
X96354020Y-80223763D01*
X96423582Y-80223763D01*
X96489667Y-80228850D01*
X96539764Y-80243263D01*
X96570929Y-80265729D01*
X96580356Y-80291566D01*
X96701955Y-80291566D01*
X96699987Y-80249647D01*
X96676710Y-80193845D01*
X96632948Y-80151647D01*
X96626899Y-80147808D01*
X96600907Y-80135309D01*
X96568735Y-80127740D01*
X96523760Y-80124061D01*
X96470331Y-80123216D01*
X96354020Y-80123169D01*
X96354020Y-80074411D01*
X96358953Y-80036581D01*
X96371543Y-80011236D01*
X96373017Y-80009887D01*
X96401034Y-79998800D01*
X96443326Y-79994503D01*
X96490064Y-79996615D01*
X96531418Y-80004756D01*
X96555957Y-80016965D01*
X96569253Y-80026746D01*
X96583294Y-80028613D01*
X96602671Y-80020600D01*
X96631976Y-80000739D01*
X96675803Y-79967063D01*
X96679825Y-79963909D01*
X96677764Y-79952236D01*
X96660568Y-79932822D01*
X96634433Y-79911248D01*
X96605552Y-79893096D01*
X96596478Y-79888809D01*
X96563380Y-79880256D01*
X96514880Y-79874155D01*
X96460695Y-79871708D01*
X96458161Y-79871703D01*
X96380210Y-79876555D01*
X96380210Y-79876555D01*
G37*
X96380210Y-79876555D02*
X96321055Y-79892339D01*
X96276023Y-79920948D01*
X96244246Y-79958419D01*
X96234366Y-79974411D01*
X96227073Y-79991163D01*
X96221974Y-80012592D01*
X96218679Y-80042616D01*
X96216797Y-80085154D01*
X96215937Y-80144122D01*
X96215707Y-80223440D01*
X96215703Y-80244484D01*
X96215703Y-80487822D01*
X96276059Y-80487822D01*
X96314557Y-80485126D01*
X96343023Y-80478295D01*
X96350155Y-80474083D01*
X96369652Y-80466813D01*
X96389566Y-80474083D01*
X96422353Y-80483160D01*
X96469978Y-80486813D01*
X96522764Y-80485228D01*
X96571036Y-80478589D01*
X96599218Y-80470072D01*
X96653753Y-80435063D01*
X96687835Y-80386479D01*
X96703157Y-80321882D01*
X96703299Y-80320223D01*
X96701955Y-80291566D01*
X96580356Y-80291566D01*
X96569726Y-80324161D01*
X96552410Y-80342505D01*
X96517652Y-80356379D01*
X96471773Y-80361917D01*
X96424988Y-80359191D01*
X96387514Y-80348274D01*
X96377015Y-80341269D01*
X96358668Y-80308904D01*
X96354020Y-80272111D01*
X96354020Y-80223763D01*
X96423582Y-80223763D01*
X96489667Y-80228850D01*
X96539764Y-80243263D01*
X96570929Y-80265729D01*
X96580356Y-80291566D01*
X96701955Y-80291566D01*
X96699987Y-80249647D01*
X96676710Y-80193845D01*
X96632948Y-80151647D01*
X96626899Y-80147808D01*
X96600907Y-80135309D01*
X96568735Y-80127740D01*
X96523760Y-80124061D01*
X96470331Y-80123216D01*
X96354020Y-80123169D01*
X96354020Y-80074411D01*
X96358953Y-80036581D01*
X96371543Y-80011236D01*
X96373017Y-80009887D01*
X96401034Y-79998800D01*
X96443326Y-79994503D01*
X96490064Y-79996615D01*
X96531418Y-80004756D01*
X96555957Y-80016965D01*
X96569253Y-80026746D01*
X96583294Y-80028613D01*
X96602671Y-80020600D01*
X96631976Y-80000739D01*
X96675803Y-79967063D01*
X96679825Y-79963909D01*
X96677764Y-79952236D01*
X96660568Y-79932822D01*
X96634433Y-79911248D01*
X96605552Y-79893096D01*
X96596478Y-79888809D01*
X96563380Y-79880256D01*
X96514880Y-79874155D01*
X96460695Y-79871708D01*
X96458161Y-79871703D01*
X96380210Y-79876555D01*
G36*
X96904759Y-78939184D02*
G01*
X96878247Y-78952282D01*
X96845553Y-78975106D01*
X96821725Y-78999996D01*
X96805406Y-79031249D01*
X96795240Y-79073166D01*
X96789872Y-79130044D01*
X96787944Y-79206184D01*
X96787831Y-79238917D01*
X96788161Y-79310656D01*
X96789527Y-79361927D01*
X96792500Y-79397404D01*
X96797649Y-79421763D01*
X96805543Y-79439680D01*
X96813757Y-79451902D01*
X96866187Y-79503905D01*
X96927930Y-79535184D01*
X96994536Y-79544592D01*
X97061558Y-79530980D01*
X97082792Y-79521354D01*
X97133624Y-79494859D01*
X97133624Y-79910052D01*
X97096525Y-79890868D01*
X97047643Y-79876025D01*
X96987561Y-79872222D01*
X96927564Y-79879243D01*
X96882256Y-79895013D01*
X96844675Y-79925047D01*
X96812564Y-79968024D01*
X96810150Y-79972436D01*
X96799967Y-79993221D01*
X96792530Y-80014170D01*
X96787411Y-80039548D01*
X96784181Y-80073618D01*
X96782413Y-80120641D01*
X96781677Y-80184882D01*
X96781544Y-80257176D01*
X96781544Y-80487822D01*
X96919861Y-80487822D01*
X96919861Y-80062533D01*
X96958549Y-80029979D01*
X96998738Y-80003940D01*
X97036797Y-79999205D01*
X97075066Y-80011389D01*
X97095462Y-80023320D01*
X97110642Y-80040313D01*
X97121438Y-80065995D01*
X97128683Y-80103991D01*
X97133208Y-80157926D01*
X97135844Y-80231425D01*
X97136772Y-80280347D01*
X97139911Y-80481535D01*
X97205926Y-80485336D01*
X97271940Y-80489136D01*
X97271940Y-79240650D01*
X97133624Y-79240650D01*
X97130097Y-79310254D01*
X97118215Y-79358569D01*
X97096020Y-79388631D01*
X97061559Y-79403471D01*
X97026742Y-79406436D01*
X96987329Y-79403028D01*
X96961171Y-79389617D01*
X96944814Y-79371896D01*
X96931937Y-79352835D01*
X96924272Y-79331601D01*
X96920861Y-79301849D01*
X96920749Y-79257236D01*
X96921897Y-79219880D01*
X96924532Y-79163604D01*
X96928456Y-79126658D01*
X96935063Y-79103223D01*
X96945749Y-79087480D01*
X96955833Y-79078380D01*
X96997970Y-79058537D01*
X97047840Y-79055332D01*
X97076476Y-79062168D01*
X97104828Y-79086464D01*
X97123609Y-79133728D01*
X97132712Y-79203624D01*
X97133624Y-79240650D01*
X97271940Y-79240650D01*
X97271940Y-78928614D01*
X97202782Y-78928614D01*
X97161260Y-78930256D01*
X97139838Y-78936087D01*
X97133626Y-78947461D01*
X97133624Y-78947798D01*
X97130742Y-78958938D01*
X97118030Y-78957673D01*
X97092757Y-78945433D01*
X97033869Y-78926707D01*
X96967615Y-78924739D01*
X96904759Y-78939184D01*
X96904759Y-78939184D01*
G37*
X96904759Y-78939184D02*
X96878247Y-78952282D01*
X96845553Y-78975106D01*
X96821725Y-78999996D01*
X96805406Y-79031249D01*
X96795240Y-79073166D01*
X96789872Y-79130044D01*
X96787944Y-79206184D01*
X96787831Y-79238917D01*
X96788161Y-79310656D01*
X96789527Y-79361927D01*
X96792500Y-79397404D01*
X96797649Y-79421763D01*
X96805543Y-79439680D01*
X96813757Y-79451902D01*
X96866187Y-79503905D01*
X96927930Y-79535184D01*
X96994536Y-79544592D01*
X97061558Y-79530980D01*
X97082792Y-79521354D01*
X97133624Y-79494859D01*
X97133624Y-79910052D01*
X97096525Y-79890868D01*
X97047643Y-79876025D01*
X96987561Y-79872222D01*
X96927564Y-79879243D01*
X96882256Y-79895013D01*
X96844675Y-79925047D01*
X96812564Y-79968024D01*
X96810150Y-79972436D01*
X96799967Y-79993221D01*
X96792530Y-80014170D01*
X96787411Y-80039548D01*
X96784181Y-80073618D01*
X96782413Y-80120641D01*
X96781677Y-80184882D01*
X96781544Y-80257176D01*
X96781544Y-80487822D01*
X96919861Y-80487822D01*
X96919861Y-80062533D01*
X96958549Y-80029979D01*
X96998738Y-80003940D01*
X97036797Y-79999205D01*
X97075066Y-80011389D01*
X97095462Y-80023320D01*
X97110642Y-80040313D01*
X97121438Y-80065995D01*
X97128683Y-80103991D01*
X97133208Y-80157926D01*
X97135844Y-80231425D01*
X97136772Y-80280347D01*
X97139911Y-80481535D01*
X97205926Y-80485336D01*
X97271940Y-80489136D01*
X97271940Y-79240650D01*
X97133624Y-79240650D01*
X97130097Y-79310254D01*
X97118215Y-79358569D01*
X97096020Y-79388631D01*
X97061559Y-79403471D01*
X97026742Y-79406436D01*
X96987329Y-79403028D01*
X96961171Y-79389617D01*
X96944814Y-79371896D01*
X96931937Y-79352835D01*
X96924272Y-79331601D01*
X96920861Y-79301849D01*
X96920749Y-79257236D01*
X96921897Y-79219880D01*
X96924532Y-79163604D01*
X96928456Y-79126658D01*
X96935063Y-79103223D01*
X96945749Y-79087480D01*
X96955833Y-79078380D01*
X96997970Y-79058537D01*
X97047840Y-79055332D01*
X97076476Y-79062168D01*
X97104828Y-79086464D01*
X97123609Y-79133728D01*
X97132712Y-79203624D01*
X97133624Y-79240650D01*
X97271940Y-79240650D01*
X97271940Y-78928614D01*
X97202782Y-78928614D01*
X97161260Y-78930256D01*
X97139838Y-78936087D01*
X97133626Y-78947461D01*
X97133624Y-78947798D01*
X97130742Y-78958938D01*
X97118030Y-78957673D01*
X97092757Y-78945433D01*
X97033869Y-78926707D01*
X96967615Y-78924739D01*
X96904759Y-78939184D01*
M02*
